<svg width="180" height="42" viewBox="0 0 180 42" fill="none" xmlns="http://www.w3.org/2000/svg">
<path d="M179.992 31.0661H173.449V26.4931C172.581 29.8052 170.137 31.3822 166.589 31.3822C162.174 31.3822 160.125 29.2537 160.125 26.3351C160.125 18.9177 172.739 20.5801 172.739 14.1947C172.739 12.1436 171.557 10.7246 169.664 10.7246C167.615 10.7246 166.439 12.2226 166.439 13.8787C166.439 14.9832 166.762 15.9281 167.858 17.1117C165.573 18.4517 161.236 18.6097 161.236 14.9042C161.236 12.2226 164.232 9.46367 169.751 9.46367C176.216 9.46367 179.37 12.1436 179.37 18.6887V24.6017C179.361 27.6767 179.678 30.2776 179.992 31.0661ZM173.449 16.3232C172.66 19.7094 166.354 21.2896 166.354 25.9417C166.354 27.9911 167.537 28.9377 169.114 28.9377C172.109 28.9377 173.449 25.7046 173.449 16.3232ZM112.899 9.14763V15.6927C114.081 12.2226 116.447 9.46367 120.073 9.46367C125.278 9.46367 126.697 13.4062 126.697 18.1356V24.6017C126.697 27.6767 127.02 30.2776 127.328 31.0661H120.152C120.475 30.2776 120.784 27.6799 120.784 24.6017V17.1843C120.784 14.0302 119.917 12.4532 118.024 12.4532C115.737 12.4532 112.899 15.5282 112.899 24.5952C112.899 27.6702 113.222 30.2712 113.53 31.0597H106.356C106.67 30.2712 106.986 27.6735 106.986 24.5952V18.6097C106.986 16.0861 106.749 13.9577 106.277 11.9872C108.642 11.3567 111.164 10.3312 112.899 9.14763ZM42.1012 18.6097C42.1012 16.0861 41.8642 13.9577 41.3917 11.9872C43.7572 11.3567 46.2791 10.3312 48.0141 9.14763V24.6017C48.0141 27.6767 48.3366 30.2776 48.6446 31.0661H42.1012V27.2816C40.7613 29.8052 38.3926 31.3822 34.9258 31.3822C30.3545 31.3822 28.3034 28.5426 28.3034 23.8922V18.6097C28.3034 16.0861 28.068 13.9577 27.5939 11.9872C29.9594 11.3567 32.4829 10.3312 34.2163 9.14763V24.4437C34.2163 26.5721 35.0838 28.4652 37.5283 28.4652C40.9144 28.4652 42.1012 25.079 42.1012 21.7637V18.6097ZM139.863 20.4221C139.863 13.4884 144.436 9.45722 150.428 9.45722C155.71 9.45722 158.864 11.8227 158.864 14.8187C158.864 18.6032 154.842 18.4452 152.24 17.4197C153.107 16.3167 153.424 14.6607 153.424 13.711C153.424 12.1339 152.635 10.715 150.9 10.715C148.062 10.715 146.092 14.5849 146.092 20.4124C146.092 25.6949 147.825 30.0309 151.451 30.0309C153.738 30.0309 155.473 27.667 156.182 25.0645C157.68 25.6949 158.232 26.248 158.232 27.0349C158.232 28.849 156.103 31.3725 150.815 31.3725C144.357 31.3822 139.863 27.4397 139.863 20.4221ZM130.875 18.6097V24.6017C130.875 27.6767 130.552 30.2776 130.244 31.0661H137.501C137.178 30.2776 136.87 27.6799 136.87 24.6017V9.14763C135.056 10.3312 132.534 11.3567 130.169 11.9872C130.638 13.9577 130.875 16.0861 130.875 18.6097ZM129.849 3.38622C129.849 1.33675 131.268 0 133.558 0C135.766 0 137.186 1.33997 137.186 3.38622C137.186 5.43246 135.766 6.77244 133.558 6.77244C131.268 6.78372 129.849 5.44214 129.849 3.38622ZM103.518 31.0661H96.9731V26.4931C96.1072 29.8052 93.6675 31.3822 90.1201 31.3822C85.7052 31.3822 83.6542 29.2537 83.6542 26.3351C83.6542 18.9177 96.2684 20.5801 96.2684 14.1947C96.2684 12.1436 95.0865 10.7246 93.1935 10.7246C91.144 10.7246 89.9685 12.2226 89.9685 13.8787C89.9685 14.9832 90.291 15.9281 91.3875 17.1117C89.1011 18.4517 84.7652 18.6097 84.7652 14.9042C84.7652 12.2226 87.7611 9.46367 93.2789 9.46367C99.7449 9.46367 102.897 12.1436 102.897 18.6887V24.6017C102.886 27.6767 103.202 30.2776 103.518 31.0661ZM96.9731 16.3232C96.1846 19.7094 89.8783 21.2896 89.8783 25.9417C89.8783 27.9911 91.0602 28.9377 92.6372 28.9377C95.6331 28.9377 96.9731 25.7046 96.9731 16.3232ZM71.8994 25.1548V11.7502H69.5371V11.5131C72.3956 9.97037 75.1599 8.2592 77.8155 6.38866V10.2586H83.5703V11.7566H77.8155V24.6871C77.8155 29.6536 81.5999 28.9441 82.9399 28.4716L83.0189 28.549C81.3629 30.7581 79.0764 31.3886 77.185 31.3886C73.873 31.3822 71.8994 29.7262 71.8994 25.1548ZM50.8488 26.7318C50.8488 23.8938 53.6867 23.4197 55.8168 23.4197C54.2398 28.6232 57.2357 30.0422 59.8366 30.0422C61.886 30.0422 63.8581 28.9393 63.8581 26.8172C63.8581 21.2187 51.4792 23.9793 51.4792 16.0136C51.4792 11.6776 55.5797 9.47012 59.5996 9.47012C64.961 9.47012 67.4055 11.3632 67.4055 13.2546C67.4055 15.4621 65.04 16.4796 61.4926 16.0926C62.2021 14.6736 62.2021 13.7271 62.2021 13.3336C62.2021 11.8356 60.8621 10.7311 58.9772 10.7311C57.0922 10.7311 55.6668 11.8356 55.6668 13.4126C55.6668 18.6161 69.0695 15.8556 69.0695 24.4501C69.0695 29.4956 64.2596 31.3838 59.7657 31.3838C54.0011 31.3822 50.852 29.4891 50.852 26.7302L50.8488 26.7318ZM14.2702 31.0661H0C0.599709 28.8044 0.891509 26.4722 0.867502 24.1324V7.17717C0.867502 3.55069 0.474062 1.73665 0 0.31766H13.6398C21.2086 0.31766 23.4161 3.6297 23.4161 7.57384C23.4161 12.0678 20.3411 14.0383 17.3452 14.9058C22.2325 15.3783 25.6235 18.292 25.6235 22.7102C25.6219 27.9121 22.4696 31.0661 14.2702 31.0661ZM7.17543 7.17717V13.5642H10.4003C14.2702 13.5642 16.5502 12.0662 16.5502 7.09816C16.5502 3.94414 14.7378 1.58023 11.7419 1.58023C8.82981 1.58023 7.17543 3.6297 7.17543 7.17717ZM18.2127 22.9457C18.2127 18.6887 16.4777 15.6895 10.8808 15.6895H7.25443V23.889C7.25443 28.1459 9.30387 29.7229 12.2998 29.7229C16.4777 29.7262 18.2127 26.4931 18.2127 22.9457Z" fill="#EB1E2C"/>
<path d="M179.992 31.0978H173.449V26.5248C172.581 29.8352 170.137 31.4122 166.589 31.4122C162.174 31.4122 160.125 29.2837 160.125 26.3667C160.125 18.9493 172.739 20.6118 172.739 14.2247C172.739 12.1753 171.556 10.7563 169.664 10.7563C167.615 10.7563 166.439 12.2543 166.439 13.9103C166.439 15.0132 166.762 15.9598 167.858 17.1353C165.573 18.4768 161.236 18.6333 161.236 14.9278C161.236 12.2478 164.232 9.48725 169.751 9.48725C176.216 9.48725 179.37 12.1688 179.37 18.7123V24.6253C179.37 27.7003 179.692 30.3028 180 31.0913M173.457 16.3468C172.668 19.733 166.362 21.3148 166.362 25.9652C166.362 28.0163 167.545 28.9612 169.122 28.9612C172.118 28.9612 173.458 25.7363 173.458 16.3468M112.909 9.17282V15.7163C114.092 12.2478 116.456 9.48725 120.083 9.48725C125.288 9.48725 126.707 13.4298 126.707 18.1608V24.6253C126.707 27.7003 127.029 30.3028 127.337 31.0913H120.162C120.484 30.3028 120.794 27.7051 120.794 24.6253V17.2078C120.794 14.0554 119.926 12.4784 118.033 12.4784C115.747 12.4784 112.909 15.5534 112.909 24.6188C112.909 27.6938 113.231 30.2964 113.539 31.0849H106.356C106.67 30.2964 106.986 27.6986 106.986 24.6188V18.6397C106.986 16.1178 106.749 13.9893 106.277 12.0172C108.642 11.3868 111.164 10.3612 112.899 9.17926M42.1012 18.6397C42.1012 16.1178 41.8642 13.9893 41.3917 12.0172C43.7572 11.3868 46.2791 10.3612 48.0141 9.17926V24.6317C48.0141 27.7067 48.3366 30.3093 48.6446 31.0978H42.1012V27.3133C40.7613 29.8352 38.3926 31.4122 34.9274 31.4122C30.3545 31.4122 28.3034 28.5742 28.3034 23.9222V18.6397C28.3034 16.1178 28.068 13.9893 27.5939 12.0172C29.9594 11.3868 32.4829 10.3612 34.2163 9.17926V24.4737C34.2163 26.6038 35.0838 28.4952 37.5283 28.4952C40.9144 28.4952 42.1012 25.109 42.1012 21.7937V18.6397ZM139.863 20.4538C139.863 13.5201 144.436 9.48886 150.428 9.48886C155.71 9.48886 158.864 11.8544 158.864 14.8504C158.864 18.6349 154.842 18.4785 152.24 17.4529C153.107 16.3484 153.424 14.694 153.424 13.7442C153.424 12.1672 152.635 10.7482 150.9 10.7482C148.062 10.7482 146.092 14.6182 146.092 20.4457C146.092 25.7282 147.825 30.0642 151.453 30.0642C153.738 30.0642 155.473 27.6986 156.182 25.0977C157.68 25.7282 158.232 26.2797 158.232 27.0682C158.232 28.8822 156.103 31.4041 150.815 31.4041C144.35 31.4041 139.85 27.4616 139.85 20.4392M130.862 18.6252V24.6172C130.862 27.6922 130.54 30.2948 130.232 31.0833H137.488C137.165 30.2948 136.857 27.697 136.857 24.6172V9.17926C135.043 10.3612 132.521 11.3868 130.156 12.0172C130.628 13.9893 130.865 16.1178 130.865 18.6397M129.84 3.4243C129.84 1.37322 131.259 0.0380859 133.548 0.0380859C135.756 0.0380859 137.175 1.37806 137.175 3.4243C137.175 5.47055 135.756 6.81052 133.548 6.81052C131.262 6.81052 129.84 5.47055 129.84 3.4243ZM103.518 31.0978H96.9731V26.5248C96.1072 29.8304 93.6675 31.4122 90.1201 31.4122C85.7036 31.4122 83.6542 29.2837 83.6542 26.3667C83.6542 18.9493 96.2684 20.6118 96.2684 14.2247C96.2684 12.1753 95.0865 10.7563 93.1951 10.7563C91.144 10.7563 89.9702 12.2543 89.9702 13.9103C89.9702 15.0132 90.2927 15.9598 91.3891 17.1353C89.1027 18.4768 84.7668 18.6333 84.7668 14.9278C84.7668 12.2478 87.7627 9.48725 93.2805 9.48725C99.7465 9.48725 102.9 12.1688 102.9 18.7123V24.6253C102.9 27.7003 103.223 30.3028 103.531 31.0913M96.9731 16.3532C96.1862 19.7394 89.8783 21.3213 89.8783 25.9717C89.8783 28.0228 91.0602 28.9677 92.6372 28.9677C95.6331 28.9677 96.9731 25.7427 96.9731 16.3532ZM71.8994 25.1848V11.7818H69.5371V11.5448C72.3949 10.0008 75.1592 8.2897 77.8155 6.4203V10.2903H83.5703V11.7883H77.8155V24.7172C77.8155 29.6852 81.5999 28.9741 82.9399 28.5017L83.0189 28.5807C81.3629 30.7882 79.0764 31.4186 77.185 31.4186C73.873 31.4186 71.9026 29.7626 71.9026 25.1912M50.852 26.7666C50.852 23.9287 53.6899 23.4562 55.82 23.4562C54.243 28.6597 57.2389 30.0787 59.8398 30.0787C61.8893 30.0787 63.8613 28.9741 63.8613 26.8456C63.8613 21.2487 51.4825 24.0077 51.4825 16.042C51.4825 11.706 55.5829 9.49692 59.6028 9.49692C64.9642 9.49692 67.4087 11.39 67.4087 13.2814C67.4087 15.4905 65.0432 16.5064 61.4958 16.121C62.2053 14.702 62.2053 13.7555 62.2053 13.3604C62.2053 11.8624 60.8653 10.7595 58.9804 10.7595C57.0954 10.7595 55.67 11.8624 55.67 13.4394C55.67 18.6429 69.0727 15.884 69.0727 24.4769C69.0727 29.524 64.2628 31.4106 59.7689 31.4106C54.014 31.4106 50.8601 29.5191 50.8601 26.7586M14.2702 31.0978H0C0.599516 28.836 0.891313 26.5038 0.867502 24.1641V7.20881C0.867502 3.58072 0.474062 1.76829 0 0.349299H13.6398C21.2086 0.349299 23.4161 3.65973 23.4161 7.60548C23.4161 12.0995 20.3411 14.0715 17.3452 14.9374C22.2358 15.4083 25.6219 18.3253 25.6219 22.7354C25.6219 27.9389 22.4679 31.0929 14.2686 31.0929M7.17381 7.20397V13.5894H10.3987C14.2686 13.5894 16.5486 12.0914 16.5486 7.12496C16.5486 3.97094 14.7362 1.60542 11.7403 1.60542C8.82335 1.60542 7.16736 3.65489 7.16736 7.20397M18.2046 22.9708C18.2046 18.7139 16.4696 15.7147 10.8728 15.7147H7.25443V23.9141C7.25443 28.1727 9.30387 29.7481 12.2998 29.7481C16.4777 29.7481 18.2127 26.5231 18.2127 22.9757" fill="#EB1E2C"/>
<path d="M3.50867 38.9519C3.77956 39.4099 4.02304 39.6663 4.51645 39.7582V40.4225C3.72958 40.379 3.3442 40.0726 2.904 39.3583L2.52508 38.7423H1.05935V40.3725H0.306335V35.0836H2.59441C3.63122 35.0836 4.48743 35.7125 4.48743 36.9138C4.48617 37.281 4.36885 37.6385 4.15222 37.935C3.9356 38.2316 3.63078 38.452 3.28132 38.5649L3.50867 38.9519ZM1.05613 35.7963V38.0377H2.56377C3.2281 38.0377 3.68443 37.6442 3.68443 36.9089C3.69378 36.7617 3.67181 36.6142 3.61996 36.4761C3.56812 36.338 3.48758 36.2125 3.38366 36.1078C3.27973 36.0031 3.15479 35.9216 3.01708 35.8688C2.87937 35.8159 2.73201 35.7929 2.58474 35.8011L1.05613 35.7963Z" fill="#EB1E2C"/>
<path d="M5.12926 38.3885C5.12926 37.1888 5.84358 36.3229 7.08839 36.3229C8.30902 36.3229 8.97497 37.1662 8.97497 38.3885C8.97564 38.4966 8.96591 38.6046 8.94594 38.711H5.91614C5.97903 39.3963 6.49501 39.7833 7.23029 39.7833C7.6849 39.7924 8.13259 39.671 8.52025 39.4334L8.80727 40.0332C8.31874 40.3277 7.7552 40.4739 7.18514 40.4541C5.84035 40.4541 5.12604 39.6107 5.12604 38.3885M8.21389 38.1031C8.17035 37.4161 7.79949 36.9953 7.08517 36.9953C6.37085 36.9953 5.93387 37.4242 5.93387 38.1031H8.21389Z" fill="#EB1E2C"/>
<path d="M9.96659 39.0224V37.0955H9.36676V36.6037L9.96659 36.4166L10.1456 35.5523H10.7035V36.4166H12.0547V37.1035H10.7035V39.0192C10.7035 39.5481 10.9034 39.7625 11.4033 39.7625C11.6018 39.7683 11.7992 39.7315 11.9822 39.6545V40.3124C11.7563 40.4162 11.5099 40.4675 11.2614 40.4624C10.489 40.4624 9.97143 40.0415 9.97143 39.0256" fill="#EB1E2C"/>
<path d="M12.8029 40.3675V35.193L13.5285 34.9898V37.1054C13.7785 36.583 14.2719 36.3185 14.9217 36.3185C15.8295 36.3185 16.4874 36.9055 16.4874 38.0923V40.3659H15.7585V38.0923C15.7585 37.3715 15.3796 37.028 14.7282 37.028C13.9639 37.028 13.5285 37.5569 13.5285 38.3712V40.3659L12.8029 40.3675Z" fill="#EB1E2C"/>
<path d="M17.4547 35.0221H18.3061V35.8444H17.4547V35.0221ZM17.5192 36.4088H18.248V40.3691H17.5192V36.4088Z" fill="#EB1E2C"/>
<path d="M19.3059 36.4089H19.9509L20.0089 37.1378C20.3008 36.5815 20.7797 36.317 21.4311 36.317C22.3809 36.317 22.9952 36.9104 22.9952 38.0907V40.3627H22.2664V38.0972C22.2664 37.3813 21.8875 37.0378 21.2376 37.0378C20.4588 37.0378 20.0364 37.5215 20.0364 38.3745V40.3692H19.3075L19.3059 36.4089Z" fill="#EB1E2C"/>
<path d="M27.5456 40.4175C26.8312 40.353 26.4523 40.0595 25.9089 39.2597L25.4365 38.5663L24.7512 39.2742V40.3675H24.0223V35.193L24.7512 34.9898V38.3841L26.5458 36.404H27.5133L25.9444 38.0729L26.4958 38.9017C26.8087 39.3742 27.0747 39.6451 27.5456 39.7176V40.4175Z" fill="#EB1E2C"/>
<path d="M28.1309 35.0221H28.9806V35.8444H28.1309V35.0221ZM28.1954 36.4088H28.9242V40.3691H28.2018L28.1954 36.4088Z" fill="#EB1E2C"/>
<path d="M29.9756 36.4089H30.6206L30.677 37.1378C30.9705 36.5815 31.4494 36.317 32.0992 36.317C33.0505 36.317 33.6649 36.9104 33.6649 38.0907V40.3627H32.9361V38.0972C32.9361 37.3813 32.5571 37.0378 31.9073 37.0378C31.1269 37.0378 30.706 37.5215 30.706 38.3745V40.3692H29.9756V36.4089Z" fill="#EB1E2C"/>
<path d="M36.7768 39.281C38.107 39.281 38.5505 39.8389 38.5505 40.5403C38.5505 41.3256 37.9361 41.8835 36.5204 41.8835C35.1047 41.8835 34.5193 41.3256 34.5193 40.5403C34.5136 40.3718 34.5454 40.2041 34.6123 40.0494C34.6792 39.8946 34.7797 39.7567 34.9063 39.6454C34.8115 39.5673 34.7358 39.4686 34.6849 39.3569C34.6341 39.2451 34.6094 39.1232 34.6129 39.0004C34.6172 38.8491 34.6628 38.7019 34.7446 38.5747C34.8265 38.4474 34.9415 38.3448 35.0772 38.278C34.9007 38.0724 34.8065 37.8088 34.8128 37.5379C34.8128 36.8235 35.3352 36.3221 36.5059 36.3221C36.7 36.3192 36.894 36.3359 37.0847 36.372C37.1492 35.8431 37.6572 35.5932 38.236 35.5787V36.2801C37.9716 36.2801 37.7716 36.3527 37.6636 36.5801C37.8335 36.6763 37.9735 36.8176 38.0682 36.9883C38.1629 37.159 38.2087 37.3525 38.2006 37.5475C38.2006 38.2828 37.6781 38.7763 36.5059 38.7763C36.1605 38.7882 35.8166 38.725 35.4981 38.5908C35.446 38.6272 35.4034 38.6754 35.3737 38.7314C35.344 38.7875 35.328 38.8499 35.3272 38.9133C35.3272 39.1278 35.4771 39.2923 36.077 39.2923L36.7768 39.281ZM37.849 40.5323C37.849 40.2098 37.6056 39.9469 36.8493 39.9469H36.056C35.8449 39.9499 35.6341 39.9304 35.4271 39.8889C35.2707 40.0661 35.1907 40.2979 35.2046 40.5339C35.2046 40.9547 35.569 41.2917 36.5123 41.2917C37.4556 41.2917 37.849 40.9547 37.849 40.5339M35.5336 37.5379C35.5336 37.9087 35.7915 38.1667 36.5123 38.1667C37.2331 38.1667 37.4927 37.9087 37.4927 37.5379C37.4927 37.167 37.2492 36.9235 36.5123 36.9235C35.7754 36.9235 35.5336 37.1734 35.5336 37.5379Z" fill="#EB1E2C"/>
<path d="M40.9501 35.0807H44.5813V35.8176H41.7079V37.3043H44.3314V38.0396H41.7079V40.3696H40.9501V35.0807Z" fill="#EB1E2C"/>
<path d="M45.4019 36.4074H46.0307L46.0871 37.1362C46.1875 36.8841 46.364 36.6695 46.592 36.5224C46.8201 36.3753 47.0883 36.303 47.3594 36.3155C47.4785 36.3185 47.5968 36.3375 47.7109 36.3719V37.1443C47.5532 37.1014 47.3906 37.0797 47.2272 37.0798C46.5338 37.0798 46.1339 37.6087 46.1339 38.3956V40.3677H45.4051L45.4019 36.4074Z" fill="#EB1E2C"/>
<path d="M48.2237 38.3885C48.2237 37.1888 48.938 36.3229 50.1828 36.3229C51.4276 36.3229 52.0694 37.1662 52.0694 38.3885C52.0709 38.4967 52.0611 38.6048 52.0404 38.711H49.0106C49.0751 39.3963 49.5894 39.7833 50.3263 39.7833C50.7809 39.7921 51.2285 39.6707 51.6163 39.4334L51.9017 40.0332C51.4132 40.3278 50.8496 40.4741 50.2796 40.4541C48.9348 40.4541 48.2205 39.6107 48.2205 38.3885M51.3083 38.1031C51.2664 37.4161 50.8939 36.9953 50.1796 36.9953C49.4653 36.9953 49.0283 37.4242 49.0283 38.1031H51.3083Z" fill="#EB1E2C"/>
<path d="M52.6258 40.0342L52.9757 39.4117C53.3288 39.6466 53.7468 39.7645 54.1705 39.7488C54.7204 39.7488 54.9993 39.5472 54.9993 39.265C54.9993 38.9151 54.5349 38.7926 54.1334 38.7006C53.3901 38.5281 52.7403 38.2637 52.7403 37.4639C52.7403 36.7705 53.2692 36.3351 54.1915 36.3351C54.6705 36.3256 55.1436 36.4418 55.5637 36.6721L55.2912 37.2607C54.9459 37.1124 54.5737 37.0366 54.1979 37.0382C53.7335 37.0382 53.4965 37.1994 53.4965 37.4461C53.4965 37.7686 53.869 37.8686 54.3027 37.975C55.109 38.175 55.7539 38.433 55.7539 39.2473C55.7539 39.9697 55.1751 40.455 54.1673 40.455C53.6449 40.455 53.0724 40.376 52.6226 40.0342" fill="#EB1E2C"/>
<path d="M56.5923 40.3701V35.1956L57.3211 34.9957V37.1113C57.571 36.5888 58.0645 36.3244 58.7143 36.3244C59.6221 36.3244 60.28 36.9113 60.28 38.0981V40.3717H59.5511V38.0981C59.5511 37.3773 59.1722 37.0339 58.5208 37.0339C57.7565 37.0339 57.3211 37.5628 57.3211 38.3771V40.3717L56.5923 40.3701Z" fill="#EB1E2C"/>
</svg>
