<svg width="178" height="60" viewBox="0 0 178 60" fill="none" xmlns="http://www.w3.org/2000/svg">
<path d="M80.6904 33.4564H87.7437C91.3927 33.4564 93.3864 34.2338 93.3864 37.7511C93.3864 40.0834 92.4961 41.0866 90.9225 41.4753C92.5714 41.77 93.8253 42.8922 93.8253 45.4879C93.8253 48.9174 92.0886 50.1713 88.1826 50.1713H80.6841L80.6904 33.4564ZM87.7437 40.3028C88.9977 40.3028 90.0196 40.1022 90.0196 38.2966C90.0196 36.4909 88.9914 36.2025 87.7437 36.2025H83.9819V40.3028H87.7437ZM88.1701 47.375C89.424 47.375 90.4522 47.0427 90.4522 45.2183C90.4522 43.3938 89.4554 42.9361 88.1701 42.9361H83.9945V47.3813L88.1701 47.375ZM110.979 50.1713H107.148L103.562 44.8484H100.39V50.1713H97.0542V33.4564H103.719C107.851 33.4564 109.882 34.4407 109.882 39.0991C109.882 42.3656 108.854 43.6195 106.916 44.1148L110.979 50.1713ZM103.719 42.0207C105.518 42.0207 106.528 41.701 106.528 39.1492C106.528 36.5975 105.412 36.2025 103.669 36.2025H100.39V42.0207H103.719ZM115.631 50.1713H112.277L118.728 33.3686H121.807L128.296 50.1964H124.754L123.638 47.1619H116.741L115.631 50.1713ZM120.221 37.7198C120.221 37.7198 117.782 44.3969 117.75 44.3969H122.603L120.221 37.7198ZM130.942 50.1713H134.158V38.8232L141.964 50.165H144.842V33.4501H141.619V44.1085L134.271 33.4501H130.942V50.1713ZM148.685 33.4627H154.954C159.907 33.4627 162.509 34.6225 162.509 41.8201C162.509 49.0177 159.907 50.1713 154.954 50.1713H148.685V33.4627ZM154.923 47.4001C157.838 47.4001 158.955 46.1963 158.955 42.3844V41.2684C158.955 37.4063 157.838 36.2025 154.923 36.2025H152.039V47.4001H154.923ZM171.162 50.3531C169.203 50.357 167.251 50.134 165.343 49.6885L165.864 46.8358C167.62 47.1762 169.399 47.3857 171.187 47.4628C173.563 47.4628 174.29 47.1368 174.29 45.4001C174.29 43.8515 173.807 43.7324 171.067 43.1932C166.509 42.2778 165.387 41.5693 165.387 37.9392C165.387 34.447 167.625 33.262 171.431 33.262C173.303 33.2677 175.17 33.4567 177.005 33.8263L176.478 36.6602C174.803 36.3782 173.11 36.2189 171.412 36.1837C169.469 36.1837 168.785 36.6163 168.785 37.9893C168.785 39.563 169.312 39.7449 171.92 40.2715C176.309 41.1367 177.72 41.6822 177.72 45.4753C177.72 49.2685 175.619 50.3594 171.143 50.3594M80.6904 29.6068H82.3581V13.1991H80.6904V29.6068ZM94.4836 24.798L99.8379 16.4531V29.6068H101.493V13.1991H100.045L93.8065 22.6036L87.5933 13.1991H86.145V29.6068H87.7061V16.4405L93.0604 24.7854L94.4836 24.798ZM105.073 13.1866H111.004C114.766 13.1866 116.547 14.6349 116.547 18.3214C116.547 22.008 114.71 23.5002 110.96 23.5002H106.722V29.6068H105.067L105.073 13.1866ZM111.004 21.9641C113.311 21.9641 114.891 21.5817 114.891 18.3465C114.891 15.1114 113.242 14.6788 110.954 14.6788H106.728V21.9955L111.004 21.9641ZM119.155 29.588H128.791V28.0896H120.854V21.707H126.992V20.2023H120.885V14.7415H128.873V13.2054H119.199L119.155 29.588ZM143.606 29.588H141.663L137.638 23.2557H133.312V29.6068H131.663V13.1991H137.362C141.124 13.1991 142.904 14.5346 142.904 18.2148C142.904 21.1929 141.65 22.6036 139.443 23.0738L143.606 29.588ZM137.337 21.7635C139.644 21.7635 141.224 21.4751 141.224 18.2337C141.224 14.9922 139.575 14.685 137.299 14.685H133.287V21.8011L137.337 21.7635ZM146.578 29.6068H148.252V13.1991H146.578V29.6068ZM152.259 29.6068H150.628L156.936 13.0737H158.403L164.716 29.6068H163.024L161.506 25.6256H153.77L152.259 29.6068ZM157.638 15.4938L154.359 24.1146H160.917L157.638 15.4938ZM166.842 13.1866H168.491V28.0896H177.149V29.6068H166.842V13.1866ZM46.0192 32.9297C45.7807 33.7097 45.3163 34.4015 44.6848 34.9176C44.0533 35.4338 43.283 35.7512 42.4712 35.8297C41.6594 35.9082 40.8425 35.7443 40.1238 35.3588C39.4051 34.9732 38.8168 34.3832 38.4332 33.6634C38.0497 32.9436 37.8881 32.1263 37.9689 31.3147C38.0497 30.5031 38.3693 29.7337 38.8872 29.1036C39.4052 28.4736 40.0982 28.0112 40.8789 27.7749C41.6595 27.5386 42.4927 27.539 43.2731 27.7761C43.7925 27.933 44.2758 28.191 44.6953 28.5353C45.1147 28.8795 45.462 29.3033 45.7172 29.7822C45.9723 30.2611 46.1304 30.7857 46.1822 31.3258C46.234 31.866 46.1786 32.4111 46.0192 32.9297Z" fill="white"/>
<path d="M37.9939 37.4326C37.096 36.7886 36.3625 35.9421 35.8527 34.9618C35.3429 33.9814 35.0713 32.8948 35.0597 31.7899C35.0434 31.6515 34.9899 31.5202 34.9049 31.4098C34.8199 31.2994 34.7065 31.2141 34.5769 31.1629L15.5109 25.351C15.2204 25.303 14.9273 25.2716 14.6332 25.2569C13.7671 25.2564 12.9286 25.5614 12.2652 26.1181C11.6018 26.6748 11.156 27.4477 11.0062 28.3007C10.8564 29.1537 11.0123 30.0322 11.4463 30.7817C11.8804 31.5311 12.5648 32.1035 13.3792 32.3981L25.4859 36.116L1.94966 48.6553C1.06705 49.179 0.420779 50.0233 0.145692 51.012C-0.129395 52.0007 -0.0120421 53.0575 0.473263 53.9618C0.958568 54.8661 1.77433 55.548 2.75033 55.8653C3.72633 56.1826 4.78715 56.1108 5.71145 55.6648L28.9844 43.2822L25.3794 55.0503C25.1464 55.9716 25.277 56.9471 25.7439 57.7747C26.2108 58.6023 26.9783 59.2185 27.8872 59.4955H27.9248C28.8288 59.76 29.7997 59.6691 30.6388 59.2413C31.4779 58.8136 32.1219 58.0814 32.439 57.1946L38.2572 38.185C38.2883 38.0446 38.2801 37.8985 38.2337 37.7625C38.1872 37.6264 38.1043 37.5058 37.9939 37.4138M64.8782 43.5769C65.1014 42.835 65.0306 42.0357 64.6804 41.3447C64.3302 40.6536 63.7275 40.1239 62.9973 39.8652L48.621 35.4765C48.4775 35.4397 48.3266 35.4443 48.1857 35.4898C48.0448 35.5353 47.9196 35.6198 47.8247 35.7335C47.1819 36.6559 46.3271 37.4106 45.3321 37.9343C44.3372 38.4579 43.2311 38.7353 42.1068 38.743C41.9499 38.7549 41.8 38.8131 41.6762 38.9102C41.5523 39.0073 41.46 39.1389 41.4109 39.2884L37.0221 53.7086C36.8303 54.4572 36.9343 55.2508 37.3127 55.9246C37.691 56.5984 38.3145 57.1004 39.0535 57.3262H39.0911C39.8279 57.5385 40.6178 57.4622 41.3003 57.1128C41.9828 56.7634 42.5066 56.1671 42.7651 55.4453L45.7808 45.5581L52.5771 58.2917C52.9837 59.0491 53.6745 59.614 54.4976 59.8621C55.3206 60.1102 56.2085 60.0212 56.9659 59.6146C57.7208 59.2056 58.2835 58.5148 58.5313 57.6927C58.7791 56.8707 58.6919 55.984 58.2888 55.2259L51.6179 42.6866L61.2167 45.6208C61.967 45.8142 62.7629 45.7101 63.4382 45.3304C64.1136 44.9507 64.616 44.3246 64.8406 43.5831M18.2947 22.7114L35.5174 27.9842C35.6591 28.0163 35.8068 28.0093 35.9448 27.9641C36.0828 27.9188 36.206 27.8369 36.3011 27.7272C36.9239 26.8218 37.7503 26.0752 38.7139 25.5471C39.6775 25.019 40.7516 24.7242 41.8497 24.6864C42.003 24.6768 42.1501 24.6223 42.2728 24.5298C42.3954 24.4373 42.4881 24.3108 42.5394 24.166L47.7746 7.0373C47.9914 6.18742 47.8719 5.28665 47.4408 4.52275C47.0098 3.75885 46.3006 3.19078 45.4611 2.93694H45.3858C44.5561 2.70624 43.6698 2.79855 42.9055 3.19527C42.1412 3.59198 41.5556 4.26363 41.2667 5.07489L37.8121 16.2537L30.0879 1.83348C29.607 1.00643 28.8234 0.398714 27.9027 0.138735C26.982 -0.121244 25.9963 -0.0131225 25.1539 0.440254C24.3114 0.893631 23.6782 1.65675 23.388 2.56838C23.0978 3.48001 23.1734 4.46875 23.5988 5.32568L31.1725 19.5202L20.2821 16.1973C20.0002 16.1465 19.7155 16.113 19.4295 16.097C18.6348 16.1114 17.87 16.4025 17.2667 16.92C16.6635 17.4376 16.2595 18.1492 16.1244 18.9325C15.9893 19.7157 16.1315 20.5216 16.5264 21.2113C16.9214 21.9011 17.5445 22.4315 18.2884 22.7114M46.0253 25.9027C46.9522 26.536 47.7138 27.3823 48.2461 28.3707C48.7785 29.359 49.0661 30.4606 49.0849 31.583C49.0973 31.7391 49.1557 31.8879 49.2528 32.0107C49.35 32.1335 49.4814 32.2247 49.6304 32.2727L58.7966 35.0752C58.9855 35.107 59.1759 35.1279 59.3672 35.1379C59.8408 35.1337 60.3007 34.9789 60.6806 34.696C61.0604 34.4131 61.3404 34.0168 61.48 33.5642C61.6397 33.0212 61.5858 32.4376 61.3294 31.933C61.073 31.4283 60.6335 31.0407 60.1007 30.8495L52.7903 28.5924L62.1948 23.5767C62.4719 23.4314 62.7176 23.2329 62.9177 22.9924C63.1179 22.752 63.2686 22.4744 63.3613 22.1755C63.4539 21.8767 63.4866 21.5625 63.4575 21.251C63.4284 20.9395 63.338 20.6368 63.1917 20.3603V20.3227C63.0435 20.0395 62.8403 19.7888 62.594 19.5852C62.3477 19.3815 62.0632 19.2291 61.7572 19.1369C61.4512 19.0446 61.1299 19.0143 60.8121 19.0479C60.4943 19.0814 60.1864 19.178 59.9064 19.3321L50.6649 24.2726L52.8279 17.2004V17.1691C52.9496 16.6204 52.8598 16.0461 52.5765 15.5607C52.2932 15.0754 51.8373 14.7148 51.2997 14.5509C50.7622 14.387 50.1826 14.4319 49.6767 14.6767C49.1708 14.9215 48.7759 15.348 48.5708 15.8712L45.7495 25.0876C45.7069 25.2396 45.7098 25.4008 45.7577 25.5512C45.8056 25.7016 45.8964 25.8347 46.0191 25.934" fill="white"/>
</svg>
