<svg width="180" height="63" viewBox="0 0 180 63" fill="none" xmlns="http://www.w3.org/2000/svg">
<path d="M66.8027 26.9762H72.7475C73.0679 26.9794 73.3851 26.9123 73.6768 26.7796C73.9685 26.6469 74.2275 26.4518 74.4355 26.208C74.8975 25.6699 75.128 24.9654 75.127 24.0945C75.1356 23.6025 75.0284 23.1154 74.8141 22.6724C74.6257 22.2806 74.3335 21.9478 73.9693 21.7103C73.6112 21.4551 73.1809 21.3209 72.7412 21.327H66.7964L66.8027 26.9762ZM58.3188 41.735V15.2961H74.8704C76.8416 15.2961 78.4795 15.6935 79.7843 16.4882C81.057 17.2216 82.0953 18.3012 82.7786 19.6015C83.4452 20.8828 83.7884 22.3076 83.7783 23.7519C83.8041 25.3446 83.3923 26.9139 82.5877 28.2887C81.7947 29.5937 80.6852 30.6774 79.3619 31.4395L84.5449 41.7397H75.0175L70.9875 32.8616H66.8027V41.7397L58.3188 41.735Z" fill="white"/>
<path d="M91.9494 29.2837H99.3977C99.4062 28.7996 99.3278 28.318 99.1661 27.8616C99.016 27.4571 98.7803 27.0898 98.4752 26.7847C98.1701 26.4796 97.8028 26.244 97.3983 26.0938C96.9424 25.9326 96.4613 25.8547 95.9778 25.8638C95.2511 25.8393 94.5286 25.9839 93.8674 26.2862C93.3256 26.5485 92.8717 26.9627 92.5611 27.4783C92.2316 28.0301 92.0226 28.6454 91.9478 29.2837M96.1327 42.1981C93.6995 42.1981 91.588 41.8268 89.7983 41.0842C88.0995 40.3721 86.6639 39.1497 85.6901 37.5861C84.7442 36.0217 84.2707 34.0229 84.2696 31.5897C84.2696 29.2065 84.7431 27.2338 85.6901 25.6714C86.6169 24.1267 87.9974 22.9052 89.6434 22.1733C91.3612 21.3765 93.3725 20.9781 95.6774 20.9781C98.1086 20.9781 100.169 21.3624 101.859 22.1311C103.509 22.8195 104.885 24.036 105.77 25.5901C106.667 27.1545 107.114 29.1528 107.113 31.585V32.8928H91.9103C91.8918 33.7039 92.0222 34.5115 92.2951 35.2754C92.554 35.9146 93.0114 36.4537 93.5999 36.8133C94.2142 37.146 95.0074 37.3123 95.9794 37.3123C96.5615 37.3264 97.1422 37.2488 97.7003 37.0824C98.1235 36.9618 98.516 36.7521 98.8517 36.4675C99.1448 36.2052 99.3688 35.8748 99.504 35.5054C99.6343 35.1351 99.6994 34.745 99.6964 34.3524H107.106C107.122 35.4798 106.886 36.5966 106.414 37.6205C105.94 38.6129 105.228 39.4727 104.341 40.1236C103.419 40.789 102.268 41.3011 100.887 41.6599C99.5312 42.0197 97.9443 42.1991 96.1264 42.1981" fill="white"/>
<path d="M109.08 41.7365V21.4474H115.338L115.837 24.5231H116.106C116.609 23.7624 117.245 23.0984 117.983 22.5629C118.698 22.0252 119.505 21.6213 120.364 21.3708C121.237 21.1107 122.144 20.9785 123.055 20.9781C124.667 20.9781 125.986 21.2853 127.01 21.8996C128.052 22.4787 128.876 23.3831 129.356 24.4746C129.868 25.6031 130.124 26.9741 130.125 28.5875V41.7287H122.484V29.5152C122.491 29.1225 122.426 28.7317 122.293 28.3622C122.202 28.0269 122.045 27.7131 121.832 27.4392C121.62 27.1779 121.342 26.9789 121.026 26.8635C120.678 26.7002 120.296 26.6209 119.912 26.632C119.315 26.622 118.728 26.785 118.222 27.1013C117.754 27.3829 117.368 27.7839 117.105 28.2632C116.842 28.7426 116.711 29.2831 116.725 29.8297V41.7444L109.08 41.7365Z" fill="white"/>
<path d="M141.567 42.1965C140.323 42.2146 139.082 42.0593 137.881 41.735C136.901 41.4507 136.039 40.8576 135.423 40.0439C134.835 39.2502 134.541 38.1613 134.541 36.7773V26.6304H131.7V21.4459H134.848L136.498 15.2961H142.18V21.4459H146.481V26.6351H142.18V34.3603C142.18 35.2322 142.321 35.8987 142.602 36.3596C142.884 36.7945 143.458 37.0125 144.323 37.0136H146.473V41.5097C145.969 41.6598 145.456 41.7753 144.937 41.8555C144.342 41.9845 143.739 42.0744 143.133 42.1246C142.545 42.1762 142.019 42.2012 141.559 42.2012" fill="white"/>
<path d="M155.945 13.8702H148.306V41.7358H155.945V13.8702Z" fill="white"/>
<path d="M162.532 49.8077C161.682 49.8146 160.833 49.7371 159.999 49.5762C159.36 49.4796 158.732 49.3256 158.121 49.1162V44.5419H161.192C162.089 44.5419 162.767 44.3755 163.226 44.0428C163.666 43.7651 164.013 43.3633 164.224 42.8882C164.406 42.5242 164.535 42.1359 164.608 41.7353L156.543 21.4462H164.759L167.139 29.6719C167.267 30.0568 167.424 30.5694 167.608 31.2098C167.793 31.8501 167.972 32.5036 168.145 33.17C168.353 33.8365 168.52 34.4257 168.644 34.9378H168.913C169.015 34.5796 169.118 34.1681 169.226 33.7082C169.354 33.2461 169.482 32.7721 169.611 32.2861C169.737 31.773 169.865 31.299 169.994 30.864C170.123 30.4291 170.228 30.0448 170.307 29.7111L172.497 21.4462H180L172.782 41.1251C172.351 42.3185 171.824 43.4752 171.208 44.5841C170.683 45.6096 169.996 46.544 169.174 47.3516C168.388 48.158 167.43 48.7758 166.371 49.1585C165.295 49.5944 164.016 49.8124 162.532 49.8124" fill="white"/>
<path d="M11.0589 6.69576C11.7676 6.32343 12.6484 6.13726 13.695 6.13726H14.5069V0H12.6828C10.1099 0 7.97859 0.456292 6.289 1.36888C4.63127 2.21619 3.28334 3.56521 2.43738 5.22363C1.59259 6.84751 1.17019 8.72483 1.17019 10.8556C1.17019 13.1219 1.67759 15.1343 2.69238 16.8927C3.70405 18.6167 5.17409 19.9355 7.10251 20.8492L0 34.7976H8.3697L14.5069 22.1257V16.1277H13.7013C12.1806 16.1277 10.9974 15.6709 10.1516 14.7573C9.30679 13.8113 8.88439 12.5426 8.88439 10.951C8.88439 9.94039 9.06899 9.0737 9.44133 8.36657C9.78838 7.64838 10.3579 7.06133 11.0652 6.69263" fill="white"/>
<path d="M11.0589 6.69576C11.7676 6.32343 12.6483 6.13726 13.6949 6.13726H14.5069V0H12.6827C10.1098 0 7.97851 0.456292 6.28893 1.36888C4.6312 2.21619 3.28327 3.56521 2.4373 5.22363C1.59251 6.84751 1.17011 8.72483 1.17011 10.8556C1.17011 13.1219 1.67751 15.1343 2.69231 16.8927C3.70397 18.6167 5.17401 19.9355 7.10243 20.8492L0.00305176 34.7976H8.37275L14.51 22.1257V16.1277H13.7012C12.1806 16.1277 10.9973 15.6709 10.1515 14.7573C9.30671 13.8113 8.88431 12.5426 8.88431 10.951C8.88431 9.94039 9.06892 9.0737 9.44125 8.36657C9.7883 7.64838 10.3578 7.06133 11.0651 6.69263" fill="#4CBD97"/>
<path d="M31.7548 0V34.7961H24.1955V22.1179H14.507V16.1308H24.1955V6.13726H14.507V0H31.7548Z" fill="white"/>
<path fill-rule="evenodd" clip-rule="evenodd" d="M28.407 62.6967C31.5172 62.6967 34.5576 61.7744 37.1437 60.0465C39.7298 58.3185 41.7454 55.8625 42.9356 52.989C44.1258 50.1155 44.4373 46.9536 43.8305 43.9031C43.2237 40.8526 41.726 38.0506 39.5267 35.8513C37.3274 33.6521 34.5254 32.1543 31.4749 31.5476C28.4245 30.9408 25.2625 31.2522 22.3891 32.4424C19.5156 33.6327 17.0596 35.6483 15.3316 38.2343C13.6037 40.8204 12.6814 43.8608 12.6814 46.971C12.6812 49.0362 13.0878 51.0812 13.878 52.9892C14.6682 54.8973 15.8265 56.6309 17.2868 58.0912C18.7471 59.5515 20.4808 60.7099 22.3888 61.5001C24.2968 62.2903 26.3418 62.6969 28.407 62.6967ZM28.407 55.0811C30.0123 55.0811 31.5815 54.6051 32.9162 53.7132C34.2509 52.8214 35.2912 51.5538 35.9055 50.0708C36.5198 48.5877 36.6805 46.9558 36.3673 45.3814C36.0541 43.807 35.2811 42.3608 34.1461 41.2257C33.011 40.0906 31.5648 39.3177 29.9904 39.0045C28.416 38.6913 26.7841 38.852 25.301 39.4663C23.818 40.0806 22.5504 41.1209 21.6586 42.4556C20.7668 43.7903 20.2907 45.3595 20.2907 46.9648C20.2907 49.1174 21.1459 51.1818 22.6679 52.7039C24.19 54.226 26.2544 55.0811 28.407 55.0811Z" fill="white"/>
</svg>
