<svg width="180" height="82" viewBox="0 0 180 82" fill="none" xmlns="http://www.w3.org/2000/svg">
<path fill-rule="evenodd" clip-rule="evenodd" d="M178.449 0.000281138C178.183 0.00839309 177.902 0.0843127 177.546 0.230952C177.025 0.447895 173.597 3.75643 169.884 7.62552C166.186 11.4769 160.014 17.9012 156.171 21.9011C152.327 25.9032 147.1 31.3623 144.554 34.0358L139.93 38.8954L136.708 38.9109L133.487 38.925L134.076 38.2508C134.403 37.8798 136.299 35.7723 138.297 33.5672C141.785 29.7158 142.075 29.4792 145.573 27.5593C150.651 24.7742 153.171 22.8112 158.36 17.6021C163.231 12.7135 167.198 7.7134 168.628 4.66434C170.026 1.67977 169.524 -0.142094 167.442 0.365319C166.46 0.60379 165.095 1.96337 149.44 18.2506C139.828 28.2489 139.69 28.378 137.811 28.9794C136.761 29.3133 135.512 29.6514 135.028 29.7293C134.252 29.8563 134.174 29.798 134.35 29.2139C134.95 27.2079 134.901 26.3248 134.171 25.8133C132.561 24.6842 129.321 25.5338 125.537 28.0749C124.432 28.8175 121.09 31.8798 118.108 34.8798C114.321 38.6964 112.244 40.5536 111.197 41.0594C109.656 41.8019 108.787 41.632 109.334 40.6985C109.539 40.3505 134.196 13.6862 142.674 4.64697L144.198 3.02396L138.998 3.05152L128.787 14.5105C123.17 20.8151 118.408 26.1102 118.205 26.2803C117.948 26.4947 117.553 26.3797 116.912 25.9052C115.795 25.0786 114.453 25.2078 111.32 26.4442C106.986 28.1553 102.797 31.7429 99.6207 36.4734C98.0133 38.8679 95.7598 40.6884 92.9567 41.8582C91.0642 42.6454 91.1012 41.7608 93.0542 39.622C93.9506 38.6434 96.7751 35.542 99.3318 32.7332C101.89 29.9248 104.402 27.1748 104.916 26.6217L105.849 25.6156H100.855L95.6308 31.6821C89.3042 39.034 88.0897 40.7548 88.0897 42.3604C88.0897 43.2198 88.2712 43.6569 88.7772 44.0145C90.1186 44.956 91.5036 44.5286 95.2066 42.0338L97.5293 40.4699L97.6187 41.3213C97.7694 42.7608 98.3084 43.7784 99.1115 44.1455C100.262 44.6708 100.828 44.5829 102.824 43.5713C104.851 42.54 105.112 42.4753 105.112 43.0009C105.112 43.6689 106.127 44.493 106.937 44.4874C108.047 44.4795 110.076 43.5108 112.42 41.872L114.397 40.493V41.6769C114.397 43.4127 115.348 44.493 116.887 44.493C120.133 44.493 126.692 39.7119 130.518 34.5553C131.957 32.6082 132.149 32.4658 133.67 32.1863C134.559 32.0223 135.565 31.7723 135.907 31.6297C136.483 31.3894 136.495 31.4146 136.059 32.0203C135.805 32.3758 132.198 36.2139 128.037 40.5458L120.483 48.423L61.9156 48.5964L3.34998 48.7686L2.69791 49.417L2.04947 50.0655H118.785L117.444 51.5892C116.703 52.4251 110.809 58.6342 104.34 65.3917C97.8728 72.1459 91.9138 78.4155 91.0959 79.3275L89.6188 80.9801L91.8728 80.8122C93.1093 80.7185 94.494 80.5541 94.9434 80.4409C95.7911 80.2339 96.5294 79.4505 113.877 60.3662L123.217 50.0892L126.078 50.077C127.655 50.0696 128.944 50.1555 128.944 50.2686C128.944 50.378 127.725 51.7356 126.237 53.2841C124.748 54.8332 119.701 60.1377 115.028 65.0773C110.352 70.0128 104.996 75.6184 103.129 77.5344L99.7326 81.015H100.797C101.383 81.0115 102.799 80.9214 103.944 80.8159L106.022 80.6166L115.858 69.7689C121.268 63.8023 127.489 56.9288 129.679 54.495L133.665 50.0656H144.511C154.171 50.0656 155.419 50.011 155.921 49.5521C156.237 49.2706 156.488 48.923 156.488 48.7806C156.488 48.634 151.677 48.5165 145.792 48.5165H135.098L138.575 44.6475L142.054 40.7821H163.784L165.304 39.2412C166.136 38.3936 166.755 37.636 166.677 37.5555C166.601 37.4816 165.562 37.5379 164.374 37.6847C160.173 38.2061 148.563 38.9661 146.296 38.868L143.989 38.7687L146.362 36.1394C147.739 34.6125 149.774 32.7939 151.223 31.8056C157.503 27.5145 158.932 26.4055 163.943 21.9012C171.552 15.0632 176.62 9.17823 179.05 4.37741C180.247 2.01392 180.312 0.670453 179.249 0.187896C178.964 0.0569608 178.718 -0.00554283 178.451 0.000385138L178.449 0.000281138ZM178.089 1.62943C179.492 1.62943 177.726 5.09053 173.904 9.83051C170.988 13.4515 161.36 22.6822 157.198 25.8484C155.128 27.4229 153.339 28.7098 153.227 28.7098C153.11 28.7098 154.179 27.4364 155.6 25.8798C157.026 24.3232 162.55 18.2291 167.878 12.3387C173.365 6.27404 177.792 1.62943 178.089 1.62943ZM167.348 2.09452C168.864 2.09452 168.065 4.04939 164.694 8.59458C160.757 13.905 150.888 23.2723 147.293 25.1103C145.903 25.8193 145.51 25.7408 146.184 24.8858C146.498 24.4833 151.27 19.1922 156.778 13.1255C162.796 6.50045 167.018 2.09452 167.348 2.09452ZM132.549 26.8544C133.926 26.8544 133.862 27.3349 132.422 27.7958C130.104 28.5399 129.125 30.4699 130.371 31.8448C130.836 32.3604 130.805 32.4833 129.91 33.6144C128.362 35.5715 123.678 39.8661 121.698 41.1456C119.354 42.6629 118.107 42.7276 118.107 41.3331C118.107 39.8661 120.809 36.251 125.143 31.9169C128.334 28.7253 131.073 26.8544 132.549 26.8544ZM115.93 26.8872C116.215 26.9052 116.252 27.0868 116.252 27.5554C116.252 27.9948 115.623 29.1883 114.804 30.302C112.99 32.7626 107.736 38.1946 105.234 40.1847C102.453 42.4017 101.088 42.7511 101.088 41.2471C101.088 39.9931 104.174 35.7981 107.578 32.4251C110.896 29.1359 113.424 27.343 115.25 26.9774C115.48 26.9305 115.657 26.8994 115.795 26.8895C115.844 26.886 115.893 26.8859 115.93 26.8872ZM131.563 40.782H138.317L135.354 43.796C133.723 45.4581 132.092 47.1985 131.729 47.6669C131.08 48.4991 130.989 48.5165 127.825 48.5165H124.584L128.076 44.6475L131.563 40.782Z" fill="white"/>
<path fill-rule="evenodd" clip-rule="evenodd" d="M75.5876 4.32291C74.2222 4.34984 72.8724 4.47485 71.8007 4.70739C68.4705 5.42644 63.685 7.80148 61.0539 10.0394C59.8863 11.0315 58.5442 12.1645 58.0678 12.555L57.2024 13.266L54.9251 11.7331C52.0752 9.80898 49.6652 8.79935 45.4464 7.75842C42.6105 7.05892 41.4562 6.93995 37.4855 6.93589C30.5007 6.93194 23.4616 8.44596 16.8387 11.3774C8.44946 15.0926 1.88138 21.9381 0.322844 28.5909C-0.788701 33.3389 1.00841 37.4324 5.12148 39.532C11.5433 42.8054 23.2352 40.6924 31.6357 34.7293C39.4088 29.2138 40.5673 21.3326 33.9832 18.768C31.3152 17.7311 27.1607 17.7976 23.8677 18.93C20.5709 20.0631 18.4791 21.2996 16.1173 23.5086C12.9144 26.5047 11.8363 29.5122 13.1779 31.7118C14.4104 33.7332 18.143 33.7274 20.4557 31.7017C22.729 29.7118 22.0455 26.8543 19.2974 26.8543C16.9675 26.8543 15.1274 28.7213 15.4576 30.7528C15.7425 32.5087 14.4185 32.0242 13.9634 30.2057C13.4224 28.0495 16.8306 23.9066 20.8716 21.8131C24.2175 20.0766 25.9967 19.61 29.2856 19.6021C31.7508 19.5959 32.4658 19.7115 33.7195 20.3231C36.5692 21.7115 36.7608 24.1605 34.3018 27.7622C31.9636 31.1902 25.6801 35.1434 20.0005 36.7643C17.114 37.5909 11.3089 37.9207 8.81897 37.4033C6.58839 36.9384 4.47887 35.5928 3.38323 33.9382C1.63136 31.2917 2.15479 26.8111 4.65483 23.0435C10.2719 14.5824 22.5747 9.46734 36.2468 9.91048C40.1025 10.0355 41.3625 10.2015 43.6609 10.891C47.0287 11.901 50.7511 13.7935 52.6417 15.4575L54.044 16.694L53.4702 17.4265C52.3762 18.8191 36.8095 35.6803 35.1413 37.2819C31.0438 41.2158 26.4638 43.7742 22.7468 44.2059C21.4907 44.3462 19.6627 44.4753 18.6844 44.4832C16.973 44.4929 16.473 44.7978 17.2918 45.3268C17.5046 45.4659 19.3503 45.6569 21.3933 45.7509C27.8095 46.0499 30.2624 46.0458 33.8857 45.7274C44.4522 44.7899 51.9777 41.5694 57.3938 35.6627C62.2005 30.4127 63.3374 24.2937 60.6398 18.1879L59.8863 16.485L62.6129 13.8458C65.7026 10.8557 68.9095 8.61371 71.7436 7.46129C74.6952 6.26374 78.0487 5.50018 80.4783 5.47667L82.672 5.45515L81.4332 4.9806C80.2048 4.50823 77.8686 4.27777 75.5876 4.32291ZM56.4408 20.2331L56.906 21.1451C58.0955 23.4893 57.7944 27.4303 56.1715 30.7468C52.9112 37.3994 45.2728 42.3679 35.7982 43.9949C34.2 44.2685 31.6966 44.493 30.2374 44.4894L27.5831 44.4854L31.095 43.0733C37.8821 40.339 39.7041 38.8875 48.0853 29.5459C51.6185 25.6083 54.9449 21.9033 55.478 21.3092L56.4408 20.2331Z" fill="white"/>
<path fill-rule="evenodd" clip-rule="evenodd" d="M110.353 16.053C109.762 16.055 109.045 16.1898 108.213 16.4828C105.226 17.5354 102.51 19.8265 92.4216 29.7996C82.855 39.2546 80.8493 41.0888 80.0743 41.0888C79.1165 41.0888 80.1775 39.3366 84.7751 33.3092C87.5508 29.6746 89.9236 26.5239 90.0542 26.311C90.2362 26.016 89.7598 25.9244 88.0234 25.9244H85.7497L82.199 29.9924C78.4524 34.2855 75.3434 37.2116 71.9542 39.6257C70.1438 40.9205 67.972 41.8231 67.972 41.2836C67.972 41.1782 71.0913 37.7137 74.906 33.5865L81.8397 26.0785L79.656 25.9891C78.4523 25.938 77.3395 26.03 77.1734 26.194C76.9817 26.3855 76.525 26.2801 75.9058 25.899C73.7689 24.5979 70.5853 25.3715 66.2687 28.2406C59.2079 32.9381 54.134 41.8051 57.2275 44.0437C58.255 44.7857 60.5361 44.4752 62.3506 43.3462L63.8464 42.4167L64.128 43.3795C64.7612 45.5283 67.4736 44.5572 73.3722 40.0692C78.3664 36.2661 78.1592 36.3891 77.3098 37.6881C75.5738 40.3268 75.0112 42.6217 75.8683 43.5745C77.6363 45.524 80.6129 43.3499 92.4213 31.4925C101.304 22.5744 105.303 19.6193 105.82 21.5904C106.191 23.0178 108.535 22.8969 110.144 21.3653C113.133 18.5297 112.918 16.0454 110.353 16.053ZM74.3806 26.985C74.6578 26.985 74.8981 27.0435 75.0937 27.1645C75.4902 27.4125 75.4721 27.5961 74.9472 28.573C74.1442 30.0632 65.3434 39.1393 62.9705 40.9246C60.6264 42.6862 59.6163 42.7876 59.6163 41.2544C59.6163 40.233 61.1809 37.9906 64.2824 34.5807C68.564 29.8656 72.4392 26.987 74.3806 26.985Z" fill="white"/>
</svg>
