<svg width="180" height="36" viewBox="0 0 180 36" fill="none" xmlns="http://www.w3.org/2000/svg">
<path d="M20.8493 27.9251C19.4434 27.9251 18.0691 27.5082 16.9001 26.7271C15.7312 25.946 14.8201 24.8359 14.2821 23.537C13.7441 22.2381 13.6033 20.8089 13.8776 19.43C14.1519 18.0511 14.8289 16.7846 15.823 15.7904C16.8171 14.7963 18.0837 14.1193 19.4625 13.8451C20.8414 13.5708 22.2706 13.7115 23.5695 14.2496C24.8684 14.7876 25.9785 15.6987 26.7596 16.8676C27.5406 18.0366 27.9575 19.4109 27.9575 20.8168C27.9575 22.702 27.2086 24.51 25.8756 25.8431C24.5425 27.1762 22.7345 27.9251 20.8493 27.9251Z" fill="#F05323"/>
<path d="M9.31119 -1.05521e-05L0 9.31125L9.31119 18.6225L18.6224 9.31125L9.31119 -1.05521e-05Z" fill="white"/>
<path d="M43.1561 1.85272H38.3223V6.68653H43.1561V1.85272Z" fill="white"/>
<path d="M43.1236 13.9345V21.6951C43.1236 23.7054 44.5767 23.759 47.3382 23.5939V27.9571C40.585 28.7043 38.3105 26.7188 38.3105 21.6951V13.9345H35.066V9.31125H47.3382V13.9345H43.1236Z" fill="white"/>
<path d="M60.6129 8.94073V14.3071C58.1361 14.0057 54.9411 15.1326 54.9411 19.0418V27.954H50.1321V9.31225H54.9246V12.5197C55.8947 9.9851 58.2269 8.94073 60.5964 8.94073" fill="white"/>
<path d="M76.7446 18.6368C76.7446 15.5037 74.5486 13.3779 71.5641 13.3779C68.5796 13.3779 66.4166 15.5037 66.4166 18.6368C66.4166 21.7699 68.6168 23.9165 71.5641 23.9165C74.5114 23.9165 76.7446 21.7906 76.7446 18.6575M81.5578 9.33248V27.9784H76.7446V25.7782C75.4031 27.4582 73.3887 28.5026 70.6684 28.5026C65.7149 28.5026 61.587 24.2137 61.587 18.6575C61.587 13.1013 65.6901 8.80823 70.6684 8.80823C73.3887 8.80823 75.4031 9.8526 76.7446 11.5327V9.33248H81.5578Z" fill="white"/>
<path d="M98.5111 18.6379C98.5111 15.5048 96.3109 13.3789 93.3636 13.3789C90.4163 13.3789 88.1831 15.5048 88.1831 18.6379C88.1831 21.771 90.3832 23.9175 93.3636 23.9175C96.3439 23.9175 98.5111 21.7916 98.5111 18.6585M103.324 1.87433V27.9794H98.5111V25.7792C97.1695 27.4964 95.2088 28.5036 92.472 28.5036C87.4731 28.5036 83.3906 24.2147 83.3906 18.6585C83.3906 13.1023 87.4937 8.80925 92.472 8.80925C95.1922 8.80925 97.1695 9.81647 98.5111 11.5337V1.87433H103.324Z" fill="white"/>
<path d="M119.469 16.8991C118.874 14.216 116.86 13.1344 114.846 13.1344C112.27 13.1344 110.519 14.5132 109.958 16.8991H119.469ZM115.291 24.1354C116.084 24.1651 116.874 24.0119 117.598 23.6876C118.323 23.3634 118.963 22.8767 119.469 22.2654L123.349 24.5028C121.595 27.0415 118.808 28.4945 115.217 28.4945C108.951 28.4945 105 24.2056 105 18.6494C105 13.0932 108.988 8.80011 114.846 8.80011C120.365 8.80011 124.282 13.1675 124.282 18.6494C124.279 19.3127 124.217 19.9743 124.096 20.6266H110.032C110.705 23.1034 112.757 24.1313 115.291 24.1313" fill="white"/>
<path d="M130.787 0.0326843H125.978V27.9623H130.787V0.0326843Z" fill="#F05323"/>
<path d="M158.234 16.5112V27.958H153.425V17.1057C153.425 14.5711 151.893 13.2667 149.709 13.2667C147.361 13.2667 145.606 14.6454 145.606 17.89V27.958H140.818V9.31211H145.627V11.4008C146.75 9.72077 148.686 8.79199 151.187 8.79199C155.142 8.79199 158.234 11.5495 158.234 16.5112Z" fill="#F05323"/>
<path d="M175.302 18.3344C175.302 15.3911 173.098 13.2653 170.081 13.2653C167.063 13.2653 164.859 15.3911 164.859 18.3344C164.859 21.2776 167.059 23.4448 170.081 23.4448C173.102 23.4448 175.302 21.3189 175.302 18.3344ZM180 9.3107V27.0608C180 33.1743 175.187 35.9359 170.266 35.9359C166.275 35.9359 163.067 34.4044 161.424 31.3952L165.528 29.0464C166.312 30.4994 167.542 31.6552 170.415 31.6552C173.437 31.6552 175.302 30.004 175.302 27.0691V25.0546C173.994 26.8049 172 27.8864 169.333 27.8864C164.037 27.8864 160.046 23.5975 160.046 18.3385C160.046 13.0795 164.037 8.79471 169.333 8.79471C171.979 8.79471 173.994 9.8721 175.302 11.6265V9.31483L180 9.3107Z" fill="#F05323"/>
<path d="M133.376 4.4821C133.374 3.96227 133.527 3.4537 133.815 3.02103C134.104 2.58836 134.514 2.25114 134.994 2.05222C135.474 1.85331 136.003 1.80168 136.513 1.90391C137.022 2.00614 137.49 2.25761 137.857 2.62635C138.223 2.99509 138.471 3.46445 138.57 3.97477C138.669 4.48509 138.614 5.01332 138.413 5.49232C138.211 5.97132 137.871 6.37945 137.436 6.66484C137.002 6.95023 136.492 7.09999 135.972 7.09508C135.286 7.07919 134.632 6.79829 134.148 6.31121C133.664 5.82413 133.388 5.16866 133.376 4.4821Z" fill="#F05323"/>
<path d="M133.568 9.29955L133.51 27.9495L138.323 27.9646L138.382 9.31467L133.568 9.29955Z" fill="#F05323"/>
</svg>
