<svg width="200" height="67" viewBox="0 0 200 67" fill="none" xmlns="http://www.w3.org/2000/svg">
<path d="M167.841 42.4323L168.393 41.0025C169.947 36.9421 174.389 33.6107 178.511 33.4249L186.103 32.9864C186.28 32.9726 186.45 32.9077 186.591 32.7994C186.733 32.6911 186.839 32.5442 186.899 32.3764C186.935 32.2734 186.946 32.1636 186.933 32.0554C186.92 31.9472 186.882 31.8434 186.823 31.7521C186.763 31.6678 186.685 31.5986 186.594 31.5498C186.503 31.501 186.402 31.474 186.298 31.4709L178.992 31.0324C178.181 31.0312 177.381 30.8436 176.654 30.4842C175.927 30.1247 175.292 29.603 174.799 28.9593C173.845 27.601 173.612 25.7519 174.193 23.755L175.542 19.0988C175.565 19.0143 175.608 18.9368 175.668 18.8728C175.728 18.8089 175.802 18.7605 175.885 18.7318L173.922 17.8692C173.923 18.0188 173.897 18.1674 173.845 18.3077L171.872 23.4643C170.314 27.5248 165.872 30.8561 161.769 31.042L127.179 31.4804C127.001 31.493 126.831 31.5575 126.69 31.666C126.548 31.7744 126.442 31.922 126.383 32.0904C126.344 32.1904 126.329 32.2985 126.341 32.4053C126.353 32.5121 126.39 32.6145 126.45 32.7037C126.51 32.7928 126.591 32.866 126.686 32.9169C126.78 32.9678 126.886 32.9949 126.993 32.9959L161.269 33.4344C162.08 33.4349 162.88 33.6222 163.607 33.9817C164.335 34.3412 164.969 34.8633 165.462 35.5075C166.416 36.8658 166.649 38.7149 166.068 40.7166L165.591 42.3942C165.542 42.5647 165.44 42.7151 165.299 42.8231C165.159 42.9312 164.987 42.9913 164.81 42.9947H168.231C168.163 42.9976 168.095 42.9833 168.034 42.9529C167.973 42.9226 167.92 42.8772 167.881 42.8211C167.842 42.765 167.818 42.6999 167.811 42.6319C167.804 42.5639 167.814 42.4953 167.841 42.4323Z" fill="white"/>
<path d="M165.562 42.3784L166.039 40.7009C166.62 38.6992 166.406 36.8501 165.434 35.4918C164.941 34.8476 164.306 34.3255 163.579 33.9659C162.851 33.6064 162.051 33.4192 161.24 33.4187L126.965 32.9802C126.857 32.9792 126.752 32.9521 126.657 32.9012C126.562 32.8502 126.481 32.7771 126.421 32.6879C126.361 32.5988 126.324 32.4964 126.312 32.3896C126.301 32.2827 126.315 32.1747 126.355 32.0747C126.413 31.9063 126.519 31.7587 126.661 31.6502C126.802 31.5418 126.973 31.4773 127.15 31.4647L161.74 31.0262C165.844 30.8404 170.285 27.509 171.844 23.4486L173.817 18.2919C173.869 18.1516 173.894 18.003 173.893 17.8535C173.895 17.7718 173.887 17.6902 173.869 17.6104C172.797 12.8156 170.186 8.50289 166.435 5.32944C162.684 2.15599 157.999 0.295837 153.093 0.0324145C148.186 -0.231007 143.329 1.11675 139.259 3.87032C135.19 6.62389 132.133 10.6323 130.553 15.2847C128.874 14.0268 126.846 13.321 124.749 13.2644C122.652 13.2079 120.589 13.8035 118.844 14.9691C117.1 16.1346 115.76 17.8128 115.01 19.772C114.259 21.7312 114.135 23.875 114.655 25.9077C110.908 26.018 107.352 27.5837 104.74 30.2725C102.129 32.9614 100.668 36.5618 100.667 40.3101C100.667 41.0071 100.718 41.7032 100.82 42.3927C100.84 42.5528 100.918 42.6999 101.039 42.8068C101.16 42.9138 101.316 42.9732 101.477 42.9742H164.781C164.958 42.9711 165.129 42.9117 165.269 42.8046C165.41 42.6974 165.513 42.5481 165.562 42.3784Z" fill="#F48120"/>
<path d="M176.981 18.6725C176.667 18.6725 176.348 18.6726 176.028 18.6964C175.978 18.6986 175.928 18.7082 175.88 18.725C175.798 18.7536 175.723 18.802 175.664 18.866C175.604 18.9299 175.56 19.0075 175.537 19.0919L174.189 23.7482C173.607 25.745 173.822 27.5942 174.794 28.9524C175.287 29.5962 175.922 30.1179 176.649 30.4773C177.377 30.8368 178.177 31.0244 178.988 31.0256L186.294 31.464C186.397 31.4672 186.498 31.4942 186.589 31.543C186.68 31.5918 186.758 31.661 186.818 31.7452C186.877 31.8366 186.915 31.9403 186.928 32.0485C186.942 32.1568 186.93 32.2666 186.894 32.3695C186.835 32.5373 186.728 32.6843 186.587 32.7926C186.445 32.9008 186.276 32.9658 186.098 32.9796L178.506 33.418C174.384 33.6039 169.928 36.9352 168.389 40.9957L167.836 42.4254C167.813 42.4854 167.805 42.55 167.812 42.6137C167.819 42.6774 167.841 42.7386 167.877 42.7921C167.912 42.8456 167.96 42.89 168.016 42.9215C168.071 42.9531 168.134 42.9709 168.198 42.9735H194.362C194.513 42.9744 194.661 42.9261 194.782 42.8358C194.903 42.7455 194.992 42.6182 195.034 42.4731C195.815 39.6878 195.941 36.7596 195.402 33.9176C194.863 31.0755 193.673 28.3969 191.926 26.0913C190.179 23.7858 187.922 21.9159 185.332 20.628C182.741 19.3401 179.888 18.6692 176.996 18.6678L176.981 18.6725Z" fill="#FAAD3F"/>
<path d="M198.313 54.0411C197.979 54.0411 197.653 53.9423 197.376 53.7571C197.099 53.572 196.882 53.3088 196.755 53.0008C196.627 52.6928 196.593 52.3538 196.658 52.0267C196.723 51.6995 196.883 51.3989 197.118 51.1628C197.354 50.9266 197.654 50.7656 197.981 50.6999C198.308 50.6343 198.647 50.667 198.955 50.794C199.263 50.921 199.527 51.1365 199.713 51.4133C199.899 51.6901 199.999 52.0158 200 52.3493C200 52.7972 199.822 53.2268 199.506 53.5439C199.19 53.8611 198.761 54.0399 198.313 54.0411ZM198.313 50.9767C198.039 50.972 197.77 51.0488 197.541 51.1975C197.311 51.3461 197.131 51.5598 197.023 51.8113C196.915 52.0628 196.885 52.3407 196.936 52.6096C196.986 52.8785 197.116 53.1261 197.308 53.3209C197.5 53.5157 197.746 53.6489 198.014 53.7035C198.282 53.7581 198.561 53.7315 198.814 53.6273C199.067 53.523 199.283 53.3458 199.435 53.1182C199.587 52.8906 199.667 52.6229 199.666 52.3493C199.668 51.9881 199.526 51.6412 199.272 51.384C199.019 51.1269 198.674 50.9805 198.313 50.9767ZM199.166 53.2405H198.766L198.427 52.5923H197.974V53.2262H197.627V51.3723H198.518C198.661 51.365 198.802 51.4089 198.916 51.4962C199.03 51.5835 199.11 51.7084 199.14 51.8488C199.17 51.9891 199.15 52.1357 199.082 52.2623C199.014 52.3889 198.904 52.4873 198.77 52.5399L199.166 53.2405ZM198.523 52.2873C198.561 52.291 198.6 52.2861 198.636 52.2731C198.673 52.26 198.706 52.2391 198.733 52.2117C198.76 52.1844 198.781 52.1514 198.794 52.115C198.807 52.0786 198.812 52.0398 198.808 52.0014C198.814 51.9625 198.81 51.9229 198.798 51.8857C198.786 51.8484 198.765 51.8146 198.737 51.7868C198.709 51.7591 198.675 51.7382 198.638 51.7258C198.601 51.7134 198.561 51.7098 198.523 51.7154H197.974V52.273L198.523 52.2873Z" fill="white"/>
<path d="M21.4746 50.4955H25.8019V62.3147H33.3604V66.1036H21.4746V50.4955Z" fill="white"/>
<path d="M37.8401 58.3434V58.2958C37.8401 53.8159 41.4525 50.1938 46.2707 50.1938C51.0889 50.1938 54.6537 53.7873 54.6537 58.2672V58.3101C54.6537 62.7947 51.0412 66.412 46.2278 66.412C41.4144 66.412 37.8401 62.8233 37.8401 58.3434ZM50.2311 58.3434V58.2958C50.2311 56.0463 48.6012 54.0828 46.2183 54.0828C43.8354 54.0828 42.2675 55.9891 42.2675 58.2529V58.2958C42.2675 60.55 43.8974 62.5135 46.2612 62.5135C48.625 62.5135 50.2311 60.6072 50.2311 58.3434Z" fill="white"/>
<path d="M59.9675 59.2551V50.4955H64.3616V59.1693C64.3616 61.4235 65.4958 62.5054 67.221 62.5054C68.9462 62.5054 70.0805 61.4807 70.0805 59.2932V50.4955H74.4745V59.1455C74.4745 64.1877 71.615 66.3943 67.1591 66.3943C62.7031 66.3943 59.9675 64.1401 59.9675 59.2551Z" fill="white"/>
<path d="M81.1085 50.4955H87.1324C92.7084 50.4955 95.9443 53.7029 95.9443 58.2066V58.2543C95.9443 62.758 92.6655 66.1036 87.0467 66.1036H81.1085V50.4955ZM87.1944 62.2814C89.7822 62.2814 91.4836 60.8516 91.4836 58.3353V58.2924C91.4836 55.7951 89.7679 54.3415 87.1944 54.3415H85.4358V62.2814H87.1944Z" fill="white"/>
<path d="M102.226 50.4955H114.712V54.2843H106.553V56.9389H113.93V60.5276H106.553V66.1036H102.226V50.4955Z" fill="white"/>
<path d="M120.731 50.4955H125.058V62.3147H132.617V66.1036H120.731V50.4955Z" fill="white"/>
<path d="M143.921 50.3653H148.091L154.735 66.0925H150.098L148.959 63.3045H142.939L141.824 66.0925H137.278L143.921 50.3653ZM147.71 59.9351L145.97 55.4933L144.212 59.9351H147.71Z" fill="white"/>
<path d="M160.311 50.4955H167.674C170.057 50.4955 171.71 51.1198 172.759 52.1874C173.228 52.6648 173.594 53.2345 173.832 53.8605C174.069 54.4864 174.175 55.1549 174.141 55.8237V55.8666C174.177 56.9012 173.887 57.921 173.311 58.7815C172.735 59.642 171.904 60.2995 170.934 60.661L174.67 66.094H169.675L166.53 61.3663H164.624V66.094H160.301L160.311 50.4955ZM167.488 57.9921C168.961 57.9921 169.809 57.2773 169.809 56.1382V56.0858C169.809 54.861 168.918 54.2367 167.469 54.2367H164.633V57.9921H167.488Z" fill="white"/>
<path d="M180.398 50.4955H192.951V54.1747H184.683V56.5338H192.174V59.9509H184.683V62.4244H193.066V66.1036H180.398V50.4955Z" fill="white"/>
<path d="M12.0002 60.1748C11.7062 60.8772 11.2086 61.4754 10.5716 61.8925C9.93451 62.3095 9.18719 62.5263 8.42586 62.5148C6.04298 62.5148 4.43692 60.5513 4.43692 58.2971V58.2542C4.43692 55.9999 6.01915 54.0841 8.38297 54.0841C9.19331 54.0791 9.9853 54.3252 10.6501 54.7886C11.3149 55.2519 11.8198 55.9099 12.0955 56.6719H16.6563C15.9272 52.9546 12.6626 50.1808 8.42586 50.1808C3.61245 50.1808 0 53.8172 0 58.2828V58.3257C0 62.8103 3.56479 66.4037 8.38297 66.4037C10.2546 66.451 12.0864 65.8579 13.5752 64.7227C15.064 63.5874 16.1207 61.9779 16.5705 60.1605L12.0002 60.1748Z" fill="white"/>
</svg>
