<svg width="150" height="57" viewBox="0 0 150 57" fill="none" xmlns="http://www.w3.org/2000/svg">
<path d="M82.0997 6.08677C83.0757 3.52812 86.2961 3.52812 88.8831 3.52812H89.3635V0C89.3635 0 79.2817 0.220891 76.1974 0.220891C73.023 0.220891 63.6021 0 63.6021 0V3.52812H64.0824C66.6694 3.52812 69.8959 3.52812 70.8613 6.08217C71.6706 8.27573 71.6706 14.4791 71.6706 17.1267V39.6591C71.6706 42.3082 71.6706 48.5101 70.8643 50.7036C69.8898 53.2592 66.6694 53.2592 64.0824 53.2592H63.6021V56.7873C63.6021 56.7781 71.7501 56.436 76.2127 56.436C81.3485 56.436 89.3696 56.7873 89.3696 56.7873V53.2592H88.8892C86.3022 53.2592 83.0757 53.2592 82.1088 50.7082C81.298 48.5131 81.298 42.3113 81.298 39.6637V17.1267C81.298 14.4791 81.298 8.27573 82.1058 6.08217" fill="white"/>
<path d="M97.01 0.0602417V14.7863H100.503L100.52 14.3261C100.836 4.7419 104.497 4.33693 112.732 4.33693H113.58C115.628 4.32313 117.558 4.31239 118.323 5.06863C118.577 5.32173 118.7 5.67148 118.7 6.1424V44.8489C118.7 50.5951 117.897 52.9697 109.827 53.3041L109.368 53.3225V56.8322C109.368 56.8322 118.775 56.4871 124.219 56.4871C128.372 56.4871 137.651 56.8322 137.651 56.8322V53.3225L137.192 53.3041C129.123 52.9697 128.319 50.5951 128.319 44.8489V6.1332C128.311 5.95617 128.34 5.77942 128.403 5.61413C128.467 5.44885 128.564 5.29861 128.689 5.17294C129.619 4.25256 132.182 4.29551 134.242 4.32466C134.632 4.32466 135.016 4.3354 135.379 4.3354C143.434 4.3354 146.032 6.67469 146.501 14.3368L146.529 14.7878H150V0.0617748C150 0.0617748 129.67 0.195231 123.509 0.195231C117.348 0.195231 97.0161 0.0617748 97.0161 0.0617748" fill="white"/>
<path d="M55.7866 53.2592C51.7233 52.6195 50.5024 52.1578 47.8313 49.0623L31.1129 29.8141C39.9203 28.6636 45.3483 22.8269 45.3483 14.3962C45.3483 8.90772 43.2325 4.9501 39.0758 2.62921C35.906 0.865155 31.5061 0.00767028 25.613 0.00767028C23.8491 0.0506213 19.6052 0.196347 14.93 0.196347C10.0818 0.196347 0.00917941 0 0.00917941 0V3.52812H0.708328C3.37795 3.50971 6.38107 3.52811 7.17966 6.06376C7.91094 8.26346 7.91094 14.4668 7.91094 16.5054V39.656C7.91094 42.2131 7.91094 46.0987 7.57284 48.7509C7.50076 49.418 7.36865 50.0772 7.17813 50.7205C6.36119 53.2546 3.10563 53.2546 0.488027 53.2546H0V56.7827C0 56.7827 7.84057 56.4345 13.0804 56.4345C17.5858 56.4345 25.4218 56.7735 25.4218 56.7827V53.2546H24.7257C22.1005 53.2653 19.1218 53.2546 18.2528 50.7159C18.0614 50.0744 17.9293 49.4166 17.8581 48.7509C17.5139 46.1109 17.5139 42.3389 17.5139 40.2819V30.8096C20.6425 30.8373 20.9148 31.1671 22.5227 33.1106C22.8287 33.4695 23.1637 33.8776 23.5554 34.3378L37.5123 51.7022L41.6154 56.7796C41.6154 56.7796 46.1148 56.5879 48.3009 56.5879C51.48 56.5879 56.1859 56.7858 56.1859 56.7858V53.3206L55.7866 53.2592ZM17.5139 26.9533C17.5139 26.9533 17.5139 6.44878 17.5139 6.3276C17.5001 5.51 17.4787 4.39327 18.158 4.07421C18.6307 3.86712 23.1805 4.03125 23.4284 4.03125C30.6019 4.03125 34.7188 8.24198 34.7188 15.5774C34.7188 20.9248 33.3006 23.9912 30.1292 25.5313C27.1658 26.964 17.5246 26.9533 17.5246 26.9533" fill="white"/>
</svg>
