<svg width="200" height="36" viewBox="0 0 200 36" fill="none" xmlns="http://www.w3.org/2000/svg">
<path d="M12.2556 23.1216H0V12.6158H12.2556V12.6086V0.349365H22.7615V12.6086V12.6158H35.0207V23.1216H22.7615V23.118V35.3773H12.2556V23.118V23.1216Z" fill="#EE2435"/>
<path d="M51.2727 17.6778C51.2727 9.51575 57.8902 2.89469 66.0558 2.89469C67.874 2.89469 69.6166 3.22232 71.2223 3.82358C68.198 1.42934 64.378 0 60.2232 0C50.4266 0 42.4843 7.94239 42.4843 17.739C42.4843 27.5355 50.4266 35.4779 60.2232 35.4779C64.5148 35.4779 68.4536 33.9514 71.5247 31.4131C69.8326 32.0864 67.9892 32.4572 66.0594 32.4572C57.8938 32.4572 51.2727 25.8398 51.2727 17.6778Z" fill="#EE2435"/>
<path d="M185.836 35.4851C188.81 35.4851 191.507 34.9595 193.923 33.9154C196.342 32.8677 198.365 31.3519 200 29.3573L194.902 24.6517C192.58 27.3663 189.707 28.7201 186.275 28.7201C184.151 28.7201 182.254 28.2556 180.59 27.3231C178.923 26.3906 177.624 25.0945 176.695 23.4275C175.762 21.7606 175.298 19.8668 175.298 17.7426C175.298 15.6184 175.766 13.721 176.695 12.054C177.624 10.387 178.923 9.08731 180.59 8.15842C182.257 7.22592 184.151 6.76148 186.275 6.76148C189.707 6.76148 192.583 8.10081 194.902 10.7831L200 6.07741C198.365 4.11521 196.349 2.61386 193.944 1.56976C191.543 0.522052 188.857 0 185.883 0C182.355 0 179.176 0.759675 176.349 2.27903C173.519 3.79838 171.298 5.90819 169.681 8.60126C168.065 11.2979 167.255 14.3474 167.255 17.7426C167.255 21.1413 168.065 24.1872 169.681 26.8839C171.298 29.5806 173.519 31.6868 176.349 33.2061C179.176 34.7255 182.337 35.4851 185.836 35.4851ZM154.121 13.0333C154.121 14.9307 153.501 16.3996 152.259 17.4473C151.017 18.495 149.203 19.0171 146.819 19.0171H140.349V7.05311H146.819C149.206 7.05311 151.017 7.56796 152.259 8.59766C153.501 9.62736 154.121 11.1071 154.121 13.0333ZM162.797 34.8983L155.104 23.8704C157.357 22.8911 159.1 21.4761 160.324 19.6292C161.548 17.7822 162.16 15.586 162.16 13.0369C162.16 10.4878 161.555 8.28443 160.349 6.41944C159.14 4.55805 157.415 3.11791 155.179 2.10621C152.94 1.09451 150.301 0.586859 147.262 0.586859H132.41V34.8983H140.353V25.3393H147.266H147.658L154.275 34.8983H162.797ZM125.545 6.9559V0.583258H99.6148V34.8947H107.557V22.3942H123.438V16.0216H107.557V6.9559H125.545ZM83.5392 34.8983H91.4816V0.586859H83.5392V34.8983Z" fill="white"/>
</svg>
