<svg width="200" height="39" viewBox="0 0 200 39" fill="none" xmlns="http://www.w3.org/2000/svg">
<path d="M120.871 31.9019C119.815 31.9019 118.73 31.9133 117.671 31.9133V38.8161H118.775V36.695H120.867C124.174 36.6767 124.165 31.9019 120.871 31.9019ZM120.871 35.6801H118.78V32.919H120.871C122.686 32.919 122.695 35.6801 120.871 35.6801Z" fill="white"/>
<path d="M130.437 36.3201C131.808 36.1235 132.311 35.1567 132.311 34.1715C132.311 33.0081 131.472 31.9133 129.874 31.9133C128.8 31.9133 127.735 31.9019 126.661 31.9019V38.8161H127.765V36.4344H129.223L131.323 38.8206H132.608L132.489 38.6241L130.437 36.3201ZM127.765 35.4241V32.9099H129.865C130.037 32.8982 130.209 32.9228 130.371 32.982C130.533 33.0412 130.68 33.1337 130.804 33.2535C130.928 33.3733 131.025 33.5177 131.089 33.6774C131.153 33.8372 131.183 34.0086 131.177 34.1807C131.177 34.8321 130.773 35.415 129.856 35.415L127.765 35.4241Z" fill="white"/>
<path d="M139.065 31.7847C136.985 31.7847 135.515 33.3024 135.515 35.4029C135.515 37.2178 136.658 38.964 139.047 38.964C141.435 38.964 142.576 37.2566 142.576 35.3938C142.576 33.5309 141.424 31.7938 139.065 31.7847ZM139.047 37.956C137.339 37.956 136.631 36.6441 136.61 35.4212C136.61 33.9127 137.467 32.7995 139.065 32.7995C140.752 32.8292 141.483 34.1504 141.483 35.4212C141.483 36.7355 140.763 37.9469 139.047 37.9469V37.956Z" fill="white"/>
<path d="M149.254 31.9019C148.198 31.9019 147.113 31.9133 146.054 31.9133V38.8161H147.158V36.695H149.25C152.557 36.6767 152.548 31.9019 149.254 31.9019ZM149.254 35.6801H147.163V32.919H149.254C151.067 32.919 151.078 35.6801 149.254 35.6801Z" fill="white"/>
<path d="M156.15 35.8761H159.956V34.8521H156.15V32.987H160.113V31.9127H155.042V38.8155H160.141V37.7298H156.15V35.8761Z" fill="white"/>
<path d="M167.507 36.3201C168.867 36.1235 169.382 35.1567 169.382 34.1715C169.382 33.0081 168.543 31.9133 166.945 31.9133C165.871 31.9133 164.806 31.9019 163.731 31.9019V38.8161H164.835V36.4344H166.294L168.394 38.8206H169.688L169.569 38.6241L167.507 36.3201ZM164.835 35.4241V32.9099H166.945C167.117 32.8982 167.289 32.9228 167.451 32.982C167.613 33.0412 167.76 33.1337 167.884 33.2535C168.007 33.3733 168.104 33.5177 168.169 33.6774C168.233 33.8372 168.263 34.0086 168.257 34.1807C168.257 34.8321 167.852 35.415 166.936 35.415L164.835 35.4241Z" fill="white"/>
<path d="M172.193 32.9093H174.46V38.8155H175.578V32.9093H177.839V31.9127H172.193V32.9093Z" fill="white"/>
<path d="M182.133 31.9127H181.038V38.8155H182.133V31.9127Z" fill="white"/>
<path d="M187.143 35.8761H190.949V34.8521H187.143V32.987H191.107V31.9127H186.037V38.8155H191.136V37.7298H187.143V35.8761Z" fill="white"/>
<path d="M197.221 34.7027C196.306 34.5747 195.545 34.3873 195.545 33.7153C195.545 33.0433 196.215 32.6707 197.145 32.6707C197.865 32.6707 198.517 32.9656 198.85 33.441L199.689 32.8787C199.106 31.9507 198.112 31.713 197.115 31.713C195.872 31.713 194.444 32.2662 194.453 33.697C194.453 35.1758 195.753 35.5256 197.125 35.7084C198.091 35.8364 198.889 36.0924 198.889 36.8513C198.889 37.7198 197.975 37.9941 197.145 37.9941C196.717 38.0136 196.292 37.9178 195.914 37.7168C195.535 37.5157 195.218 37.2168 194.994 36.8513L194.167 37.4044C194.798 38.5678 195.813 38.9724 197.138 38.9724C198.578 38.9724 199.988 38.3895 200 36.8421C200.011 35.2947 198.642 34.8993 197.221 34.7027Z" fill="white"/>
<path d="M3.68216 3.58398H17.428L19.4988 0H0V23.0169H3.68216V13.4193L12.059 13.4216L14.0315 10.0022L3.68216 9.9999V3.58398Z" fill="white"/>
<path d="M58.0688 0L47.7743 9.93133V0H44.0922V23.0169H47.7743V12.5279L58.0345 23.0169H62.6378L51.1616 11.1153L62.6401 0H58.0688Z" fill="white"/>
<path d="M14.036 23.0169H18.2439L27.3247 7.29136L36.4055 23.0169H40.6134L27.3247 0L14.036 23.0169Z" fill="white"/>
<path d="M128.311 0.034668H124.654V13.4837C124.654 17.8562 121.957 20.2562 118.275 20.0596C114.846 19.927 112.421 17.6596 112.421 13.4837V0.034668H108.764V13.4837C108.764 20.0253 113.139 23.3121 118.268 23.4447C123.824 23.6436 128.297 20.2562 128.297 13.4837L128.311 0.034668Z" fill="white"/>
<path d="M176.949 0H173.299V23.0169H176.949V0Z" fill="white"/>
<path d="M196.311 0V16.377L183.255 0H180.428V23.0169H184.145V6.77479L197.198 23.0169H199.993V0H196.311Z" fill="white"/>
<path d="M158.276 0H150.962V0.0274272C151.846 0.605371 152.651 1.297 153.355 2.08455C153.82 2.60708 154.24 3.1675 154.612 3.75996V3.51997H158.276C163.702 3.51997 166.07 7.40564 166.168 11.2913C166.266 15.3347 163.898 19.4787 158.276 19.4787H154.605V19.3141C154.142 20.04 153.606 20.7163 153.005 21.3324C152.383 21.9683 151.693 22.534 150.948 23.0192H158.262C166.319 23.0192 169.935 17.1335 169.804 11.3142C169.72 5.6228 166.136 0 158.276 0Z" fill="white"/>
<path d="M152.036 11.3119C151.938 5.62281 148.354 0 140.496 0H131.787V23.0169H140.503C148.557 23.0169 152.175 17.1313 152.036 11.3119ZM140.496 19.4672H135.438V3.51997H140.503C145.929 3.51997 148.294 7.40564 148.395 11.2913C148.493 15.3233 146.125 19.4672 140.503 19.4672H140.496Z" fill="white"/>
<path d="M98.0333 14.7188C102.57 14.0628 104.282 10.8331 104.282 7.56002C104.282 3.68578 101.487 0.0401086 96.1591 0.0401086C93.8071 0.0401086 91.4666 0.0401025 89.1216 0.0195312V3.38179H96.1591C99.1852 3.38179 100.534 5.54862 100.534 7.61717C100.534 9.784 99.1852 11.7314 96.1271 11.7314H91.3958L100.995 23.025H105.302L98.0333 14.7188Z" fill="white"/>
<path d="M81.9652 0V10.0296H69.7987V0H66.1166V23.0169H69.7987V13.449H81.9652V23.0169H85.6473V0.0114396C84.4199 0.00686823 83.1948 0 81.9652 0Z" fill="white"/>
</svg>
