<svg width="100" height="100" viewBox="0 0 100 100" fill="none" xmlns="http://www.w3.org/2000/svg">
<path d="M50 100C77.6142 100 100 77.6142 100 50C100 22.3858 77.6142 0 50 0C22.3858 0 0 22.3858 0 50C0 77.6142 22.3858 100 50 100Z" fill="#154270"/>
<path d="M50 3.57478C39.2572 3.59613 28.8539 7.34071 20.5617 14.1707C12.2695 21.0006 6.60112 30.4937 4.52187 41.0335C2.44262 51.5732 4.08105 62.5078 9.15813 71.9752C14.2352 81.4426 22.437 88.8575 32.3669 92.9571C42.2967 97.0567 53.3406 97.5876 63.6179 94.4593C73.8952 91.3311 82.7704 84.737 88.7322 75.8002C94.694 66.8634 97.3736 56.1364 96.3149 45.4459C95.2562 34.7553 90.5245 24.7623 82.9257 17.1685C78.6129 12.8328 73.4808 9.39821 67.8282 7.0645C62.1756 4.73078 56.1153 3.5445 50 3.57478ZM50 5.40928C58.8378 5.40928 67.4772 8.03003 74.8256 12.9401C82.174 17.8501 87.9013 24.8289 91.2834 32.994C94.6655 41.159 95.5504 50.1437 93.8263 58.8117C92.1021 67.4798 87.8463 75.4419 81.597 81.6912C75.3477 87.9405 67.3856 92.1963 58.7176 93.9204C50.0496 95.6446 41.065 94.7596 32.8999 91.3776C24.7348 87.9955 17.7559 82.2681 12.8459 74.9197C7.93588 67.5714 5.31515 58.932 5.31515 50.0941C5.31515 38.243 10.023 26.8771 18.403 18.4971C26.7831 10.1171 38.1488 5.40928 50 5.40928Z" fill="white"/>
<path d="M62.6065 22.6715L67.0045 12.0412C66.2989 11.7119 65.5463 11.4297 64.8173 11.1475L60.3958 21.7543C61.1504 22.0154 61.8887 22.3217 62.6065 22.6715Z" fill="white"/>
<path d="M49.8585 10.5617H54.1154C54.3817 10.532 54.6513 10.5588 54.9066 10.6404C55.1619 10.7219 55.3971 10.8564 55.5968 11.0351C55.7965 11.2138 55.9563 11.4327 56.0657 11.6773C56.1751 11.922 56.2317 12.1869 56.2317 12.4549C56.2317 12.7229 56.1751 12.9878 56.0657 13.2325C55.9563 13.4771 55.7965 13.696 55.5968 13.8747C55.3971 14.0534 55.1619 14.1879 54.9066 14.2695C54.6513 14.351 54.3817 14.3778 54.1154 14.3481H49.8585V10.5617ZM49.8585 19.8515V16.3942H52.7748L55.2678 20.3453C56.279 20.5334 57.2433 20.7687 58.2075 21.0274L55.1972 16.3237C56.0587 16.1216 56.8315 15.6455 57.3997 14.9671C57.9679 14.2886 58.3009 13.4443 58.3487 12.5607C58.2823 11.4877 57.8057 10.4814 57.0176 9.75024C56.2295 9.01905 55.1903 8.61905 54.1154 8.63317H47.5302V20.0395C48.3063 20.0395 49.0824 20.0395 49.882 20.0395" fill="white"/>
<path d="M22.1775 21.8008L25.3055 18.3437C25.6622 17.9904 26.1439 17.7922 26.646 17.7922C27.1481 17.7922 27.6298 17.9904 27.9866 18.3437C28.1643 18.5188 28.3055 18.7275 28.4019 18.9577C28.4982 19.1878 28.5478 19.4348 28.5478 19.6843C28.5478 19.9338 28.4982 20.1808 28.4019 20.4109C28.3055 20.641 28.1643 20.8498 27.9866 21.0248L24.9762 24.3644L22.1775 21.8008ZM29.0919 28.1039L26.4814 25.752L29.6799 22.1772C30.3954 21.4076 30.7812 20.3885 30.7548 19.338C30.7285 18.2876 30.292 17.289 29.5388 16.5563C28.7349 15.8673 27.6953 15.5168 26.6384 15.5782C25.5815 15.6396 24.5895 16.1082 23.8708 16.8856L19.1672 22.1537L27.4927 29.7501L29.1389 28.1039" fill="white"/>
<path d="M72.6242 18.4627C74.3411 18.0629 77.4925 21.2143 78.104 23.331L79.7267 22.1315C78.3862 18.3215 73.071 14.5352 70.5546 16.9105C69.0494 18.3216 69.8961 20.5088 71.2131 21.8729L72.4831 23.2134C73.7766 24.5775 74.8349 25.9415 73.8707 26.8116C72.9064 27.6818 69.6609 25.4242 67.7794 21.4731L66.1096 22.743C66.715 24.1527 67.5672 25.4429 68.6261 26.553C69.7301 27.8259 71.187 28.7426 72.8123 29.187C73.2923 29.3148 73.7956 29.3282 74.2816 29.2261C74.7677 29.124 75.223 28.9091 75.611 28.5991C77.3279 26.9998 76.7164 24.6715 74.0118 21.8258L72.8829 20.6499C71.6364 19.3328 72.1303 18.5803 72.6242 18.4627Z" fill="white"/>
<path d="M36.7352 17.8752L36.9234 12.9599L40.1689 16.6757C38.9997 17.0013 37.8528 17.402 36.7352 17.8752ZM37.4172 10.4199L35.0654 11.2901L34.2188 24.3192C34.9949 23.8488 35.7945 23.402 36.5706 23.0022V19.9684C38.1473 19.2979 39.7753 18.7553 41.4389 18.3456L43.4379 20.6974C44.3081 20.5093 45.2018 20.3446 46.0955 20.227L37.4172 10.4199Z" fill="white"/>
<path d="M53.6458 24.8617C57.6578 25.4336 61.4762 26.9519 64.7853 29.2912C68.0945 31.6306 70.7995 34.7238 72.6768 38.3153C74.5542 41.9068 75.5499 45.8936 75.5818 49.946C75.6137 53.9984 74.6809 58.0003 72.8603 61.6209C61.6185 53.1778 54.7747 41.2775 53.6458 24.8617ZM63.5 71.8984C63.6141 71.2145 63.6692 70.5221 63.6646 69.8288C63.4166 66.3836 61.873 63.1601 59.3444 60.807C56.8158 58.4539 53.4899 57.1459 50.0358 57.1459C46.5817 57.1459 43.2557 58.4539 40.7271 60.807C38.1985 63.1601 36.6549 66.3836 36.4069 69.8288C36.4101 70.5228 36.473 71.2152 36.595 71.8984C33.4397 69.9217 30.745 67.2912 28.6929 64.1843C33.4228 60.4195 37.4513 55.8496 40.5931 50.6848H59.4078C62.5653 55.8452 66.6007 60.4138 71.3316 64.1843C69.2795 67.2912 66.5848 69.9217 63.4295 71.8984M59.1491 74.015C53.2429 76.2733 46.7111 76.2733 40.8048 74.015C39.735 72.4048 39.1625 70.5154 39.1585 68.5823C39.2882 65.8034 40.4834 63.1812 42.4958 61.2605C44.5083 59.3398 47.1833 58.2681 49.9652 58.2681C52.7471 58.2681 55.4221 59.3398 57.4346 61.2605C59.447 63.1812 60.6422 65.8034 60.7719 68.5823C60.7763 70.5132 60.2119 72.4028 59.1491 74.015ZM24.5066 50.144C24.5076 43.9942 26.7274 38.0511 30.7584 33.4067C34.7893 28.7622 40.3608 25.7281 46.4492 24.8617C45.3203 41.3246 38.4765 53.0838 27.2347 61.6209C25.4372 58.0624 24.5027 54.1307 24.5066 50.144ZM50.0475 24.6029C50.8236 24.6029 51.5997 24.603 52.3994 24.7206C52.4114 33.4572 54.6537 42.0461 58.9139 49.6736H41.1811C45.4307 42.0418 47.6723 33.4557 47.6957 24.7206C48.4718 24.7206 49.2479 24.6029 50.0475 24.6029ZM50.0475 22.7686C44.6265 22.7639 39.326 24.3675 34.8167 27.3763C30.3074 30.3852 26.7919 34.6641 24.7152 39.6715C22.6386 44.679 22.094 50.1899 23.1505 55.5069C24.2069 60.824 26.8169 65.7081 30.6501 69.5413C34.4833 73.3745 39.3675 75.9845 44.6845 77.0409C50.0016 78.0973 55.5125 77.5528 60.52 75.4761C65.5274 73.3995 69.8063 69.8841 72.8151 65.3748C75.824 60.8654 77.4275 55.5649 77.4229 50.144C77.4166 42.8855 74.5305 35.926 69.3979 30.7934C64.2654 25.6609 57.306 22.7748 50.0475 22.7686Z" fill="white"/>
<path d="M27.7749 76.41L26.2932 77.1156L27.328 77.9857L27.7749 76.41ZM27.328 80.5493L26.7871 80.1024L27.234 78.6208L25.7758 77.3978L24.3883 78.0564L23.8708 77.6095L28.1277 75.6104L28.6451 76.0572L27.328 80.5493Z" fill="white"/>
<path d="M30.8518 77.721L28.4366 81.2549L28.9414 81.5999L31.3566 78.066L30.8518 77.721Z" fill="white"/>
<path d="M33.3249 79.4228L34.0775 83.468V83.4915L35.5827 80.5988L36.1471 80.881L34.148 84.6909L33.6071 84.3852L32.8545 80.3401V80.3165L31.3258 83.2093L30.7849 82.9271L32.784 79.1406L33.3249 79.4228Z" fill="white"/>
<path d="M40.733 82.5724L40.5214 83.1604L39.1103 82.6665L37.9108 86.1237L37.3229 85.9355L38.5223 82.4548L37.1112 81.9609L37.3229 81.3965L40.733 82.5724Z" fill="white"/>
<path d="M42.8976 85.6794L44.4499 85.9616L44.5439 85.4678L42.9917 85.1855L42.8976 85.6794Z" fill="white"/>
<path d="M50.165 85.82H52.117V86.9489C52.117 87.725 51.2469 88.219 50.1885 88.219C49.8353 88.3351 49.4596 88.3658 49.0922 88.3085C48.7248 88.2513 48.3762 88.1077 48.075 87.8897C47.7739 87.6716 47.5287 87.3852 47.3596 87.0541C47.1905 86.7229 47.1024 86.3565 47.1024 85.9847C47.1024 85.6129 47.1905 85.2463 47.3596 84.9151C47.5287 84.584 47.7739 84.2977 48.075 84.0797C48.3762 83.8617 48.7248 83.7181 49.0922 83.6608C49.4596 83.6036 49.8353 83.6343 50.1885 83.7504C50.5286 83.7557 50.864 83.8292 51.1751 83.9666C51.4862 84.1039 51.7665 84.3024 51.9995 84.5501L51.5526 84.9969C51.3295 84.7226 51.0291 84.5215 50.6903 84.42C50.3516 84.3186 49.9902 84.3213 49.6529 84.4278C49.3157 84.5343 49.0183 84.7396 48.7993 85.0172C48.5803 85.2948 48.4497 85.6319 48.4247 85.9847C48.4275 86.204 48.4747 86.4204 48.5635 86.6209C48.6523 86.8214 48.7808 87.0018 48.9412 87.1513C49.1017 87.3007 49.2908 87.4161 49.4971 87.4905C49.7034 87.5648 49.9226 87.5966 50.1415 87.5839C50.8941 87.5839 51.435 87.2782 51.435 86.9019V86.5491H50.1415L50.165 85.82Z" fill="white"/>
<path d="M56.8206 83.2568L56.9146 83.8683L54.0454 84.2916L54.21 85.397L55.6446 85.1853L55.7387 85.7968L54.3041 86.0085L54.4922 87.302L57.4556 86.8787L57.5261 87.4901L53.9513 88.0075L53.3398 83.7507L56.8206 83.2568Z" fill="white"/>
<path d="M59.101 83.3233L59.4538 84.5228L61.2882 83.9818C61.7351 83.8406 61.8997 83.5585 61.7821 83.1587C61.6645 82.7589 61.2647 82.6649 60.9119 82.7824L59.101 83.3233ZM60.7473 82.1945C60.9028 82.1195 61.0733 82.0804 61.246 82.0801C61.4187 82.0798 61.5892 82.1184 61.745 82.1929C61.9008 82.2674 62.0379 82.376 62.1461 82.5106C62.2543 82.6452 62.3308 82.8023 62.37 82.9705C62.4896 83.2421 62.4974 83.5499 62.3917 83.8272C62.2861 84.1044 62.0755 84.3289 61.8056 84.4522L63.1697 85.9338L62.4876 86.122L61.1706 84.6639L59.6419 85.1343L60.1593 86.8275L59.5478 87.0157L58.3249 82.9235L60.7473 82.1945Z" fill="white"/>
<path d="M70.2261 78.2219L70.5554 79.8447L71.6372 79.045L70.2261 78.2219ZM74.1066 79.7976L73.5422 80.1974L72.2252 79.3979L70.673 80.5031L70.9787 82.0319L70.4143 82.4081L69.5206 77.7045L70.085 77.3047L74.1066 79.7976Z" fill="white"/>
<path d="M72.7314 75.2646L72.2726 75.6689L75.1026 78.8801L75.5614 78.4758L72.7314 75.2646Z" fill="white"/>
<path d="M74.5063 73.5872L78.622 73.8694L76.1996 71.6822L76.6229 71.2354L79.7979 74.0811L79.3981 74.5514L75.2589 74.2692L77.6813 76.4564L77.2579 76.9033L74.0829 74.034L74.5063 73.5872Z" fill="white"/>
<path d="M66.9804 79.4434L66.4159 79.7256L66.3219 82.7594L63.8054 81.0191L63.2645 81.3013L65.0989 85.1818L65.6633 84.8996L64.3933 82.1715L66.8628 83.8648L66.9804 80.878H67.0039L68.415 83.512L68.9794 83.2298L66.9804 79.4434Z" fill="white"/>
<path d="M25.5886 73.7051C25.2358 72.4116 23.9188 71.1182 22.9075 71.1182C22.6969 71.1196 22.4918 71.1853 22.3195 71.3064C22.2191 71.3757 22.1353 71.4666 22.0743 71.5723C22.0132 71.6781 21.9765 71.7961 21.9668 71.9179C21.929 72.3772 22.0725 72.8329 22.3666 73.1878L22.8369 73.7993C23.1897 74.2697 23.519 74.7634 23.4484 75.1633C23.4353 75.241 23.4054 75.3151 23.3607 75.3801C23.316 75.4451 23.2577 75.4996 23.1897 75.5396C23.0976 75.5671 22.9996 75.5671 22.9075 75.5396C22.296 75.5396 21.2377 74.4342 20.7203 72.8585L20.2734 73.2818C20.456 73.8691 20.7428 74.4188 21.1201 74.9046C21.4925 75.4645 22.0254 75.899 22.6488 76.1511C22.8046 76.1758 22.9633 76.1758 23.1192 76.1511C23.3205 76.1615 23.5194 76.1034 23.6836 75.9865C23.8034 75.9123 23.9055 75.8128 23.9827 75.6949C24.0599 75.5771 24.1103 75.4438 24.1304 75.3044C24.1095 74.5712 23.8257 73.8702 23.3308 73.3289L22.931 72.788C22.6017 72.3647 22.6253 72.0825 22.6958 71.9179C22.7236 71.8499 22.7685 71.7902 22.8262 71.7449C22.884 71.6995 22.9525 71.6699 23.0251 71.659C23.7541 71.659 24.789 72.8821 25.0712 73.8228L25.518 73.564L25.5886 73.7051Z" fill="white"/>
<path d="M59.4784 50.6592H40.6637C37.5219 55.824 33.4934 60.3939 28.7634 64.1587C30.8156 67.2655 33.5102 69.8961 36.6656 71.8728C36.5436 71.1896 36.4806 70.4971 36.4774 69.8031C36.7255 66.358 38.2691 63.1346 40.7977 60.7815C43.3263 58.4284 46.6522 57.1203 50.1063 57.1203C53.5604 57.1203 56.8864 58.4284 59.415 60.7815C61.9435 63.1346 63.4872 66.358 63.7352 69.8031C63.7398 70.4965 63.6847 71.1889 63.5706 71.8728C66.7259 69.8961 69.4206 67.2655 71.4727 64.1587C66.7296 60.401 62.6922 55.8301 59.5489 50.6592" fill="#ED1C24"/>
<path d="M58.8898 49.6702C54.6295 42.0427 52.3872 33.4539 52.3752 24.7173C51.5991 24.7173 50.823 24.5996 50.0233 24.5996C49.2237 24.5996 48.4476 24.5997 47.6715 24.7173C47.6481 33.4524 45.4065 42.0385 41.1569 49.6702H58.8898Z" fill="#ED1C24"/>
<path d="M50.8469 71.5917C50.6977 71.5021 50.5685 71.3828 50.4674 71.2412C50.3662 71.0996 50.2953 70.9387 50.2589 70.7685C50.2345 70.7074 50.1923 70.655 50.1378 70.6181C50.0833 70.5812 50.019 70.5615 49.9532 70.5615C49.8873 70.5615 49.823 70.5812 49.7685 70.6181C49.714 70.655 49.6718 70.7074 49.6474 70.7685C49.6111 70.9418 49.5377 71.1053 49.4321 71.2474C49.3265 71.3895 49.1914 71.507 49.0359 71.5917C49.0359 71.5917 49.0359 71.5917 49.0359 71.7093C49.2368 72.1335 49.5253 72.5102 49.8826 72.8146C50.2396 72.5041 50.5348 72.1292 50.7528 71.7093C50.7528 71.7093 50.7528 71.7093 50.7528 71.5917" fill="#B4975A"/>
<path d="M51.8114 65.8762C51.5929 64.3165 50.9865 62.8366 50.0475 61.5723C49.1649 62.843 48.5856 64.2993 48.3542 65.8291C48.3542 66.6052 49.9299 68.6512 49.9299 69.7566C49.9299 69.8127 49.9522 69.8666 49.9919 69.9063C50.0316 69.946 50.0854 69.9683 50.1416 69.9683C50.1977 69.9683 50.2516 69.946 50.2912 69.9063C50.3309 69.8666 50.3532 69.8127 50.3532 69.7566C50.3532 68.6512 51.9054 66.6052 51.9054 65.8291" fill="#B4975A"/>
<path d="M49.1541 69.7096C48.425 67.7811 47.155 66.6992 45.838 66.6992C45.3577 66.6992 44.8971 66.89 44.5575 67.2296C44.2179 67.5692 44.0271 68.0299 44.0271 68.5102C44.0271 68.9905 44.2179 69.451 44.5575 69.7906C44.8971 70.1302 45.3577 70.321 45.838 70.321C46.1177 70.3138 46.3852 70.2051 46.5906 70.0152C46.6735 69.9293 46.734 69.8243 46.7668 69.7095C46.7996 69.5947 46.8037 69.4736 46.7787 69.3568C46.7787 69.3568 46.7787 69.3568 46.6376 69.3568C46.4755 69.3568 46.3199 69.2923 46.2053 69.1777C46.0906 69.063 46.0262 68.9075 46.0262 68.7453C46.0262 68.5831 46.0906 68.4276 46.2053 68.3129C46.3199 68.1983 46.4755 68.1338 46.6376 68.1338C47.1297 68.214 47.5923 68.4211 47.9799 68.7345C48.3676 69.048 48.6669 69.4569 48.8484 69.9212C48.8714 69.9566 48.9027 69.9858 48.9396 70.0063C48.9765 70.0268 49.0178 70.0379 49.06 70.0388C49.1182 70.0329 49.1722 70.0056 49.2113 69.9621C49.2505 69.9186 49.272 69.8622 49.2717 69.8037" fill="#B4975A"/>
<path d="M54.2102 66.6956C52.8697 66.6956 51.5997 67.7775 50.8706 69.706C50.8668 69.7378 50.8703 69.7699 50.8808 69.8002C50.8913 69.8304 50.9085 69.8579 50.9311 69.8806C50.9538 69.9032 50.9813 69.9205 51.0115 69.9309C51.0418 69.9414 51.074 69.9449 51.1058 69.9411C51.1444 69.9385 51.1818 69.9265 51.2146 69.906C51.2474 69.8854 51.2747 69.8571 51.294 69.8236C51.4754 69.3593 51.7747 68.9502 52.1624 68.6367C52.55 68.3233 53.0127 68.1164 53.5047 68.0361C53.6668 68.0361 53.8224 68.1006 53.9371 68.2153C54.0517 68.33 54.1161 68.4855 54.1161 68.6476C54.1161 68.8098 54.0517 68.9653 53.9371 69.08C53.8224 69.1947 53.6668 69.2591 53.5047 69.2591C53.467 69.3732 53.4625 69.4956 53.4916 69.6121C53.5208 69.7287 53.5824 69.8346 53.6693 69.9176C53.8819 70.1109 54.158 70.2197 54.4454 70.2233C54.9257 70.2233 55.3863 70.0326 55.7259 69.6929C56.0655 69.3533 56.2563 68.8927 56.2563 68.4124C56.2563 67.9321 56.0655 67.4716 55.7259 67.132C55.3863 66.7923 54.9257 66.6016 54.4454 66.6016" fill="#B4975A"/>
</svg>
