<svg width="120" height="114" viewBox="0 0 120 114" fill="none" xmlns="http://www.w3.org/2000/svg">
<path d="M19.9741 95.9528H23.9468V113.495H19.9741V106.214H11.038V113.495H7.06519V95.9528H11.038V103.125H19.9741V95.9528Z" fill="white"/>
<path d="M39.8355 95.9528H43.8067V106.544C43.8067 108.751 43.5871 110.295 42.7031 111.29C41.1587 113.054 38.8409 113.712 35.5326 113.712C32.2242 113.712 29.9048 113.05 28.3604 111.29C27.4724 110.295 27.2568 108.751 27.2568 106.544V95.9528H31.228V106.435C31.228 109.524 32.2226 110.847 35.5326 110.847C38.8425 110.847 39.8355 109.524 39.8355 106.435V95.9528Z" fill="white"/>
<path d="M56.8293 95.9528H52.6313L44.5768 113.495H48.7691L50.4241 109.302H58.7023L60.4663 113.495H64.8798L56.8293 95.9528ZM51.7554 106.214L54.5115 99.4823L57.3807 106.214H51.7554Z" fill="white"/>
<path d="M87.8308 95.9528H91.9118L86.0644 113.495H81.2101L77.1283 100.366L73.5963 113.495H68.742L62.4539 95.9528H66.6462L71.0598 109.413L74.8105 95.9528H79.4445L83.7467 109.413L87.8308 95.9528Z" fill="white"/>
<path d="M101.732 96.0634H108.352V99.1522H101.842C98.9724 99.0416 97.4281 100.363 97.3207 103.125H108.355V106.214H97.3183C97.3183 109.413 98.6431 110.517 101.839 110.517H108.349V113.605H101.618C99.3026 113.605 97.5362 113.495 95.66 112.061C93.6749 110.627 92.7925 108.309 92.7925 105.11C92.7957 98.931 95.6609 96.0634 101.732 96.0634Z" fill="white"/>
<path d="M116.076 95.9528H111.882V113.495H116.076V95.9528Z" fill="white"/>
<path d="M71.637 78.9372L109.022 79.9762C108.409 81.0257 107.925 81.9533 107.35 82.8203C105.26 85.9688 102.736 88.658 99.3576 90.4954C97.6776 91.4101 95.9112 91.314 94.1238 91.3342C91.4039 91.3657 88.9804 90.3283 86.573 89.2513C82.3241 87.3501 78.6226 84.6134 75.0664 81.6554C74.004 80.7698 72.8988 79.9342 71.637 78.9372Z" fill="white"/>
<path d="M119.163 47.6613C119.381 48.7293 119.648 49.7175 119.775 50.7226C120.306 54.9448 119.917 59.0701 118.383 63.0679C116.704 67.4386 113.632 70.5758 109.609 72.7943C106.375 74.5768 102.929 75.8524 99.1824 75.9428C94.1076 76.0647 89.0313 76.1043 83.9549 76.1414C81.1874 76.1618 78.42 76.14 75.6525 76.076C74.2058 76.0445 72.7615 75.8927 71.2527 75.7902C73.0562 73.3853 112.701 50.1066 119.163 47.6613Z" fill="white"/>
<path d="M68.1777 71.0689C68.5943 70.0799 68.9657 69.0684 69.4347 68.1053C73.3445 60.0903 77.7411 52.341 82.271 44.666C87.0866 36.5033 92.3171 28.6159 98.0635 21.0765C98.9831 19.8704 100.033 18.7627 101.008 17.597C101.566 16.931 102.138 16.9592 102.674 17.5655C104.193 19.2939 105.802 20.9602 107.155 22.813C109.192 25.599 110.708 28.6692 111.265 32.1325C112.064 37.1031 111.133 41.6523 107.945 45.6468C105.76 48.3852 103.055 50.5343 100.238 52.5743C92.464 58.2053 84.2109 63.0693 75.8577 67.7605C73.8265 68.9021 71.6992 69.8741 69.6051 70.9026C69.2369 71.0834 68.8179 71.1609 68.4232 71.2861L68.1777 71.0689Z" fill="white"/>
<path d="M87.5611 17.9351C87.2971 22.8896 85.9901 27.5348 84.2358 32.0807C82.2635 37.1902 79.4888 41.8911 76.7553 46.6042C72.9367 53.1886 69.0115 59.71 65.13 66.2564C64.8975 66.648 64.686 67.0686 64.3776 67.3931C64.1548 67.628 63.7592 67.8823 63.4944 67.8339C63.2861 67.796 63.0391 67.318 63.0165 67.0201C62.9026 65.5064 62.838 63.9879 62.7888 62.471C62.6483 58.1204 62.4659 53.7706 62.4045 49.4184C62.3028 42.1987 62.2778 34.9774 62.231 27.756C62.2003 23.0107 63.0035 18.3687 64.2847 13.8316C65.5312 9.41483 67.049 5.07475 68.4238 0.693499C68.5926 0.155833 68.8824 -0.00159127 69.4063 0.0185914C76.92 0.307607 84.503 5.07879 86.5568 12.3098C87.0727 14.1335 87.2358 16.0573 87.5611 17.9351Z" fill="white"/>
<path d="M32.559 17.8809C32.4589 8.71963 38.7285 2.59944 46.5182 0.623966C47.8019 0.301044 49.1493 0.226772 50.4636 0.0201016C51.0884 -0.0783897 51.4146 0.187214 51.5994 0.769281C52.8597 4.74688 54.2482 8.68814 55.3664 12.7053C56.2253 15.7892 56.9672 18.9393 57.3604 22.1104C57.7641 25.3598 57.7794 28.6706 57.7867 31.9547C57.8004 37.8642 57.7189 43.7753 57.6042 49.6847C57.5299 53.5461 57.3338 57.405 57.1804 61.2647C57.1061 63.1466 57.0238 65.0284 56.9002 66.9078C56.8784 67.2404 56.6363 67.5593 56.4966 67.8838C56.1567 67.6739 55.6941 67.544 55.4971 67.238C54.3734 65.5079 53.2682 63.7617 52.2372 61.9752C47.5734 53.8892 42.8555 45.8291 38.32 37.6753C35.4944 32.5892 33.6683 27.1084 32.8142 21.3346C32.6438 20.1971 32.639 19.033 32.559 17.8809Z" fill="white"/>
<path d="M51.7433 71.3573C50.999 71.0861 50.3491 70.9392 49.788 70.6308C44.79 67.8908 39.7378 65.2388 34.8407 62.3276C30.2019 59.5699 25.6826 56.6014 21.1972 53.5926C18.0995 51.5138 15.1205 49.2622 12.6469 46.4019C8.9761 42.1555 7.74737 37.285 8.77185 31.83C9.6284 27.2583 12.039 23.4599 14.9704 19.9626C15.6742 19.1283 16.4395 18.3479 17.2599 17.6279C18.1609 16.8335 18.3094 16.8262 19.1022 17.7643C20.7669 19.7366 22.4929 21.6773 23.9525 23.7965C27.9083 29.5381 31.8989 35.2667 35.5778 41.1843C40.8802 49.7046 45.7625 58.4676 50.2248 67.4734C50.7092 68.4494 51.1128 69.4626 51.5359 70.4653C51.6247 70.6744 51.6416 70.9157 51.7433 71.3573Z" fill="white"/>
<path d="M1.00866 47.5858C17.2106 56.4435 33.498 65.0994 48.9088 75.6848C48.4082 75.7866 48.0781 75.9044 47.7446 75.9133C44.5227 76.0005 41.2999 76.0691 38.0779 76.1434C36.9824 76.1684 35.8869 76.2185 34.7913 76.212C30.6523 76.1878 26.5116 76.1975 22.3741 76.0974C16.8449 75.9634 11.8105 74.2406 7.43888 70.862C3.50567 67.8257 1.20887 63.7351 0.400753 58.8138C-0.152254 55.4489 -0.164364 52.1002 0.562215 48.7612C0.620341 48.4972 0.693 48.2348 0.77696 47.9781C0.815711 47.874 0.896441 47.7763 1.00866 47.5858Z" fill="white"/>
<path d="M48.3436 78.9372C47.0753 79.9415 45.9217 80.8118 44.8173 81.7369C41.1037 84.8442 37.1624 87.5931 32.7222 89.5888C29.8215 90.8934 26.8288 91.5409 23.6286 91.3406C21.7089 91.2212 20.1459 90.3468 18.658 89.2941C15.4401 87.0167 13.1336 83.9481 11.2469 80.5348C11.1759 80.4065 11.1589 80.2491 11.0774 79.9697L48.3436 78.9372Z" fill="white"/>
</svg>
