<svg width="160" height="91" viewBox="0 0 160 91" fill="none" xmlns="http://www.w3.org/2000/svg">
<path d="M49.091 62.5174C47.5293 62.2377 46.1656 61.7832 45.0118 61.1421C43.8579 60.5011 42.9488 59.6736 42.2845 58.6713C41.6202 57.6689 41.2938 56.4335 41.2938 54.9999C41.2938 54.1841 41.2938 53.4615 41.2938 52.8205C41.2938 52.1794 41.2938 51.585 41.2938 51.0372C41.2938 50.4895 41.3055 49.965 41.3288 49.4522C41.3521 48.9393 41.3638 48.4149 41.3638 47.8671C41.3638 46.2237 41.3521 44.895 41.3288 43.8694C41.3055 42.8554 41.2705 42.0862 41.2239 41.585C41.795 41.6316 42.3778 41.6666 42.9722 41.7016C43.5666 41.7365 44.1493 41.7482 44.7088 41.7482C45.2798 41.7482 45.8626 41.7365 46.457 41.7016C47.0514 41.6783 47.6342 41.6316 48.2053 41.585C47.9255 43.5547 47.7507 45.3846 47.6924 47.0862C47.6342 48.7762 47.6109 50.5011 47.6109 52.2494C47.6109 54.0908 47.7973 55.5943 48.1586 56.7249C48.5199 57.8671 49.0677 58.7412 49.7787 59.3589C50.5013 59.9883 51.3754 60.3962 52.4127 60.5943C53.45 60.7925 54.6621 60.8974 56.0374 60.8974C57.7274 60.8974 59.0444 60.5943 60.0001 59.9883C60.9558 59.3822 61.6785 58.5664 62.168 57.5407C62.6575 56.5267 62.9605 55.3729 63.0771 54.0559C63.182 52.7389 63.2402 51.3752 63.2402 49.9533C63.2402 48.5547 63.2053 47.1561 63.147 45.7575C63.0887 44.3706 62.9955 42.972 62.8789 41.5734C63.2752 41.62 63.6481 41.655 64.0211 41.6899C64.3824 41.7249 64.7204 41.7365 65.0351 41.7365C65.3964 41.7365 65.7577 41.7249 66.0957 41.6899C66.4337 41.6666 66.7833 41.62 67.1447 41.5734C67.0864 42.0163 67.0398 42.6223 66.9931 43.3799C66.9349 44.1258 66.8882 44.9999 66.83 45.979C66.7717 46.9696 66.7367 48.0536 66.6901 49.2424C66.6551 50.4312 66.6318 51.6899 66.6318 53.0069C66.6318 56.5384 65.5712 59.0792 63.4617 60.606C61.3405 62.1445 58.2519 62.9137 54.161 62.9137C52.3311 62.937 50.6528 62.7971 49.091 62.5174Z" fill="white"/>
<path d="M153.38 45.5468C153.322 44.2415 153.229 42.9244 153.1 41.6074C153.578 41.654 154.091 41.689 154.662 41.724C155.222 41.7589 155.851 41.7706 156.55 41.7706C157.25 41.7706 157.879 41.7589 158.438 41.724C158.998 41.7007 159.522 41.654 160 41.6074C159.907 42.9244 159.825 44.2415 159.779 45.5468C159.732 46.8522 159.709 48.344 159.709 50.034V54.1715C159.709 55.8615 159.732 57.3533 159.779 58.6587C159.825 59.9641 159.907 61.2461 160 62.5049C159.522 62.4699 158.998 62.4466 158.438 62.4466C157.879 62.4466 157.25 62.4466 156.55 62.4466C155.851 62.4466 155.21 62.4466 154.662 62.4466C154.103 62.4466 153.59 62.4699 153.1 62.5049C153.217 61.2461 153.31 59.9641 153.38 58.6587C153.438 57.3533 153.473 55.8498 153.473 54.1715V50.034C153.473 48.344 153.438 46.8522 153.38 45.5468Z" fill="white"/>
<path d="M26.1888 46.7007C25.3963 45.4303 24.289 44.4279 22.8555 43.6704C21.4103 42.9128 19.7086 42.3883 17.7156 42.0736C15.7343 41.7589 13.5315 41.6074 11.1072 41.6074C9.24243 41.6074 7.73893 41.6307 6.58508 41.689C5.43124 41.7473 4.39394 41.7706 3.46154 41.7706C2.75058 41.7706 2.12121 41.7589 1.56177 41.724C1.00233 41.7007 0.477856 41.654 0 41.6074C0.0932401 42.6913 0.174826 43.7753 0.233101 44.8475C1.62005 43.9151 5.86247 43.5771 6.67832 43.5188V43.5072C7.331 43.4606 7.96037 43.4256 8.58975 43.4023C9.21912 43.379 10.0466 43.3557 11.0606 43.3557C12.5175 43.3557 13.8345 43.5422 15.0117 43.9151C16.1888 44.2881 17.2028 44.8242 18.042 45.5235C18.8811 46.2228 19.5338 47.0736 20 48.0643C20.4662 49.055 20.6993 50.1855 20.6993 51.4326C20.6993 54.5911 19.7786 56.9571 17.9254 58.5188C16.0723 60.0806 13.5548 60.8615 10.3846 60.8615C9.51049 60.8615 8.78788 60.8382 8.19347 60.8265C7.61072 60.8032 7.0979 60.7799 6.67832 60.7566C6.67832 60.6167 6.66667 60.3021 6.64336 59.8125C6.62005 59.323 6.60839 58.7869 6.60839 58.2042V56.3743V54.8242V49.4163V47.9011L6.57343 46.0829C6.57343 45.4769 6.59674 44.9291 6.6317 44.4396C6.64336 44.3114 6.65501 44.1948 6.65501 44.0899C5.75758 45.034 1.59674 48.9967 0.37296 50.1389V54.1599C0.37296 55.8498 0.337995 57.3417 0.27972 58.647C0.20979 59.9524 0.128205 61.2345 0.0116553 62.4932C0.489511 62.4582 1.01399 62.4349 1.57343 62.4349C2.13287 62.4349 2.77389 62.4349 3.47319 62.4349C4.56876 62.4349 5.86247 62.4466 7.35431 62.4582C8.84615 62.4699 10.641 62.4815 12.7622 62.4815C14.7552 62.4815 16.6434 62.2251 18.4033 61.7123C20.1632 61.2112 21.7133 60.4769 23.0536 59.5095C24.3939 58.5421 25.4429 57.3883 26.2238 56.0247C26.993 54.6727 27.3893 53.1459 27.3893 51.4559C27.3776 49.5678 26.9814 47.9711 26.1888 46.7007Z" fill="white"/>
<path d="M139.441 58.204C138.45 56.5024 132.191 45.0455 130.396 41.5024C129.988 40.7797 128.846 38.4954 128.765 38.4954C128.741 38.4954 127.553 40.9313 127.18 41.5024C124.65 46.2576 117.051 59.4045 116.48 60.3252C115.921 61.2576 115.466 61.9919 115.128 62.5163C115.525 62.4814 115.886 62.4581 116.224 62.4581C116.562 62.4581 116.9 62.4581 117.238 62.4581C117.576 62.4581 117.902 62.4581 118.229 62.4581C118.555 62.4581 118.893 62.4814 119.231 62.5163C119.627 61.5257 120.058 60.5233 120.536 59.4744C121.014 58.4487 125.781 49.3112 127.168 47.3648C129.208 50.6049 132.949 58.4487 133.427 59.4744C133.905 60.5117 134.371 61.5257 134.825 62.5163C135.42 62.4814 136.026 62.4581 136.62 62.4581C137.226 62.4581 137.821 62.4581 138.415 62.4581C139.009 62.4581 139.604 62.4581 140.21 62.4581C140.816 62.4581 141.457 62.4814 142.133 62.5163C141.329 61.3275 140.431 59.894 139.441 58.204Z" fill="white"/>
<path d="M103.461 54.2085C102.914 53.5791 102.238 53.043 101.457 52.6467C100.676 52.2388 99.8368 51.9474 98.9743 51.7493C98.1118 51.5512 97.3426 51.4463 96.7016 51.4346V51.3763C97.3426 51.2948 98.0769 51.1432 98.8811 50.9218C99.6853 50.7003 100.443 50.3973 101.13 50.001C101.818 49.6048 102.401 49.1036 102.89 48.5092C103.368 47.9031 103.613 47.1922 103.613 46.353C103.613 45.5139 103.403 44.8029 103.007 44.1969C102.599 43.5908 102.016 43.1129 101.247 42.74C100.489 42.3554 99.592 42.0756 98.5431 41.9008C97.5058 41.7143 96.3519 41.6211 95.0815 41.6211C93.8694 41.6211 89.5221 41.6444 88.1934 41.7027C86.8647 41.761 85.606 41.7843 84.3939 41.7843C83.6946 41.7843 83.0535 41.7726 82.4941 41.7376C81.9347 41.7143 81.4102 41.6677 80.9323 41.6211C81.0605 42.9381 81.1421 44.2551 81.2121 45.5605C81.2703 46.8659 81.3053 48.3577 81.3053 50.0477V54.1852C81.3053 55.8752 81.2703 57.367 81.2121 58.6724C81.1538 59.9777 81.0605 61.2598 80.9323 62.5185C81.4102 62.4836 82.0396 62.4603 82.8438 62.4603C83.648 62.4603 84.4172 62.4603 85.1864 62.4603C86.2587 62.4603 87.2727 62.4719 88.24 62.4836C89.2074 62.4952 93.3333 62.5069 94.4521 62.5069C95.7109 62.5069 96.9347 62.4136 98.1118 62.2155C99.3006 62.029 100.338 61.691 101.247 61.2015C102.156 60.712 102.89 60.0826 103.438 59.3134C103.974 58.5442 104.254 57.6118 104.254 56.5162C104.266 55.6188 103.998 54.8379 103.461 54.2085ZM97.2843 58.5092C97.0279 59.022 96.6899 59.4533 96.2703 59.8029C95.8391 60.1526 95.3496 60.4206 94.7901 60.6071C94.219 60.7936 93.6246 60.8868 93.0069 60.8868C92.5291 60.8868 89.0442 60.8868 88.7062 60.8635C88.3682 60.8519 88.0069 60.8519 87.6107 60.8286C87.5291 56.7027 87.4708 47.332 87.6806 43.4509C87.9603 43.4043 88.2167 43.381 88.4615 43.3693C88.7062 43.3577 92.2027 43.3577 92.8321 43.3577C93.6829 43.3577 94.3939 43.4626 94.9533 43.6491C95.5128 43.8355 95.979 44.092 96.3519 44.4066C96.7249 44.7213 96.9696 45.1059 97.1328 45.5372C97.296 45.9801 97.3659 46.4346 97.3659 46.9241C97.3659 47.5768 97.226 48.1479 96.9463 48.6374C96.6549 49.1269 96.2936 49.5232 95.8391 49.8379C95.3846 50.1526 94.8717 50.3857 94.289 50.5488C93.7062 50.712 93.1235 50.7936 92.5291 50.7936H89.3939V52.5535C90.5244 52.5418 92.1794 52.5418 92.4475 52.5418C94.1491 52.5418 95.4428 52.8915 96.3286 53.5908C97.2144 54.2901 97.6689 55.339 97.6689 56.761C97.6689 57.4136 97.5407 58.008 97.2843 58.5092Z" fill="white"/>
<path d="M128.753 38.4615L115.256 15.8858L127.797 27.8322L152.098 0L128.753 38.4615Z" fill="#EC1B2E"/>
<path d="M29.3705 84.1484C28.881 84.1251 28.3915 84.1251 27.8903 84.1251C27.4008 84.1251 26.9113 84.1251 26.4101 84.1368C25.9206 84.1484 25.4311 84.1717 24.9299 84.195V85.3023C24.9299 86.3745 24.9416 87.3302 24.9649 88.1694C24.9882 89.0086 25.0348 89.8244 25.0931 90.6286C24.8717 90.5937 24.6386 90.582 24.3705 90.582C24.1141 90.582 23.8227 90.582 23.4964 90.582C23.17 90.582 22.8787 90.582 22.6222 90.582C22.3658 90.582 22.1211 90.5937 21.8996 90.6286C21.9579 89.8244 21.9929 89.0086 22.0162 88.1694C22.0395 87.3302 22.0628 86.3862 22.0628 85.3023V82.6566C22.0628 81.5843 22.0395 80.6286 22.0162 79.7895C21.9929 78.9503 21.9462 78.1111 21.8996 77.272C22.1211 77.3069 22.3542 77.3302 22.6222 77.3536C22.8787 77.3769 23.17 77.3885 23.4964 77.3885C23.8227 77.3885 24.1141 77.3769 24.3705 77.3536C24.6269 77.3302 24.8717 77.2953 25.0931 77.272C25.0232 78.1111 24.9882 78.9503 24.9532 79.7661C24.9299 80.5937 24.9183 81.5494 24.9183 82.6216C25.2563 82.6449 25.6642 82.6449 26.1304 82.6566C26.6083 82.6682 27.191 82.6682 27.8903 82.6682C28.5896 82.6682 29.1607 82.6682 29.6036 82.6566C30.0465 82.6449 30.4544 82.6449 30.8274 82.6216C30.8274 81.5494 30.8157 80.6053 30.7808 79.7661C30.7458 78.9386 30.7108 78.1111 30.6642 77.272C30.8856 77.3069 31.1187 77.3302 31.3752 77.3536C31.6316 77.3769 31.9229 77.3885 32.2609 77.3885C32.5756 77.3885 32.867 77.3769 33.1351 77.3536C33.3915 77.3302 33.6362 77.2953 33.8577 77.272C33.7994 78.1111 33.7528 78.9619 33.7295 79.7895C33.7062 80.6286 33.6945 81.5843 33.6945 82.6682V85.3023C33.6945 86.3745 33.7062 87.3302 33.7295 88.1694C33.7528 89.0086 33.7994 89.8244 33.8577 90.6286C33.6362 90.5937 33.4031 90.582 33.1351 90.582C32.8786 90.582 32.5756 90.582 32.2609 90.582C31.9346 90.582 31.6432 90.582 31.3752 90.582C31.1187 90.582 30.874 90.5937 30.6642 90.6286C30.7108 89.8244 30.7574 89.0086 30.7808 88.1694C30.8041 87.3302 30.8274 86.3745 30.8274 85.3023V84.195C30.3495 84.1717 29.86 84.1601 29.3705 84.1484Z" fill="white"/>
<path d="M41.2935 81.2802C41.6431 80.4294 42.156 79.7068 42.797 79.0658C43.438 78.4364 44.2305 77.9352 45.1513 77.5739C46.0604 77.2126 47.086 77.0261 48.2166 77.0261C49.2539 77.0261 50.2096 77.166 51.107 77.4457C51.9928 77.7371 52.7737 78.1567 53.4264 78.7278C54.079 79.2872 54.6035 80.0098 54.9881 80.8839C55.3727 81.7581 55.5592 82.772 55.5592 83.9375C55.5592 84.9049 55.3727 85.814 54.9998 86.6532C54.6268 87.4923 54.1257 88.2266 53.473 88.856C52.8203 89.4853 52.0394 89.9748 51.142 90.3245C50.2329 90.6741 49.2422 90.849 48.1583 90.849C47.1326 90.849 46.1769 90.7208 45.2795 90.4644C44.3704 90.2196 43.5895 89.8 42.9252 89.2406C42.2609 88.6811 41.7247 87.9585 41.3401 87.0844C40.9555 86.2103 40.7574 85.173 40.7574 83.9492C40.7574 83.0051 40.9438 82.1077 41.2935 81.2802ZM52.0627 81.2802C51.8529 80.6159 51.5732 80.0448 51.2119 79.5786C50.8389 79.1124 50.396 78.7511 49.8716 78.5063C49.3471 78.2499 48.776 78.1217 48.1583 78.1217C47.494 78.1217 46.9112 78.2849 46.3867 78.5996C45.8623 78.9142 45.4194 79.3455 45.0581 79.8933C44.6968 80.4294 44.4287 81.0704 44.2305 81.793C44.0441 82.5156 43.9508 83.2965 43.9508 84.124C43.9508 85.1613 44.0557 86.0238 44.2772 86.7347C44.4986 87.4457 44.8016 88.0168 45.1746 88.448C45.5476 88.8793 45.9788 89.194 46.4683 89.3804C46.9578 89.5786 47.4706 89.6718 48.0184 89.6718C48.6012 89.6718 49.149 89.5436 49.6734 89.2989C50.2096 89.0541 50.6641 88.6811 51.0604 88.18C51.4567 87.6788 51.7713 87.0378 52.0044 86.2569C52.2375 85.4877 52.3657 84.5669 52.3657 83.5063C52.3774 82.7021 52.2725 81.9445 52.0627 81.2802Z" fill="white"/>
<path d="M62.5873 79.7895C62.564 78.9503 62.5174 78.1111 62.4591 77.272C62.6806 77.3069 62.9137 77.3302 63.1817 77.3536C63.4381 77.3769 63.7295 77.3885 64.0559 77.3885C64.3705 77.3885 64.6736 77.3769 64.93 77.3536C65.1864 77.3302 65.4311 77.2953 65.6526 77.272C65.5943 78.1111 65.5594 78.9503 65.5244 79.7895C65.5011 80.6286 65.4894 81.5843 65.4894 82.6566V85.2906C65.4894 86.0249 65.4894 86.7358 65.5011 87.4235C65.5127 88.1111 65.5244 88.7055 65.536 89.2067C66.2703 89.2067 67.0046 89.1834 67.7505 89.1484C68.4848 89.1135 69.2307 89.0552 69.9766 88.9619C69.9533 89.1018 69.93 89.23 69.9183 89.3466C69.9067 89.4631 69.895 89.6263 69.895 89.8361C69.895 90.0459 69.9067 90.209 69.9183 90.3256C69.93 90.4421 69.9533 90.5354 69.9766 90.617C69.627 90.6053 69.1957 90.5936 68.6829 90.582C68.1701 90.5703 67.4708 90.5703 66.5733 90.5703C65.7925 90.5703 65.1398 90.5703 64.6503 90.5703C64.1724 90.5703 63.7878 90.5703 63.4964 90.5703C63.205 90.5703 62.9836 90.5703 62.8321 90.582C62.6806 90.5936 62.5524 90.5936 62.4475 90.617C62.5057 89.8128 62.5407 88.9969 62.5757 88.1577C62.599 87.3186 62.6106 86.3745 62.6106 85.2906V82.6449C62.6339 81.5727 62.6223 80.6286 62.5873 79.7895Z" fill="white"/>
<path d="M76.9464 79.7895C76.9231 78.9503 76.8881 78.1111 76.8298 77.272C77.0513 77.3069 77.2844 77.3302 77.5408 77.3536C77.7972 77.3769 78.0886 77.3885 78.4149 77.3885C78.8461 77.3885 79.324 77.3769 79.8485 77.3302C80.3846 77.2953 81.0723 77.272 81.9231 77.272C83.0419 77.272 84.0559 77.3769 84.965 77.575C85.8741 77.7731 86.655 78.1111 87.3193 78.589C87.972 79.0668 88.4848 79.7195 88.8461 80.5237C89.2075 81.3396 89.3823 82.3536 89.3823 83.5773C89.3823 84.6496 89.2075 85.617 88.8461 86.4911C88.4965 87.3652 88.007 88.1111 87.3893 88.7172C86.7716 89.3349 86.0606 89.8011 85.2564 90.1274C84.4522 90.4538 83.5897 90.617 82.669 90.617C81.7016 90.617 80.8625 90.6053 80.1748 90.5936C79.4872 90.5703 78.9044 90.5703 78.3916 90.5703C78.0769 90.5703 77.7855 90.5703 77.5175 90.5703C77.2611 90.5703 77.0163 90.582 76.8065 90.617C76.8648 89.8128 76.8998 88.9969 76.9231 88.1577C76.9464 87.3186 76.958 86.3745 76.958 85.2906V82.6449C76.9813 81.5727 76.9697 80.6286 76.9464 79.7895ZM79.8485 86.7125V87.878C79.8485 88.251 79.8601 88.589 79.8601 88.9037C79.8718 89.2184 79.8718 89.4165 79.8718 89.5097C80.0699 89.5214 80.2914 89.533 80.5711 89.533C80.8392 89.5447 81.1772 89.5447 81.5734 89.5447C83.0303 89.5447 84.1841 89.0435 85.035 88.0529C85.8974 87.0622 86.317 85.547 86.317 83.5424C86.317 82.7382 86.2121 82.0272 86.0023 81.3862C85.7809 80.7568 85.4895 80.209 85.0932 79.7661C84.7086 79.3233 84.2424 78.9853 83.6946 78.7405C83.1585 78.4957 82.5408 78.3792 81.8764 78.3792C81.4102 78.3792 81.0373 78.3908 80.7459 78.4025C80.4545 78.4258 80.1632 78.4491 79.8718 78.4724C79.8718 78.5657 79.8601 78.7638 79.8601 79.0668C79.8601 79.3815 79.8485 79.7195 79.8485 80.1158V81.2813V82.2487V85.7102V86.7125Z" fill="white"/>
<path d="M96.3752 79.7895C96.3402 78.9503 96.3053 78.1111 96.247 77.272C96.4684 77.3069 96.7132 77.3302 96.9696 77.3536C97.226 77.3769 97.5174 77.3885 97.8437 77.3885C98.1701 77.3885 98.4614 77.3769 98.7179 77.3536C98.9743 77.3302 99.219 77.2953 99.4405 77.272C99.3938 78.1111 99.3472 78.9619 99.3239 79.7895C99.3006 80.6286 99.2773 81.5843 99.2773 82.6566V85.3023C99.2773 86.3745 99.289 87.3302 99.3239 88.1694C99.3472 89.0086 99.3938 89.8244 99.4405 90.6286C99.219 90.5937 98.9743 90.582 98.7179 90.582C98.4614 90.582 98.1701 90.582 97.8437 90.582C97.5174 90.582 97.226 90.582 96.9696 90.582C96.7132 90.582 96.4684 90.5937 96.247 90.6286C96.2936 89.8244 96.3402 89.0086 96.3752 88.1694C96.3985 87.3302 96.4218 86.3862 96.4218 85.3023V82.6566C96.4102 81.5727 96.3985 80.6286 96.3752 79.7895Z" fill="white"/>
<path d="M107.191 78.8804C107.168 78.2743 107.156 77.7382 107.133 77.272C107.494 77.3536 107.786 77.3885 108.007 77.3885C108.217 77.3885 108.52 77.3536 108.881 77.272C110.291 78.8337 111.678 80.3955 113.054 81.899C114.429 83.4142 115.839 84.9526 117.284 86.526V84.8361V82.948C117.284 82.3069 117.284 81.6892 117.273 81.0715C117.261 80.4538 117.261 79.8827 117.249 79.3699C117.238 78.8454 117.238 78.4025 117.214 78.0295C117.191 77.6566 117.168 77.4002 117.145 77.272C117.506 77.3536 117.809 77.3885 118.019 77.3885C118.24 77.3885 118.531 77.3536 118.893 77.272C118.823 78.4491 118.765 79.5097 118.73 80.4654C118.683 81.4095 118.648 82.3186 118.625 83.1577C118.601 83.9969 118.59 84.8361 118.578 85.6636C118.566 86.4794 118.566 87.3536 118.566 88.2976V90.6286C118.31 90.5937 118.042 90.582 117.774 90.582C117.494 90.582 117.238 90.5937 117.016 90.6286C114.359 87.5284 111.538 84.3932 108.555 81.2463C108.543 81.6193 108.52 82.0039 108.52 82.3652C108.508 82.7498 108.508 83.1344 108.508 83.5191V85.7801C108.508 86.5494 108.508 87.2137 108.52 87.7615C108.52 88.2976 108.531 88.7638 108.543 89.1368C108.555 89.5097 108.566 89.8128 108.578 90.0575C108.59 90.3023 108.601 90.4888 108.625 90.6286C108.462 90.5937 108.322 90.582 108.159 90.582C108.007 90.582 107.855 90.582 107.716 90.582C107.424 90.582 107.121 90.5937 106.83 90.6286C106.853 90.5237 106.888 90.1508 106.935 89.5214C106.97 88.892 107.005 88.1111 107.063 87.202C107.11 86.2929 107.145 85.3023 107.179 84.23C107.214 83.1577 107.226 82.1321 107.226 81.1414C107.226 80.2323 107.214 79.4864 107.191 78.8804Z" fill="white"/>
<path d="M136.34 78.7632C135.723 78.4019 134.965 78.2271 134.068 78.2271C133.473 78.2271 132.879 78.3553 132.296 78.6C131.702 78.8564 131.189 79.2294 130.723 79.7306C130.256 80.2434 129.883 80.8728 129.604 81.6187C129.324 82.3763 129.172 83.262 129.172 84.2877C129.172 85.0569 129.277 85.7795 129.487 86.4322C129.697 87.0965 130.012 87.6676 130.408 88.1455C130.816 88.635 131.305 89.008 131.888 89.276C132.471 89.5441 133.135 89.6839 133.881 89.6839C134.044 89.6839 134.242 89.6723 134.452 89.649C134.662 89.6257 134.872 89.614 135.07 89.5791C135.268 89.5441 135.454 89.5208 135.618 89.4742C135.781 89.4275 135.909 89.3809 135.991 89.3343C136.014 89.1828 136.026 88.9846 136.026 88.7515C136.037 88.5184 136.037 88.262 136.037 87.9823C136.037 86.9334 136.014 86.1758 135.979 85.6746C135.944 85.1735 135.909 84.8355 135.897 84.6606C136.026 84.6839 136.2 84.7073 136.422 84.7306C136.632 84.7539 136.935 84.7655 137.343 84.7655C137.809 84.7655 138.158 84.7539 138.392 84.7306C138.613 84.7189 138.788 84.6839 138.928 84.6606C138.904 84.7655 138.881 84.9287 138.858 85.1618C138.834 85.3949 138.823 85.663 138.811 85.966C138.799 86.269 138.788 86.5954 138.776 86.9334C138.776 87.2714 138.765 87.5977 138.765 87.9124V88.5534C138.765 88.8797 138.765 89.1828 138.776 89.4508C138.776 89.7306 138.788 89.9287 138.823 90.0336C137.96 90.2784 137.109 90.4765 136.235 90.6163C135.361 90.7562 134.499 90.8261 133.648 90.8261C132.541 90.8261 131.515 90.6746 130.571 90.3833C129.639 90.0919 128.834 89.6723 128.158 89.1129C127.471 88.5534 126.946 87.8658 126.573 87.0732C126.189 86.2807 126.002 85.3832 126.002 84.3926C126.002 83.1688 126.2 82.0849 126.62 81.1641C127.028 80.2434 127.587 79.4625 128.298 78.8564C129.021 78.2504 129.872 77.7842 130.851 77.4695C131.841 77.1548 132.902 77.0033 134.033 77.0033C135.012 77.0033 135.862 77.1082 136.585 77.3063C137.308 77.5045 138.019 77.7958 138.718 78.1688C138.613 78.5068 138.508 78.8331 138.415 79.1595C138.322 79.4742 138.24 79.8005 138.17 80.1501H137.902C137.471 79.5907 136.958 79.1129 136.34 78.7632Z" fill="white"/>
</svg>
