<svg width="180" height="96" viewBox="0 0 180 96" fill="none" xmlns="http://www.w3.org/2000/svg">
<path d="M133.862 0.195797H123.517V15.8596H115.176V25.6494H123.564V55.5202C123.544 57.9295 124.064 60.3127 125.086 62.4947C126.108 64.6767 127.605 66.6021 129.469 68.1295C131.782 70.059 134.566 71.3401 137.536 71.8418C138.724 72.0502 139.925 72.181 141.13 72.2334H141.914V61.817C141.914 61.817 141.389 61.817 141.13 61.817C140.008 61.7752 138.908 61.4869 137.909 60.9726C136.91 60.4583 136.037 59.7305 135.351 58.8409L135.296 58.7626C134.634 57.9165 134.187 56.9219 133.996 55.8648C133.916 55.449 133.871 55.0272 133.862 54.6039V25.6259H141.882V15.8282H133.862V0.195797Z" fill="#F7D509"/>
<path d="M42.7465 61.9585C45.6834 68.3807 51.1657 72.0617 57.7915 72.0617H58.4181C68.9363 71.6936 73.4161 65.1539 76.1103 59.3662L67.8241 54.5261C66.7198 56.719 63.8612 61.7784 57.8698 61.7784H57.6584C56.3064 61.7421 54.9942 61.3134 53.8817 60.5444C52.7692 59.7753 51.9045 58.6993 51.3929 57.4474C51.168 56.899 51.0638 56.3087 51.0874 55.7165V55.4894L51.2832 55.3798C52.8496 54.5026 65.3806 46.8352 68.0591 44.8772C71.6461 42.2379 73.4083 39.2852 74.1366 34.6958C74.2561 33.9184 74.3137 33.1327 74.3089 32.3462C74.3217 28.0138 72.6245 23.8513 69.5861 20.763C66.5476 17.6747 62.4133 15.91 58.0813 15.8523H58.003C55.1762 15.8332 52.3936 16.554 49.9316 17.943C47.4695 19.332 45.4137 21.341 43.9682 23.7703C41.7988 27.279 40.7023 31.6022 40.7023 36.6694L40.624 49.0751C40.632 51.195 40.7575 53.3129 41 55.4189C41.2378 57.6765 41.8271 59.883 42.7465 61.9585ZM50.9543 36.2543C50.9543 32.2679 52.0586 29.2056 54.087 27.5609C55.2511 26.5628 56.7443 26.0326 58.2771 26.0729C59.6767 26.1131 61.0212 26.6269 62.091 27.5302C63.1608 28.4336 63.8925 29.6731 64.1667 31.0461C64.4408 32.4715 64.3468 35.2597 60.6345 37.8755C56.7185 40.6167 53.2803 42.9036 51.5887 43.8591L50.9621 44.2115L50.9543 36.2543Z" fill="#F7D509"/>
<path d="M81.1306 61.9579C84.0675 68.3801 89.5498 72.0611 96.1678 72.0611H96.8021C107.383 71.6851 111.894 65.0124 114.604 59.115L106.216 54.502C105.112 56.6949 102.253 61.7778 96.2461 61.7778H96.0346C94.6827 61.7415 93.3705 61.3128 92.258 60.5438C91.1455 59.7747 90.2807 58.6987 89.7691 57.4468C89.5384 56.9 89.4314 56.3089 89.4558 55.7159V55.4888L89.6516 55.3792C91.218 54.502 103.749 46.8346 106.435 44.8766C110.022 42.2373 111.777 39.2847 112.505 34.6952C112.624 33.9178 112.682 33.1321 112.677 32.3456C112.705 28.0051 111.015 23.8297 107.977 20.7298C104.938 17.6299 100.798 15.8567 96.4575 15.7969H96.3792C93.5543 15.7924 90.7774 16.5266 88.3237 17.9265C85.8701 19.3264 83.8251 21.3434 82.3915 23.7775C80.2221 27.2862 79.1256 31.6094 79.1256 36.6766L79.0473 49.0823C79.0552 51.2023 79.1808 53.3201 79.4232 55.4262C79.661 57.6837 80.2503 59.8902 81.1697 61.9658M89.3305 36.2537C89.3305 32.2673 90.4348 29.205 92.4633 27.5603C93.6266 26.5609 95.1203 26.0305 96.6533 26.0723C98.0539 26.1122 99.3995 26.6257 100.471 27.5289C101.542 28.4322 102.275 29.6718 102.551 31.0455C102.825 32.4709 102.731 35.2591 99.0186 37.8749C95.1026 40.6161 91.6644 42.903 89.9649 43.8585L89.3462 44.2109L89.3305 36.2537Z" fill="#F7D509"/>
<path d="M163.005 15.178C158.945 15.1756 155.015 16.6068 151.907 19.2192L151.461 19.6187C148.675 22.13 146.818 25.5075 146.19 29.2049C146.119 29.573 146.072 29.9881 146.041 30.3483L156.591 32.5491C156.724 31.7659 156.833 31.2412 156.849 31.1394C157.014 30.209 157.361 29.3204 157.87 28.5247C158.38 27.729 159.041 27.0419 159.817 26.5029C160.802 25.9132 161.928 25.6019 163.075 25.6022C163.419 25.604 163.762 25.6328 164.101 25.6884C165.575 25.9093 166.92 26.6557 167.887 27.7898C168.854 28.9239 169.379 30.3694 169.364 31.8599V34.2095L169.043 34.2956C169.043 34.2956 165.699 35.1963 163.725 35.815L163.522 35.8777C162.527 36.1909 160.311 36.9976 160.138 37.0681C159.355 37.3657 158.776 37.6242 158.22 37.8513C155.918 38.8617 153.742 40.1364 151.735 41.6497L151.085 42.1745C150.646 42.5347 150.247 42.9107 149.871 43.2788C147.136 45.8916 145.462 49.4226 145.172 53.1939C144.569 59.2558 146.644 64.511 151.022 67.9883C153.398 69.8529 156.19 71.1157 159.159 71.6693C160.208 71.8694 161.272 71.9716 162.339 71.9748H162.488C162.989 71.9748 163.921 71.9356 164.274 71.8965C167.484 71.5971 170.562 70.466 173.202 68.6149C174.025 68.0462 174.789 67.3954 175.481 66.6726C178.473 63.6025 180 59.3028 180 53.891V31.9617C179.961 27.4749 178.144 23.1868 174.948 20.0376C171.751 16.8884 167.437 15.1352 162.95 15.1623M169.325 54.776C169.326 56.0443 168.966 57.2867 168.286 58.3575C167.606 59.4283 166.636 60.2833 165.488 60.8222L165.37 60.877C164.488 61.2911 163.525 61.5051 162.551 61.5036H162.347C161.34 61.4837 160.349 61.2418 159.446 60.7951C158.543 60.3483 157.75 59.7077 157.123 58.919L157.076 58.8564C156.428 58.0431 155.989 57.0829 155.8 56.0604C155.727 55.6675 155.685 55.2694 155.674 54.87C155.674 54.87 155.674 54.2042 155.674 54.0868C155.766 53.1034 156.064 52.1505 156.55 51.2907C157.036 50.4308 157.698 49.6835 158.494 49.0979C158.736 48.8942 159.003 48.6906 159.277 48.4948C162.113 46.6554 165.269 45.3643 168.581 44.6885L169.364 44.4849L169.325 54.776Z" fill="#F7D509"/>
<path d="M65.5606 82.9474C61.7706 82.0852 58.0783 80.8387 54.5412 79.2273C49.6798 77.0021 45.2102 74.0056 41.3053 70.3538C39.8799 69.038 38.8539 68.0903 37.2406 66.3282C35.9702 64.9271 34.7804 63.4549 33.6771 61.9188C29.5428 56.2052 26.5681 49.737 24.921 42.8795C24.921 42.7621 24.6156 41.5559 24.6156 41.5481C24.5373 41.1643 24.4511 40.8119 24.365 40.4751C31.1771 33.5427 36.5463 25.3277 40.1619 16.306L40.3812 15.8282H28.5707L28.3514 16.306C24.1457 25.5554 16.6662 33.0505 11.1213 37.7183L10.3929 38.3292V0H0V72.0533H10.3851V51.8L10.5965 51.6747C11.8888 50.8915 13.1967 49.9752 14.5125 49.0276L14.7553 48.8553C17.6844 58.0029 26.1036 78.5302 49.6463 89.3304C58.0603 93.373 67.2766 95.469 76.6114 95.4628C78.4441 95.4628 79.7442 95.4628 80.1984 95.4628C83.4195 95.3476 86.6244 94.9519 89.7768 94.2801C89.2051 91.9932 88.6412 89.7142 88.0773 87.4273C87.7483 86.088 87.4116 84.7409 87.0826 83.4017C79.9511 84.6716 72.6401 84.5359 65.5606 83.0022" fill="#F7D509"/>
<path d="M117.11 68.9681C116.361 68.9668 115.619 69.1134 114.927 69.3997C114.235 69.686 113.606 70.1062 113.077 70.6363L112.709 70.9339C112.082 71.4586 111.495 71.9677 111.385 72.046C110.602 72.6177 109.576 73.4636 109.231 73.7142C107.234 75.1944 105.19 76.471 104.391 76.9566C106.062 80.3347 107.725 83.7077 109.38 87.0754C111.456 85.8869 113.462 84.5794 115.387 83.1594C116.358 82.4467 117.188 81.8045 117.658 81.4129C118.81 80.4496 119.405 79.8466 120.603 78.9067C120.956 78.6356 121.274 78.3227 121.551 77.9747C121.835 77.6277 122.075 77.2461 122.263 76.8391C122.608 76.1039 122.784 75.3013 122.78 74.4896C122.775 73.7504 122.624 73.0196 122.337 72.3387C122.049 71.6579 121.63 71.0406 121.103 70.5219C120.576 70.0033 119.953 69.5936 119.267 69.3162C118.582 69.0388 117.849 68.8992 117.11 68.9054" fill="#F7D509"/>
<path d="M93.2856 81.7808C94.2097 85.4043 95.1365 89.0305 96.0659 92.6593C97.2094 92.3303 98.4076 91.9335 99.6607 91.4688C101.055 90.9519 102.347 90.4115 103.538 89.9024L98.6739 79.8071C97.969 80.1126 97.2328 80.418 96.4653 80.7078C95.3689 81.1307 94.3037 81.491 93.2856 81.8199" fill="#F7D509"/>
<path d="M87.0905 83.3544C87.9937 86.978 88.8918 90.6041 89.7846 94.2329C90.7166 94.0449 91.6721 93.8335 92.6589 93.5907C93.8572 93.3009 95.0085 92.9876 96.0814 92.6665L93.2933 81.788C92.3639 82.0804 91.3849 82.3415 90.3563 82.5712C89.2286 82.861 88.1321 83.1038 87.0905 83.3544Z" fill="black"/>
<path d="M98.6738 79.7682L103.537 89.8635C104.462 89.4406 105.394 89.002 106.326 88.5477C107.258 88.0935 108.385 87.5453 109.38 87.044L104.399 76.9252C103.545 77.3873 102.676 77.8416 101.767 78.2958C100.71 78.8206 99.6841 79.3061 98.6738 79.7682Z" fill="black"/>
</svg>
