<svg width="180" height="34" viewBox="0 0 180 34" fill="none" xmlns="http://www.w3.org/2000/svg">
<path d="M137.648 25.5003H133.413L133.356 34H123.884V0C123.887 0.0456861 131.678 0 135.53 0C145.49 0 151.413 3.54439 151.413 12.7507C151.413 21.1314 146.678 25.5003 137.648 25.5003ZM135.53 6.37586C135.033 6.37586 133.978 6.3408 133.413 6.37586V19.1244H135.53C140.574 19.1244 142.041 17.212 142.041 12.9525C142.041 8.83016 140.312 6.37586 135.53 6.37586ZM50.8238 34V20.1869H41.2933V34H31.7649V0H41.2933V13.8131H50.8238V0H60.3544V34H50.8238ZM67.7651 34V0H77.2935V34H67.7651ZM102.631 34H84.7053V0H94.2359V27.6241H103.765L102.631 34ZM106.942 34V0H116.47V34H106.942ZM164.12 8.49973V9.56326C164.12 14.7821 180 12.3852 180 23.3743C180 31.6169 174.334 34 166.236 34C163.049 34 157.906 33.4061 154.589 32.9375V25.5003C157.513 27.009 163.049 27.6241 166.236 27.6241C169.821 27.6241 170.472 26.4969 170.472 24.4367C170.472 18.5825 154.589 21.0995 154.589 9.56326C154.589 2.86547 161.116 0 168.949 0C174.499 0 175.36 0.514234 177.883 1.06353V7.43727C175.624 6.47786 172.469 6.37586 169.413 6.37586C166.626 6.37586 164.12 6.71373 164.12 8.49973ZM13.7648 25.5003H9.52841L9.47335 34H0V0C0.00423532 0.0456861 7.7951 0 11.6471 0C21.6065 0 27.5296 3.54439 27.5296 12.7507C27.5296 21.1314 22.7945 25.5003 13.7648 25.5003ZM11.6471 6.37586C11.1495 6.37586 10.0949 6.3408 9.52841 6.37586V19.1244H11.6471C16.6914 19.1244 18.1579 17.212 18.1579 12.9525C18.1579 8.83016 16.4277 6.37586 11.6471 6.37586Z" fill="#0065D3"/>
</svg>
