<svg width="160" height="72" viewBox="0 0 160 72" fill="none" xmlns="http://www.w3.org/2000/svg">
<path d="M2.09646 61.5358L3.14468 60.0044H10.7967L9.74268 61.5358H6.86588L1.92175 68.7827H0L4.94414 61.5358H2.09646Z" fill="white"/>
<path d="M10.7501 68.4175C10.488 68.5324 10.2174 68.6271 9.94063 68.7007C9.76592 68.7469 9.59122 68.7873 9.42234 68.8162C9.25347 68.8452 9.0904 68.8683 8.92734 68.8799H8.68859H8.44982C8.22923 68.8788 8.00911 68.8594 7.79176 68.822C7.59316 68.791 7.39811 68.7407 7.20942 68.6718C7.05459 68.604 6.91273 68.5101 6.79013 68.3944C6.67996 68.282 6.59815 68.1454 6.55136 67.9957C6.49849 67.8313 6.47292 67.6595 6.47566 67.4871C6.48217 67.2904 6.51749 67.0958 6.58049 66.9092C6.65692 66.6848 6.75036 66.4665 6.86001 66.2561C6.98415 66.0221 7.12021 65.7945 7.26765 65.5742C7.42489 65.3489 7.59959 65.1234 7.78594 64.9039C7.9723 64.6842 8.17612 64.4647 8.40905 64.2392C8.642 64.0139 8.87493 63.829 9.11952 63.6613C9.36572 63.4728 9.62449 63.301 9.89404 63.147C10.1476 63 10.4102 62.8688 10.6802 62.754C10.939 62.6409 11.2056 62.5463 11.4781 62.4709C11.746 62.4015 12.0137 62.3438 12.2701 62.3033C12.5126 62.2635 12.758 62.2422 13.0037 62.2397C13.2171 62.2388 13.4297 62.2601 13.6385 62.3033C13.8276 62.3425 14.0127 62.3987 14.1917 62.4709C14.3532 62.5355 14.4997 62.6319 14.6227 62.754C14.7282 62.8688 14.8111 63.0021 14.8673 63.147C14.9164 63.3139 14.9381 63.4877 14.9314 63.6613C14.916 63.857 14.8808 64.0505 14.8265 64.2392C14.7508 64.4647 14.6576 64.6842 14.5586 64.9039C14.4451 65.1375 14.3127 65.3618 14.1626 65.5742C14.0023 65.8135 13.8252 66.0413 13.6327 66.2561C13.4312 66.4851 13.2173 66.7031 12.9922 66.9092C12.7722 67.1169 12.5387 67.3099 12.2933 67.4871C12.0465 67.6731 11.7878 67.843 11.5188 67.9957C11.2627 68.1452 10.9983 68.2802 10.7268 68.4002L10.7501 68.4175ZM8.92152 67.4235C8.93871 67.4384 8.95842 67.4501 8.97975 67.4582H9.04381H9.1137C9.30625 67.4928 9.50349 67.4928 9.69604 67.4582C9.93085 67.4138 10.1596 67.342 10.3774 67.2443C10.6188 67.1465 10.8475 67.0204 11.0587 66.8688C11.2834 66.7164 11.4922 66.5422 11.6818 66.3486C11.7518 66.2849 11.8162 66.2153 11.8741 66.1405L12.0604 65.9094C12.1334 65.8329 12.2015 65.7518 12.2642 65.6666L12.439 65.4182C12.5466 65.2509 12.6402 65.075 12.7184 64.8923C12.7857 64.7341 12.8365 64.5695 12.8698 64.4011C12.9083 64.263 12.9083 64.1172 12.8698 63.9792C12.8255 63.8568 12.736 63.7555 12.6194 63.696L12.5321 63.6498H12.439H12.3283H12.2234C12.1306 63.6382 12.0367 63.6382 11.944 63.6498C11.8437 63.6567 11.7444 63.6722 11.647 63.696C11.5364 63.7155 11.4275 63.7425 11.3208 63.777C11.2102 63.8116 11.1053 63.8579 10.9947 63.9041C10.7597 64.0052 10.5354 64.1291 10.325 64.274C10.1152 64.4163 9.92015 64.5789 9.74263 64.7593L9.53299 64.979L9.34081 65.2043C9.27771 65.2721 9.22118 65.3457 9.17193 65.424L9.03217 65.6435C8.90463 65.8251 8.7954 66.0187 8.70605 66.2214C8.63398 66.3903 8.58123 66.5668 8.54882 66.7473C8.51737 66.894 8.52951 67.0467 8.58376 67.1865C8.64404 67.3073 8.74499 67.4034 8.86911 67.4582H8.92152" fill="white"/>
<path d="M18.3904 69.6426C18.0958 69.9415 17.772 70.2106 17.4238 70.446C17.0835 70.6579 16.715 70.8213 16.3289 70.9314C15.9272 71.044 15.5118 71.1004 15.0943 71.099H11.7225L12.6078 69.7871H15.6766C15.8515 69.7724 16.0249 69.7434 16.195 69.7004C16.3546 69.6585 16.5076 69.5943 16.6492 69.5098C16.7988 69.4224 16.9359 69.3154 17.0569 69.1919C17.1871 69.0631 17.3042 68.9218 17.4062 68.77H16.0144C15.7738 68.77 15.5466 68.77 15.3331 68.77C15.1375 68.7604 14.943 68.7372 14.7508 68.7006C14.588 68.6839 14.434 68.6194 14.3082 68.5158C14.1806 68.4029 14.0879 68.2566 14.0403 68.0939C13.9915 67.9388 13.9699 67.7765 13.9762 67.6142C13.9776 67.4363 14.0031 67.2594 14.052 67.0883C14.1073 66.8915 14.1754 66.6985 14.2558 66.5104C14.341 66.3111 14.4402 66.118 14.5528 65.9325L14.5993 65.8632C14.6112 65.8471 14.621 65.8296 14.6284 65.8112C14.6284 65.8112 14.6284 65.8112 14.6284 65.7764C14.6554 65.7485 14.6789 65.7175 14.6983 65.684L14.7565 65.5915C14.7856 65.5544 14.8129 65.5159 14.8381 65.476L14.908 65.372L15.0012 65.2563L15.0826 65.1523C15.2283 64.9674 15.3855 64.7825 15.5602 64.5744C15.7349 64.3664 15.9213 64.2103 16.1425 64.0312C16.3394 63.849 16.5475 63.6791 16.7656 63.5226C16.9842 63.3635 17.2116 63.217 17.447 63.0834C17.7041 62.9334 17.9729 62.8039 18.2506 62.6962C18.4916 62.6001 18.7412 62.5265 18.9961 62.4766C19.2349 62.4246 19.4735 62.39 19.7065 62.3611C19.9394 62.3322 20.1724 62.3264 20.3995 62.3264H23.5383L19.2931 68.5446C19.0243 68.9338 18.7223 69.2992 18.3904 69.6369V69.6426ZM18.3148 67.4409L20.8595 63.7075H20.7489H20.5277C20.489 63.7132 20.4498 63.7132 20.4112 63.7075H20.0909C19.8201 63.7095 19.5496 63.7289 19.2814 63.7654C19.0046 63.8025 18.7304 63.8566 18.4603 63.9272C18.153 64.0196 17.8676 64.173 17.6218 64.378C17.317 64.6288 17.0468 64.9183 16.8181 65.239L16.7831 65.2853H16.754C16.7512 65.3005 16.7512 65.3162 16.754 65.3315C16.7365 65.3532 16.7209 65.3764 16.7074 65.4009C16.6953 65.4279 16.6796 65.4531 16.6609 65.476C16.5496 65.6253 16.4485 65.7816 16.358 65.9441C16.2685 66.0871 16.1924 66.238 16.1309 66.3949C16.0803 66.5235 16.0584 66.6615 16.0669 66.7993C16.0782 66.9169 16.1182 67.03 16.1833 67.1288C16.2234 67.1835 16.2751 67.2289 16.3348 67.2616C16.3955 67.2985 16.4626 67.324 16.5328 67.3369L16.7656 67.3773C16.8509 67.3861 16.9368 67.3861 17.0219 67.3773H17.4586L18.3148 67.4409Z" fill="white"/>
<path d="M22.8049 68.7715C22.6072 68.7502 22.4121 68.7095 22.2225 68.6502C22.0571 68.6016 21.9068 68.512 21.7858 68.3902C21.6695 68.268 21.5908 68.1157 21.5586 67.9509C21.5259 67.8005 21.5259 67.6448 21.5586 67.4944C21.584 67.3178 21.625 67.1437 21.6809 66.9743C21.7508 66.7836 21.8323 66.5986 21.9196 66.3964C22.007 66.194 22.1176 66.0265 22.2341 65.8185L22.2749 65.7606C22.2879 65.7377 22.3035 65.7164 22.3215 65.697L22.3622 65.6393C22.3764 65.6153 22.392 65.5921 22.4089 65.5699C22.407 65.5565 22.407 65.5429 22.4089 65.5295C22.417 65.5134 22.429 65.4995 22.4438 65.489V65.4486V65.4139L22.5079 65.333L22.5778 65.2405C22.7233 65.0556 22.8689 64.8707 23.0261 64.6973C23.1833 64.5239 23.3464 64.3448 23.527 64.1656C23.7099 63.9839 23.9044 63.814 24.1093 63.657C24.3113 63.4957 24.5233 63.3471 24.7441 63.212C25.0085 63.0407 25.2871 62.8919 25.5768 62.7671C25.8309 62.6597 26.094 62.5747 26.363 62.5128C26.609 62.4574 26.8579 62.4149 27.1084 62.3857C27.3441 62.3563 27.5813 62.3408 27.8189 62.3395H30.3404L29.4145 63.6859H27.1433C26.9128 63.6904 26.6829 63.7136 26.4562 63.7554C26.2465 63.7884 26.0401 63.8386 25.8389 63.9056C25.6233 63.9839 25.4254 64.1037 25.2565 64.2581C25.0369 64.452 24.8414 64.6713 24.6742 64.9111H28.5642L27.6383 66.2576H23.824C23.6796 66.4639 23.566 66.6897 23.4862 66.928C23.4396 67.1014 23.4862 67.2227 23.5619 67.2864C23.683 67.3533 23.8151 67.3984 23.9521 67.4193C24.1636 67.4547 24.3781 67.4703 24.5926 67.4655H26.8813L25.967 68.7715H23.4629C23.2431 68.7719 23.0234 68.7604 22.8049 68.7368" fill="white"/>
<path d="M32.029 62.3334L33.6246 60.0217H35.3716L33.776 62.3334H35.5871L34.7136 63.6163H32.8734L31.0972 66.2284C30.9117 66.4593 30.7661 66.719 30.6663 66.9971C30.6138 67.1877 30.6663 67.3033 30.7653 67.3554C30.9068 67.4204 31.0584 67.4614 31.2136 67.4767C31.4437 67.5017 31.6752 67.5133 31.9066 67.5114H32.029L31.1613 68.7712H29.5947C29.3297 68.7858 29.0648 68.7404 28.8202 68.6383C28.7357 68.6022 28.6611 68.5466 28.6024 68.4763C28.5436 68.406 28.5025 68.3228 28.4825 68.2337C28.4451 68.0266 28.4632 67.8134 28.5348 67.6154C28.6481 67.3202 28.7987 67.0406 28.9833 66.7832L31.1496 63.6221H29.95L30.8293 62.3392L32.029 62.3334Z" fill="white"/>
<path d="M39.8735 59.9927L38.2778 62.3044H39.8094C40.1523 62.3011 40.4936 62.3477 40.8227 62.443C41.0499 62.5085 41.2525 62.6393 41.405 62.8187C41.4719 62.9236 41.5126 63.0427 41.5238 63.1664C41.5349 63.2901 41.5161 63.4145 41.4691 63.5295C41.335 63.9418 41.1387 64.3315 40.8868 64.6853L38.1089 68.7306H36.3619L39.0175 64.8414C39.1391 64.6797 39.239 64.5028 39.3145 64.3155C39.3677 64.208 39.3859 64.0869 39.3668 63.9687C39.3473 63.9205 39.3165 63.8776 39.277 63.8434C39.2376 63.8093 39.1905 63.7848 39.1397 63.7723C38.9748 63.7275 38.8039 63.7079 38.633 63.7144H37.282L33.8461 68.7422H32.1748L38.173 59.9523L39.8735 59.9927Z" fill="white"/>
<path d="M41.8417 68.7715C41.6442 68.7497 41.4491 68.7092 41.2594 68.6502C41.0939 68.6016 40.9437 68.512 40.8226 68.3902C40.7105 68.266 40.6342 68.1144 40.6013 67.9509C40.5686 67.8005 40.5686 67.6448 40.6013 67.4944C40.6267 67.3178 40.6676 67.1437 40.7236 66.9743C40.7936 66.777 40.8753 66.584 40.9682 66.3964C41.0614 66.2114 41.1604 66.0265 41.2768 65.8185C41.2936 65.8016 41.3074 65.782 41.3176 65.7606L41.3642 65.697C41.3811 65.6803 41.3948 65.6607 41.405 65.6393L41.4515 65.5699V65.5295L41.4865 65.489V65.4486V65.4139L41.5505 65.333L41.6204 65.2405C41.7602 65.0556 41.9116 64.8707 42.0631 64.6973C42.2144 64.5239 42.3892 64.3448 42.5696 64.1656C42.7538 63.9851 42.9483 63.8154 43.1521 63.657C43.3551 63.497 43.567 63.3485 43.7867 63.212C44.0538 63.0418 44.3343 62.893 44.6254 62.7671C44.8788 62.658 45.1421 62.5729 45.4115 62.5128C45.6556 62.4574 45.9025 62.4149 46.1511 62.3857C46.3868 62.3565 46.6241 62.341 46.8616 62.3395H49.3832L48.4572 63.6859H46.1861C45.9555 63.6907 45.7257 63.7139 45.4988 63.7554C45.3012 63.7905 45.1065 63.8407 44.9165 63.9056C44.701 63.9839 44.5031 64.1037 44.3342 64.2581C44.1161 64.4535 43.9207 64.6725 43.7518 64.9111H47.642L46.716 66.2576H42.8608C42.7152 66.464 42.5995 66.6897 42.5173 66.928C42.4706 67.1014 42.5173 67.2227 42.5929 67.2863C42.7161 67.3533 42.8502 67.3983 42.9889 67.4193C43.2005 67.4551 43.4149 67.4707 43.6295 67.4655H45.9182L45.0038 68.7715H42.5114C42.2916 68.7723 42.0718 68.7607 41.8534 68.7368" fill="white"/>
<path d="M53.3896 62.3335C53.7279 62.3173 54.0657 62.3744 54.3796 62.5011C54.4236 62.5187 54.4636 62.545 54.4971 62.5783C54.5308 62.6116 54.5573 62.6512 54.5752 62.6948C54.5931 62.7385 54.6021 62.7853 54.6015 62.8324C54.6009 62.8795 54.5908 62.926 54.5717 62.9692C54.4802 63.222 54.3652 63.4657 54.2281 63.6973C54.065 63.9805 53.867 64.2753 53.6458 64.6451L53.5759 64.726C53.5579 64.7608 53.5365 64.7937 53.5118 64.8243C53.4982 64.8402 53.4864 64.8576 53.4769 64.8763V64.9225L53.4303 64.9861C53.4303 64.9861 53.4303 64.9861 53.3953 65.0323H51.759L51.8056 64.9745C51.8176 64.9475 51.8332 64.9223 51.8521 64.8994C51.8607 64.8851 51.8727 64.8732 51.8871 64.8647V64.8243C52.0487 64.5971 52.1983 64.3617 52.3355 64.1192C52.4345 63.9401 52.4752 63.8303 52.452 63.7841C52.4287 63.7378 52.353 63.6973 52.2016 63.6684C51.9774 63.6414 51.7518 63.6298 51.526 63.6337H51.3397L47.799 68.835H46.052L50.4544 62.3855L53.3896 62.3335Z" fill="white"/>
<path d="M61.6413 62.3334L63.237 60.0217H64.9841L63.3884 62.3334H65.1995L64.326 63.6163H62.5091L60.7329 66.2284C60.5474 66.4593 60.4018 66.719 60.302 66.9971C60.2495 67.1877 60.302 67.3033 60.401 67.3554C60.5429 67.4195 60.6943 67.4605 60.8494 67.4767C61.0795 67.5017 61.3109 67.5133 61.5423 67.5114H61.653L60.797 68.7827H59.2304C58.9654 68.7974 58.7005 68.752 58.4559 68.6498C58.3714 68.6137 58.2968 68.5582 58.2381 68.4878C58.1793 68.4175 58.1382 68.3344 58.1182 68.2453C58.0813 68.0316 58.1034 67.812 58.1822 67.6096C58.2954 67.3144 58.4461 67.0348 58.6306 66.7774L60.797 63.6163H59.5856L60.465 62.3334H61.6413Z" fill="white"/>
<path d="M66.9993 68.4175C66.7389 68.5315 66.4702 68.6262 66.1956 68.7007C66.0151 68.7469 65.8462 68.7873 65.6773 68.8162C65.5084 68.8452 65.3454 68.8683 65.1823 68.8799H64.9377H64.699C64.4803 68.8789 64.2622 68.8595 64.0467 68.822C63.848 68.7918 63.6529 68.7414 63.4644 68.6718C63.3087 68.6055 63.1666 68.5115 63.0452 68.3944C62.9332 68.2823 62.8494 68.1458 62.8005 67.9957C62.7497 67.831 62.7262 67.6592 62.7306 67.4871C62.7376 67.291 62.771 67.0965 62.8296 66.9092C62.9107 66.6857 63.006 66.4675 63.115 66.2561C63.2371 66.0222 63.3712 65.7945 63.5169 65.5742C63.6799 65.3489 63.8487 65.1234 64.0351 64.9039C64.2215 64.6842 64.4311 64.4647 64.6641 64.2392C64.8905 64.0344 65.1277 63.8415 65.3745 63.6613C65.6187 63.4729 65.8755 63.301 66.1432 63.147C66.3981 63.0023 66.6605 62.8711 66.9294 62.754C67.1905 62.6418 67.4591 62.5472 67.7331 62.4709C67.994 62.4018 68.2584 62.3459 68.5251 62.3033C68.7675 62.263 69.0129 62.2418 69.2587 62.2397C69.4721 62.2388 69.6847 62.2601 69.8935 62.3033C70.0923 62.3418 70.2872 62.3979 70.4759 62.4709C70.6355 62.5357 70.7802 62.632 70.901 62.754C71.0104 62.8658 71.0939 62.9999 71.1456 63.147C71.2004 63.3127 71.2222 63.4874 71.2096 63.6613C71.1996 63.8577 71.1644 64.0519 71.1049 64.2392C71.0292 64.466 70.9397 64.6879 70.837 64.9039C70.7279 65.1399 70.5952 65.3644 70.441 65.5742C70.2826 65.8134 70.1074 66.0413 69.9169 66.2561C69.7153 66.4851 69.5015 66.7031 69.2763 66.9092C69.0552 67.1154 68.8217 67.3084 68.5774 67.4871C68.3297 67.6718 68.0711 67.8417 67.803 67.9957C67.5449 68.1452 67.2785 68.2803 67.0051 68.4002L66.9993 68.4175ZM65.2231 67.4409C65.2424 67.4558 65.2641 67.4674 65.2872 67.4755H65.3512H65.4153C65.6079 67.5101 65.8051 67.5101 65.9976 67.4755C66.2329 67.4328 66.4617 67.361 66.679 67.2617C66.9215 67.1624 67.1521 67.0364 67.3662 66.8861C67.5886 66.7309 67.7971 66.5568 67.9893 66.366C68.0559 66.3007 68.1181 66.2312 68.1756 66.1579C68.2396 66.0885 68.298 66.0076 68.3677 65.9268C68.439 65.8502 68.5052 65.7691 68.5657 65.684L68.7405 65.4355C68.8505 65.2695 68.9441 65.0934 69.0201 64.9097C69.0865 64.7507 69.1392 64.5863 69.1773 64.4184C69.213 64.28 69.213 64.1349 69.1773 63.9965C69.128 63.877 69.0399 63.7773 68.9269 63.7133L68.8395 63.6671H68.7463H68.6356H68.5251C68.4322 63.6555 68.3383 63.6555 68.2455 63.6671C68.1454 63.675 68.0462 63.6904 67.9485 63.7133C67.84 63.7328 67.7329 63.7598 67.6282 63.7943C67.5175 63.829 67.407 63.8752 67.2963 63.9214C67.062 64.0239 66.8377 64.1477 66.6265 64.2913C66.4166 64.4334 66.2215 64.5961 66.0442 64.7767L65.8346 64.9963L65.6366 65.2217C65.5753 65.2895 65.5207 65.3631 65.4735 65.4413L65.3337 65.6609C65.204 65.8411 65.0946 66.0349 65.0076 66.2388C64.9337 66.4075 64.8791 66.584 64.8446 66.7647C64.8132 66.9113 64.8253 67.064 64.8795 67.2039C64.9413 67.3257 65.0444 67.4219 65.1707 67.4755H65.2173" fill="white"/>
<path d="M79.0361 62.3334L80.6318 60.0217H82.3497L80.754 62.3334H82.5651L81.6916 63.6163H79.8747L78.1277 66.2284C77.9421 66.4593 77.7966 66.719 77.6967 66.9971C77.6443 67.1877 77.6967 67.3033 77.7957 67.3554C77.9373 67.4204 78.0889 67.4614 78.2441 67.4767C78.4742 67.5017 78.7057 67.5133 78.9371 67.5114H79.0478L78.1917 68.7827H76.6252C76.3602 68.7974 76.0953 68.752 75.8507 68.6498C75.7661 68.6137 75.6915 68.5582 75.6328 68.4878C75.5741 68.4175 75.533 68.3344 75.5129 68.2453C75.4761 68.0316 75.4982 67.812 75.577 67.6096C75.6902 67.3156 75.8389 67.0362 76.0196 66.7774L78.1917 63.6163H76.9805L77.8598 62.3334H79.0361Z" fill="white"/>
<path d="M86.8746 59.9913L85.279 62.303H86.8106C87.1533 62.2997 87.4948 62.3463 87.8239 62.4417C88.0497 62.5101 88.2514 62.6403 88.4062 62.8173C88.4876 62.9228 88.5404 63.0472 88.5598 63.1787C88.5792 63.3101 88.5643 63.4443 88.5169 63.5686C88.3802 63.9799 88.1841 64.3692 87.9344 64.7243L85.1509 68.7697H83.4038L86.0593 64.8804C86.1791 64.7174 86.2788 64.5409 86.3563 64.3546C86.4096 64.2471 86.4279 64.126 86.4088 64.0078C86.3892 63.9596 86.3584 63.9167 86.3189 63.8824C86.2794 63.8483 86.2324 63.8239 86.1817 63.8113C86.0166 63.7676 85.8458 63.7481 85.675 63.7536H84.3239L80.8881 68.7812H79.1992L85.2032 59.9913H86.8746Z" fill="white"/>
<path d="M88.8429 68.7708C88.6452 68.7496 88.4501 68.7089 88.2606 68.6495C88.0951 68.6009 87.9448 68.5113 87.8238 68.3895C87.7117 68.2653 87.6352 68.1137 87.6025 67.9502C87.5697 67.7998 87.5697 67.6441 87.6025 67.4937C87.6279 67.3171 87.6688 67.143 87.7248 66.9736C87.7947 66.7763 87.8764 66.5833 87.9694 66.3957C88.0626 66.2107 88.1616 66.0258 88.278 65.8178C88.2929 65.7995 88.3066 65.7801 88.3188 65.7599L88.3654 65.6963C88.3821 65.6796 88.3959 65.66 88.4061 65.6386L88.4527 65.5692C88.4508 65.5558 88.4508 65.5422 88.4527 65.5288L88.4877 65.4883V65.4479V65.4132C88.5068 65.3846 88.5281 65.3575 88.5517 65.3323C88.5764 65.3038 88.5978 65.2728 88.6158 65.2398C88.7614 65.0549 88.9128 64.87 89.0641 64.6966C89.2156 64.5232 89.3902 64.3441 89.5708 64.1649C89.755 63.9845 89.9494 63.8147 90.1531 63.6563C90.3561 63.4963 90.5681 63.3478 90.7879 63.2113C91.0544 63.0399 91.3349 62.8911 91.6265 62.7665C91.8799 62.6573 92.1431 62.5722 92.4127 62.5121C92.665 62.4656 92.9197 62.4328 93.1756 62.4139C93.4112 62.3845 93.6485 62.369 93.886 62.3677H96.4076L95.5049 63.6795H93.2338C93.0032 63.6839 92.7734 63.7071 92.5466 63.7488C92.3489 63.784 92.1542 63.8342 91.9642 63.8991C91.7487 63.9775 91.5508 64.0972 91.3819 64.2516C91.1638 64.447 90.9685 64.666 90.7996 64.9047H94.6897L93.7579 66.2396H89.8852C89.7374 66.4446 89.6216 66.6707 89.5417 66.91C89.4951 67.0833 89.5417 67.2047 89.6174 67.2682C89.7406 67.3352 89.8746 67.3802 90.0134 67.4012C90.2249 67.4371 90.4395 67.4527 90.654 67.4475H92.9368L92.0108 68.7708H89.5126C89.2928 68.7716 89.073 68.76 88.8546 68.7361" fill="white"/>
<path d="M105.51 62.3336C105.862 62.3316 106.212 62.3762 106.552 62.4665C106.79 62.5229 107.004 62.6524 107.164 62.8364C107.228 62.9438 107.265 63.0647 107.273 63.1891C107.281 63.3136 107.26 63.4381 107.21 63.5529C107.073 63.9638 106.877 64.353 106.628 64.7087L103.844 68.754H102.127L104.77 64.8764C104.902 64.696 105.013 64.5022 105.102 64.2985C105.161 64.1906 105.183 64.0671 105.166 63.9459C105.143 63.8727 105.067 63.8149 104.939 63.7726C104.769 63.727 104.592 63.7076 104.415 63.7147H103.047L99.5816 68.7714H97.8695L102.272 62.322L105.51 62.3336Z" fill="white"/>
<path d="M107.519 68.7715C107.321 68.7497 107.126 68.7092 106.936 68.6502C106.771 68.6016 106.621 68.512 106.5 68.3902C106.388 68.266 106.311 68.1144 106.278 67.9509C106.236 67.8025 106.226 67.6468 106.249 67.4944C106.275 67.3178 106.316 67.1437 106.372 66.9743C106.442 66.777 106.523 66.584 106.616 66.3964C106.709 66.2114 106.808 66.0265 106.925 65.8185C106.942 65.8016 106.955 65.782 106.966 65.7606L107.012 65.697C107.029 65.6803 107.043 65.6607 107.053 65.6393L107.1 65.5699V65.5295L107.134 65.489V65.4486V65.4139L107.199 65.333L107.268 65.2405C107.408 65.0556 107.56 64.8707 107.711 64.6973C107.862 64.5239 108.037 64.3448 108.218 64.1656C108.402 63.9851 108.596 63.8154 108.8 63.657C109.003 63.497 109.215 63.3485 109.435 63.212C109.702 63.0418 109.982 62.893 110.273 62.7671C110.527 62.658 110.79 62.5729 111.06 62.5128C111.303 62.4574 111.55 62.4149 111.799 62.3857C112.034 62.3565 112.272 62.341 112.51 62.3395H115.031L114.14 63.6801H111.869C111.639 63.6849 111.409 63.7081 111.182 63.7496C110.984 63.7847 110.789 63.8349 110.599 63.8998C110.384 63.9781 110.186 64.0979 110.017 64.2524C109.799 64.4477 109.604 64.6667 109.435 64.9054H113.324L112.393 66.2403H108.52C108.375 66.4467 108.259 66.6724 108.177 66.9107C108.13 67.084 108.177 67.2054 108.253 67.2689C108.376 67.3359 108.51 67.3809 108.649 67.4019C108.86 67.4378 109.075 67.4534 109.289 67.4481H111.578L110.681 68.7715H108.177C107.957 68.7723 107.737 68.7607 107.519 68.7368" fill="white"/>
<path d="M115.457 62.3329H117.454L117.512 64.2804L120.278 62.3329H122.252L117.606 65.6038L117.809 68.788H115.811L115.707 66.9099L113.057 68.788H111.071L115.66 65.5633L115.457 62.3329Z" fill="white"/>
<path d="M123.568 62.3334L125.164 60.0217H126.882L125.287 62.3334H127.098L126.223 63.6163H124.407L122.66 66.2284C122.474 66.4593 122.329 66.719 122.229 66.9971C122.177 67.1877 122.229 67.3033 122.328 67.3554C122.47 67.4195 122.621 67.4605 122.777 67.4767C123.007 67.5017 123.238 67.5133 123.469 67.5114H123.58L122.724 68.7827H121.128C120.863 68.7974 120.599 68.752 120.353 68.6498C120.269 68.6137 120.194 68.5582 120.136 68.4878C120.077 68.4175 120.036 68.3344 120.016 68.2453C119.979 68.0316 120.001 67.812 120.08 67.6096C120.193 67.3144 120.344 67.0348 120.529 66.7774L122.694 63.6163H121.483L122.363 62.3334H123.568Z" fill="white"/>
<path d="M128.454 68.7812L134.452 59.9913H136.245L130.242 68.7812H128.454Z" fill="white"/>
<path d="M133.94 68.7715C133.742 68.7507 133.547 68.71 133.358 68.6502C133.191 68.6028 133.041 68.5131 132.921 68.3901C132.805 68.268 132.726 68.1157 132.693 67.9509C132.661 67.8005 132.661 67.6448 132.693 67.4944C132.719 67.3178 132.76 67.1437 132.816 66.9743C132.886 66.7835 132.968 66.5986 133.055 66.3964C133.142 66.194 133.252 66.0265 133.369 65.8185L133.41 65.7606C133.423 65.7377 133.439 65.7164 133.457 65.697L133.498 65.6393C133.511 65.6153 133.527 65.5921 133.545 65.5699C133.542 65.5565 133.542 65.5429 133.545 65.5295C133.552 65.5134 133.565 65.4995 133.579 65.489C133.579 65.489 133.579 65.489 133.579 65.4486C133.579 65.4081 133.579 65.4197 133.579 65.4139L133.643 65.333L133.713 65.2405C133.859 65.0556 134.005 64.8707 134.161 64.6973C134.319 64.5239 134.481 64.3448 134.662 64.1656C134.845 63.9839 135.04 63.814 135.245 63.657C135.447 63.4957 135.659 63.3471 135.879 63.212C136.143 63.0407 136.422 62.8919 136.712 62.7671C136.966 62.6589 137.229 62.5738 137.498 62.5128C137.745 62.4574 137.993 62.4149 138.243 62.3857C138.479 62.356 138.717 62.3407 138.955 62.3395H141.476L140.55 63.6859H138.279C138.048 63.6904 137.818 63.7136 137.591 63.7554C137.381 63.7884 137.176 63.8386 136.975 63.9056C136.76 63.9866 136.562 64.1061 136.391 64.2581C136.173 64.4535 135.978 64.6725 135.809 64.9111H139.699L138.773 66.2576H134.901C134.757 66.4639 134.643 66.6897 134.563 66.928C134.517 67.1014 134.563 67.2227 134.639 67.2863C134.76 67.3533 134.892 67.3984 135.029 67.4193C135.24 67.4549 135.455 67.4704 135.67 67.4655H137.958L137.113 68.7715H134.61C134.387 68.7839 134.163 68.7839 133.94 68.7715Z" fill="white"/>
<path d="M143.817 62.3329L142.477 66.9099L147.527 62.3329H149.378L142.087 68.788H140.236L141.889 62.3329H143.817Z" fill="white"/>
<path d="M147.98 68.7715C147.782 68.7497 147.588 68.7092 147.398 68.6502C147.232 68.6016 147.082 68.512 146.961 68.3902C146.849 68.266 146.772 68.1144 146.74 67.9509C146.698 67.8025 146.688 67.6468 146.711 67.4944C146.737 67.3178 146.777 67.1437 146.833 66.9743C146.903 66.777 146.984 66.584 147.078 66.3964C147.171 66.2114 147.27 66.0265 147.387 65.8185C147.403 65.8016 147.417 65.782 147.427 65.7606L147.473 65.697C147.49 65.6803 147.504 65.6607 147.514 65.6393L147.561 65.5699V65.5295L147.595 65.489V65.4486V65.4139C147.615 65.3853 147.637 65.3583 147.66 65.333L147.73 65.2405C147.87 65.0556 148.021 64.8707 148.172 64.6973C148.324 64.5239 148.499 64.3448 148.679 64.1656C148.863 63.9851 149.058 63.8154 149.261 63.657C149.464 63.497 149.677 63.3485 149.897 63.212C150.163 63.0418 150.443 62.893 150.734 62.7671C150.988 62.658 151.251 62.5729 151.521 62.5128C151.765 62.4574 152.012 62.4149 152.261 62.3857C152.497 62.3565 152.733 62.341 152.971 62.3395H155.492L154.567 63.6859H152.295C152.064 63.6907 151.835 63.7139 151.609 63.7554C151.401 63.789 151.197 63.8393 150.997 63.9056C150.781 63.9839 150.583 64.1037 150.414 64.2581C150.197 64.4535 150.001 64.6725 149.832 64.9111H153.722L152.797 66.2576H148.923C148.778 66.464 148.662 66.6897 148.58 66.928C148.533 67.1014 148.58 67.2227 148.655 67.2863C148.779 67.3533 148.913 67.3983 149.052 67.4193C149.263 67.4551 149.478 67.4707 149.692 67.4655H151.981L151.142 68.7715H148.639C148.419 68.7723 148.199 68.7607 147.98 68.7368" fill="white"/>
<path d="M152.214 68.7812L158.212 59.9913H160L154.002 68.7812H152.214Z" fill="white"/>
<path d="M41.8358 51.8907L47.3157 43.9793H25.3263C25.0886 44.0049 24.8496 43.9449 24.6528 43.8101C24.4561 43.6754 24.3148 43.4749 24.2547 43.2453C24.1777 43.0301 24.1598 42.7983 24.2028 42.5739C24.2458 42.3494 24.3481 42.1404 24.4993 41.9682L31.336 32.4154H20.7198L12.6427 43.2626C12.6427 43.2626 11.1985 45.6552 11.0936 47.8339C11.0739 48.8624 11.4566 49.8584 12.1614 50.6127C12.8661 51.3672 13.8381 51.8211 14.873 51.8792" fill="white"/>
<path d="M66.0732 16.8698L60.2148 25.4286H26.4386C27.9527 23.2783 29.8234 21.3986 31.9709 19.8691C34.2728 18.2316 36.9368 17.1655 39.7395 16.76L66.0732 16.8698Z" fill="white"/>
<path d="M46.0347 51.8202L59.2657 32.5413H69.3519L56.7266 51.8202" fill="white"/>
<path d="M86.4612 51.8208L83.9571 39.6848C83.9571 39.6848 89.0993 38.5868 92.3313 35.8302C94.7655 33.767 98.2421 26.052 98.2421 26.052C98.5895 24.9373 98.8255 23.7914 98.9468 22.6309C99.0865 20.9549 98.0849 19.0131 97.6772 18.441C97.2745 17.9009 96.7363 17.4748 96.1162 17.2051C95.4961 16.9354 94.8155 16.8316 94.1424 16.9038H69.9575L64.4019 25.2834H85.5062C85.8023 25.2556 86.1009 25.293 86.3808 25.3929C86.6605 25.4928 86.9148 25.6527 87.1251 25.8613C87.355 26.0847 87.5313 26.3564 87.6412 26.6566C87.751 26.9566 87.7916 27.2773 87.7599 27.595C87.7599 27.9418 86.5602 29.9702 85.7915 30.8776C85.0133 31.668 84.0424 32.2453 82.973 32.5534C82.5905 32.6392 82.2003 32.6857 81.8083 32.6921H72.1413L76.1187 51.8323" fill="white"/>
<path d="M111.607 16.8295H121.949L116.091 25.3478H105.848L111.607 16.8295Z" fill="white"/>
<path d="M87.9113 51.8202L101.125 32.5413H111.065L98.044 51.8202" fill="white"/>
<path d="M126.241 16.8295H159.452L153.332 25.3478H120.482L126.241 16.8295Z" fill="white"/>
<path d="M102.4 51.8202L115.619 32.5413H138.202L131.954 41.2734H119.853L112.533 51.8202" fill="white"/>
<path d="M18.4895 10.2167C21.6982 9.11865 23.0319 8.54652 24.8022 10.4016C25.9445 11.6683 26.8479 13.1287 27.4693 14.7128C26.3128 15.7664 24.9569 16.5817 23.4802 17.1111C22.305 17.5031 21.0966 17.7893 19.8696 17.9663C19.8696 17.9663 20.3472 16.2673 20.8596 14.8688C21.3721 13.4703 22.8921 10.2456 22.8921 10.2456L21.3313 10.0664C20.0431 11.874 18.95 13.811 18.0702 15.8454C17.3426 17.6051 16.7584 19.4198 16.3232 21.272C16.3232 21.272 22.0128 20.6363 25.303 19.5845C28.5932 18.5327 31.0333 17.5792 31.6622 16.8799C32.2911 16.1807 33.4616 14.5683 34.2129 10.286C34.6209 8.20909 34.4498 6.06103 33.7179 4.07355C33.7179 4.07355 33.3044 3.88862 31.604 4.65145C31.303 4.78817 31.0094 4.94057 30.7246 5.108C30.0873 5.52319 29.5276 6.04532 29.0708 6.651C29.6065 7.80681 30.1423 9.5752 29.7289 11.1587C27.842 8.30959 26.1649 6.81281 24.61 6.2927C22.3621 5.54721 21.18 5.91129 16.6202 7.94551C12.6427 9.70233 5.34009 13.9383 1.63053 16.2095L0.0523682 17.1804C0.0523682 17.1804 15.042 11.4013 18.4895 10.2456" fill="#EF7B10"/>
<path d="M25.8504 5.83684C27.0023 4.75627 28.2973 3.83664 29.6997 3.10335C32.0203 1.91033 34.4192 0.873544 36.8801 0C34.0718 0.622795 31.3471 1.5713 28.7621 2.82596C27.3459 3.57992 26.0078 4.47034 24.7672 5.48431L25.8504 5.83684Z" fill="#EF7B10"/>
</svg>
