<svg width="180" height="64" viewBox="0 0 180 64" fill="none" xmlns="http://www.w3.org/2000/svg">
<path fill-rule="evenodd" clip-rule="evenodd" d="M4.80325 8.30055V16.6007L5.38419 16.0413C7.21386 14.2805 9.94891 12.6952 13.2028 11.509L14.2904 11.113L14.3098 5.5565L14.3287 0H9.56597H4.80325V8.30055ZM25.0529 4.12508C25.0529 6.39349 25.0713 8.24971 25.0934 8.24971C25.2077 8.24971 27.7245 7.59542 28.84 7.27547C30.7552 6.72693 32.2924 6.15949 33.9965 5.37201L34.5774 5.10381V2.55191V0H29.8152H25.0529V4.12508ZM171.6 0.449992V0.824836H172.238H172.875V2.55011V4.27493H173.288H173.7V2.55011V0.824836H174.338H174.975V0.449992V0.0751487H173.288H171.6V0.449992ZM175.5 2.17211V4.27493H175.913H176.325L176.328 2.83135L176.33 1.38733L176.536 1.91247C176.649 2.20136 176.891 2.8507 177.073 3.35604L177.404 4.27493H177.755H178.105L178.621 2.8687L179.137 1.46247L179.158 2.8687L179.178 4.27493H179.589H180V2.17211V0.0688488L179.39 0.0908984L178.78 0.112498L178.453 0.975133C178.273 1.44942 178.053 2.03306 177.964 2.27246C177.778 2.7724 177.739 2.758 177.491 2.09426C177.392 1.82922 177.182 1.27483 177.024 0.862635L176.737 0.112498L176.118 0.0908984L175.5 0.0688488V2.17211ZM107.926 22.9869V37.3493H111.414H114.901V22.9869V8.625H111.414H107.926V22.9869ZM92.7812 17.03C91.0379 17.1838 88.8694 17.6446 87.6018 18.1302L87.0393 18.3457L87.0614 20.701C87.0857 23.2875 87.0717 23.1692 87.3314 22.9991C88.1809 22.4425 90.2869 21.848 92.0158 21.6766C95.7291 21.3089 97.7491 22.307 97.9737 24.6204C98.0034 24.926 97.9903 24.9737 97.8864 24.9435C97.0336 24.696 93.5863 24.6465 91.9892 24.8589C86.9579 25.5281 84.5315 27.6993 84.5284 31.5368C84.5257 35.3226 87.1266 37.6247 91.5766 37.7746C94.4849 37.8727 96.4482 36.9588 97.953 34.8064L98.2891 34.3258L98.3364 34.8064C98.362 35.0706 98.4079 35.751 98.4376 36.318L98.4916 37.3493H101.68H104.868L104.818 37.0825C104.563 35.7226 104.534 35.0598 104.477 29.3993C104.417 23.2515 104.425 23.3838 104.014 22.1248C102.781 18.343 98.7256 16.5035 92.7812 17.03ZM125.555 17.03C123.804 17.1847 121.991 17.5677 120.526 18.0919L119.814 18.3466L119.835 20.2919C119.847 21.3616 119.876 22.4276 119.898 22.6603L119.939 23.0832L120.664 22.7435C124.258 21.0574 129.057 21.2626 130.261 23.1539C130.632 23.7371 130.92 25.0187 130.663 24.9444C128.122 24.2114 122.501 24.9165 120.226 26.2534C116.102 28.6771 116.312 34.7772 120.593 36.9331C122.757 38.0225 126.111 38.0936 128.138 37.0924C129.177 36.5799 130.13 35.7087 130.87 34.5963L131.08 34.2804L131.127 35.0085C131.153 35.409 131.197 36.0997 131.224 36.543L131.273 37.3493H134.458H137.642L137.592 37.0812C137.329 35.6785 137.307 35.175 137.251 29.4371C137.191 23.247 137.2 23.3852 136.789 22.1248C135.557 18.348 131.492 16.5044 125.555 17.03ZM164.588 16.994C162.975 17.1496 162.513 17.2095 161.7 17.3701C160.795 17.5488 159.516 17.9079 158.738 18.2017L158.363 18.343L158.389 20.7028C158.404 22.0001 158.426 23.0729 158.438 23.0864C158.451 23.0994 158.658 23.0094 158.899 22.8861C161.576 21.5186 165.871 21.1906 167.78 22.2085C168.608 22.6499 169.114 23.3924 169.274 24.4031C169.373 25.0272 169.459 24.9737 168.563 24.845C165.015 24.3365 160.601 25.0376 158.439 26.4537C154.512 29.0263 155.092 35.2677 159.427 37.0785C163.247 38.6741 167.193 37.7539 169.303 34.7745L169.613 34.3375L169.661 34.6246C169.687 34.7826 169.733 35.4603 169.762 36.1308L169.816 37.3493H172.995C175.489 37.3493 176.175 37.3291 176.175 37.2557C176.175 37.204 176.126 36.8751 176.066 36.5245C175.866 35.3523 175.8 33.4461 175.8 28.8611C175.8 23.297 175.751 22.8394 174.986 21.2621C173.868 18.9559 171.845 17.6514 168.525 17.0961C168.037 17.0142 165.151 16.9395 164.588 16.994ZM136.351 17.3706C136.351 17.4228 138.184 20.6357 138.378 20.9246C138.447 21.0277 138.597 21.281 138.71 21.4871C138.909 21.8507 139.587 23.0216 139.73 23.2497C139.877 23.4842 143.494 29.7431 143.595 29.938C143.682 30.1049 143.701 30.7943 143.701 33.7458V37.3493H147.151H150.601V33.7665V30.1841L153.6 24.9435C155.25 22.0613 156.6 19.6921 156.6 19.6786C156.6 19.6651 156.765 19.3749 156.965 19.0333C157.166 18.6918 157.468 18.1675 157.636 17.8683L157.943 17.3247H154.096H150.249L149.006 20.2307C148.262 21.9722 147.65 23.5193 147.482 24.0899C147.198 25.0488 147.134 25.1492 147.043 24.7689C146.936 24.3207 146.382 22.6886 146.213 22.3237C146.115 22.1108 145.951 21.7346 145.849 21.4871C145.747 21.2396 145.558 20.8085 145.428 20.5291C145.299 20.2496 145.099 19.7943 144.984 19.5166C144.87 19.239 144.613 18.6324 144.414 18.1684L144.053 17.3247H140.202C138.084 17.3247 136.351 17.3454 136.351 17.3706ZM61.0896 17.4853C58.6736 17.7922 56.5667 19.1535 55.4922 21.1019L55.2798 21.4871L55.2784 19.6683L55.2771 17.8498H52.0898H48.9025V27.8244V37.7993H52.3845H55.867L55.8999 32.718C55.935 27.2875 55.9435 27.1534 56.335 25.9542C57.4501 22.5374 61.3812 22.1414 62.2551 25.3575C62.4576 26.1036 62.458 26.1153 62.4684 32.3432L62.4769 37.7993H65.9671H69.4572L69.4518 32.943C69.4455 27.2119 69.5234 26.4114 70.2213 25.0614C71.3755 22.8277 74.4832 22.5271 75.475 24.5529C75.9515 25.5258 75.9335 25.259 75.9592 31.818L75.9821 37.7993H79.4722H82.9628L82.9313 30.9181C82.8935 22.6895 82.8553 22.2656 81.9868 20.4373C79.9569 16.1651 71.8237 16.3919 69.0356 20.7986L68.8317 21.1213L68.5833 20.6452C67.309 18.2004 64.5663 17.0439 61.0896 17.4853ZM38.3277 27.8244V37.7993H41.8898H45.4524V27.8244V17.8498H41.8898H38.3277V27.8244ZM34.1274 20.7829C32.0341 22.6963 29.9497 23.9099 26.2724 25.3575L25.0542 25.8372L25.0533 31.818L25.0529 37.7993H29.8152H34.5774V29.0996C34.5774 24.3144 34.5693 20.4013 34.559 20.4031C34.5486 20.4049 34.3542 20.5759 34.1274 20.7829ZM97.773 28.5462C98.0016 28.5866 98.0056 28.5952 97.9728 28.9372C97.7064 31.6785 95.4411 33.5604 92.9887 33.078C90.3229 32.5533 90.3351 29.5339 93.0062 28.7185C93.8805 28.4517 96.6646 28.3513 97.773 28.5462ZM129.695 28.4917C130.908 28.5601 130.797 28.4922 130.72 29.1167C130.379 31.8671 128.048 33.6293 125.549 33.0258C123.433 32.5155 123.174 29.947 125.138 28.9669C126.101 28.4863 127.331 28.3581 129.695 28.4917ZM169.108 28.5484L169.353 28.5916L169.309 28.9768C168.986 31.7748 166.552 33.6909 164.138 33.0479C161.653 32.3855 161.699 29.5735 164.208 28.7626C165.167 28.4526 167.892 28.3338 169.108 28.5484ZM12.3028 29.0969C9.39992 29.843 7.82585 30.3785 5.64699 31.3618L4.80325 31.7424V34.7709V37.7993H9.56552H14.3278V33.1869C14.3278 30.6499 14.3197 28.5772 14.3093 28.5803C14.299 28.5835 13.3959 28.8161 12.3028 29.0969ZM7.99055 50.5953C5.83328 50.8658 4.69075 52.0438 4.69075 53.9973C4.69075 55.5308 5.17404 56.2684 6.88446 57.3429C8.39464 58.292 8.51569 58.3685 8.81313 58.5651C10.4403 59.6393 10.6315 61.2048 9.22577 61.9369C8.06524 62.5413 6.38812 62.0557 5.15425 60.7579C4.91395 60.5055 4.7029 60.2989 4.68535 60.2989C4.6678 60.2989 4.65295 60.8479 4.65295 61.5193V62.7393L5.1592 63.0452C8.59894 65.122 12.4797 63.2666 11.941 59.8026C11.7219 58.3937 10.9843 57.5378 8.95308 56.3354C6.92766 55.1362 6.42727 54.638 6.41917 53.8114C6.40252 52.0726 9.32477 51.8166 11.1229 53.3992L11.478 53.712V52.5843V51.4561L10.8592 51.1533C9.97636 50.7204 8.80683 50.4932 7.99055 50.5953ZM66.377 50.625C62.544 51.0008 59.7837 54.3163 60.2207 58.0197C60.3116 58.7924 60.722 60.1189 60.9771 60.4645C61.0595 60.5766 61.127 60.6886 61.127 60.7138C61.127 61.0041 62.3068 62.2533 63.0669 62.7676C65.1562 64.1828 68.9069 64.2935 71.4768 63.0164L71.8894 62.8112L71.9101 61.7353L71.9313 60.6589L71.5353 60.8956C67.2163 63.4781 62.4171 61.7637 62.2006 57.5616C61.9774 53.2224 66.4045 51.1281 71.0646 53.3686L71.7396 53.6931L71.7603 52.6734C71.772 52.1122 71.7666 51.6388 71.7486 51.6208C71.5078 51.3801 69.0968 50.7348 68.0379 50.6277C67.2014 50.5431 67.2149 50.5431 66.377 50.625ZM133.838 50.6255C129.677 51.1889 129.446 57.4428 133.558 58.2096C134.285 58.3451 135.732 58.1174 136.107 57.8082C136.306 57.6435 135.526 59.4003 135.301 59.624C135.28 59.6447 135.073 59.8976 134.842 60.1864C134.234 60.9456 133.741 61.4235 132.976 61.9945C132.169 62.5975 132.182 62.476 132.836 63.2378C133.498 64.0087 133.389 63.9848 134.076 63.511C140.236 59.2581 140.061 49.7822 133.838 50.6255ZM151.388 50.6534C151.099 50.7087 150.661 50.8347 150.413 50.9333L149.963 51.1124L149.942 52.0308C149.93 52.5451 149.951 52.9492 149.989 52.9492C150.027 52.9492 150.255 52.861 150.498 52.7535C152.838 51.7131 154.91 52.8655 154.313 54.8761C154.096 55.6073 153.419 56.029 152.276 56.146L151.796 56.195L151.817 57.0595L151.838 57.9243L152.601 58.0521C154.051 58.2951 154.728 59.1479 154.49 60.4335C154.191 62.0526 152.493 62.4783 150.387 61.4617C150.002 61.2759 149.673 61.1238 149.656 61.1238C149.64 61.1238 149.626 61.5931 149.626 62.1669V63.2099L150.169 63.4354C153.45 64.7971 156.532 63.0983 156.524 59.9327C156.521 58.62 155.952 57.473 155.107 57.077L154.727 56.8993L155.09 56.6549C156.846 55.4719 156.762 52.4461 154.94 51.2289C154.073 50.6502 152.624 50.4153 151.388 50.6534ZM171.235 50.6264C166.479 51.318 166.22 62.5845 170.933 63.7945C172.292 64.1432 173.521 63.6581 174.588 62.3509C174.876 61.9977 175.422 60.8205 175.609 60.1491C176.794 55.8913 175.124 51.084 172.299 50.6214C171.818 50.5427 171.81 50.5427 171.235 50.6264ZM23.0279 57.2615V63.749H24.0026H24.9777V57.2615V50.774H24.0026H23.0279V57.2615ZM36.8274 57.2637V63.7535L37.7463 63.7324L38.6652 63.7112L38.7025 58.8009L38.7399 53.8902L38.9149 54.1134C39.0112 54.2362 39.2137 54.4715 39.3653 54.6367C39.517 54.8014 39.7384 55.0547 39.8572 55.1992C39.976 55.3432 40.2671 55.6807 40.5034 55.9489C40.7401 56.2171 41.5024 57.0946 42.1976 57.8991C42.8924 58.7033 43.4958 59.3985 43.5381 59.444C43.5804 59.4894 44.4381 60.4767 45.4438 61.6377L47.2726 63.749H48.1249H48.9772V57.2615V50.774H48.0403H47.1034L47.0841 55.7122L47.0647 60.6499L45.0775 58.3608C43.9841 57.1022 42.7034 55.6312 42.2313 55.0921C41.7589 54.5525 41.3035 54.0306 41.2189 53.9316C41.1343 53.8326 40.4813 53.0815 39.7681 52.263L38.4717 50.774H37.6495H36.8274V57.2637ZM83.1766 57.2615V63.749H87.0015H90.8264V62.8864V62.0238H87.9766H85.1269V60.0366V58.049H87.789H90.4516V57.1863V56.3242H87.789H85.1269V54.4117V52.4992H87.8641H90.6014V51.6366V50.774H86.889H83.1766V57.2615ZM115.176 50.8239C115.149 50.8518 115.126 53.7709 115.126 57.3114V63.749H116.101H117.076V57.2615V50.774H116.151C115.643 50.774 115.204 50.7965 115.176 50.8239ZM135.148 52.4677C136.242 52.7926 136.945 54.3505 136.584 55.6483C136.429 56.204 134.757 56.6423 133.897 56.3534C131.327 55.4894 132.548 51.6955 135.148 52.4677ZM172.334 52.5402C174.494 53.4415 174.605 60.6535 172.477 61.8739C170.862 62.8005 169.613 61.0486 169.52 57.725C169.414 53.9496 170.577 51.8076 172.334 52.5402Z" fill="white"/>
<path fill-rule="evenodd" clip-rule="evenodd" d="M38.2891 27.786C38.2891 33.2723 38.2981 35.5056 38.3089 32.7489C38.3197 29.9923 38.3197 25.5036 38.3089 22.774C38.2981 20.0443 38.2891 22.2997 38.2891 27.786ZM69.3944 29.0234C69.3944 29.1679 69.4101 29.2268 69.429 29.1548C69.4475 29.0824 69.4475 28.9645 69.429 28.892C69.4101 28.82 69.3944 28.879 69.3944 29.0234Z" fill="white"/>
<path fill-rule="evenodd" clip-rule="evenodd" d="M38.7596 4.12148C35.2263 7.14588 31.7199 8.61555 23.5526 10.4952C16.4954 12.1192 13.6082 13.0417 10.353 14.7134C4.48372 17.7274 0.648889 22.8011 0.0449992 28.3513L0 28.7639L0.170097 28.5439C0.264145 28.4229 0.58949 27.99 0.894134 27.5814C2.8048 25.0173 5.46875 22.9932 9.20909 21.2644C11.7817 20.0751 13.2181 19.5679 19.9526 17.4718C22.4897 16.6826 24.5988 16.0116 24.6402 15.9815C24.6816 15.9513 25.137 15.7812 25.6527 15.6039C33.1955 13.0061 37.6211 9.23789 39.1979 4.07063C39.3212 3.66744 39.2852 3.67149 38.7596 4.12148ZM38.8811 8.77665C37.4267 10.9128 35.8725 12.3253 32.7774 14.3246C30.4253 15.8438 26.5225 17.326 17.8665 19.9873C10.2504 22.3286 6.44614 24.2213 3.58464 27.0918C2.07221 28.6092 0.475642 31.3289 0.186747 32.88L0.132748 33.1716L0.761837 32.6271C3.03655 30.6584 6.02224 29.0888 9.60283 27.9796C10.7773 27.616 13.2473 26.9892 18.6405 25.6869C29.9038 22.9671 35.6794 19.0797 38.248 12.4891C38.3767 12.1592 38.5139 11.8217 38.5531 11.7389C38.8006 11.2183 39.341 8.7447 39.2879 8.37841C39.2686 8.24611 39.1894 8.32351 38.8811 8.77665ZM4.80322 44.2509V44.7009H90.3391H175.875V44.2509V43.8009H90.3391H4.80322V44.2509Z" fill="#F47C24"/>
</svg>
