<svg width="180" height="40" viewBox="0 0 180 40" fill="none" xmlns="http://www.w3.org/2000/svg">
<path fill-rule="evenodd" clip-rule="evenodd" d="M176.515 32.0959C175.194 32.0959 174.353 31.8555 173.752 31.1343C173.271 30.5332 173.031 29.5716 173.031 28.1292V19.4745H178.919L178.198 12.9835H173.151V7.09342V2.28525C173.151 2.28525 170.868 2.40547 170.147 2.52567C166.302 2.76608 163.779 5.41056 163.779 8.29546V13.3441L160.174 13.5845V19.5947H163.779V29.5716C163.779 32.5767 164.62 34.9808 166.182 36.7839C167.744 38.5869 170.147 39.4284 173.271 39.4284C174.833 39.4284 176.035 39.3082 177.116 39.188C178.799 38.8273 180 37.3849 180 35.5818V31.2545C178.919 31.7353 177.717 32.0959 176.515 32.0959Z" fill="#FF5215"/>
<path fill-rule="evenodd" clip-rule="evenodd" d="M82.3098 32.934C83.2711 32.4531 83.992 31.9723 84.4727 31.2511V28.9672C82.9106 27.8854 81.2284 27.4046 79.3058 27.4046C78.1042 27.4046 77.1429 27.645 76.422 28.246C75.701 28.7268 75.4607 29.5682 75.4607 30.5299C75.4607 31.4915 75.8212 32.2128 76.422 32.8138C77.0228 33.2946 77.984 33.6552 79.3058 33.6552C80.2671 33.535 81.3485 33.2946 82.3098 32.934ZM68.7317 37.0209C66.8092 35.4583 65.7277 33.2946 65.7277 30.5299C65.7277 27.645 66.689 25.4813 68.6116 23.9186C70.5341 22.356 73.1776 21.6348 76.7824 21.6348C78.1042 21.6348 79.5461 21.755 80.8679 22.1156C82.1896 22.4762 83.3912 22.8368 84.4727 23.3176V22.8368C84.4727 20.0721 82.1896 18.7499 77.7437 18.7499C74.6196 18.7499 72.697 18.9903 70.1736 20.1923C70.1736 20.1923 69.8131 17.668 69.693 16.7064C69.4527 14.7831 71.0148 13.3407 73.5381 12.8599C75.3405 12.4993 77.2631 12.3791 79.3058 12.3791C83.992 12.3791 87.5968 13.3407 90 15.264C92.4032 17.1872 93.6048 19.8317 93.6048 23.1974V34.8572C93.6048 37.9825 92.5234 38.7038 89.8799 38.7038H85.0735L84.8332 36.5401C83.8719 37.5017 82.6703 38.223 81.2284 38.7038C79.7864 39.1846 78.1042 39.5452 76.3018 39.5452C73.2978 39.3048 70.6543 38.5836 68.7317 37.0209Z" fill="#FF5215"/>
<path fill-rule="evenodd" clip-rule="evenodd" d="M147.436 32.934C148.398 32.4531 149.119 31.9723 149.599 31.2511V28.9672C148.037 27.8854 146.355 27.4046 144.432 27.4046C143.231 27.4046 142.27 27.645 141.549 28.246C140.828 28.7268 140.587 29.5682 140.587 30.5299C140.587 31.4915 140.948 32.2128 141.549 32.8138C142.149 33.2946 143.111 33.6552 144.432 33.6552C145.394 33.535 146.475 33.2946 147.436 32.934ZM133.858 37.0209C131.936 35.4583 130.854 33.2946 130.854 30.5299C130.854 27.645 131.816 25.4813 133.738 23.9186C135.661 22.356 138.304 21.6348 141.909 21.6348C143.231 21.6348 144.673 21.755 145.995 22.1156C147.316 22.4762 148.518 22.8368 149.599 23.3176V22.8368C149.599 20.0721 147.316 18.7499 142.87 18.7499C139.746 18.7499 137.824 18.9903 135.3 20.1923C135.3 20.1923 134.94 17.668 134.82 16.7064C134.579 14.7831 136.141 13.3407 138.665 12.8599C140.467 12.4993 142.39 12.3791 144.432 12.3791C149.119 12.3791 152.724 13.3407 155.127 15.264C157.53 17.1872 158.732 19.8317 158.732 23.1974V34.8572C158.732 37.9825 157.65 38.7038 155.007 38.7038H150.2L149.96 36.5401C148.999 37.5017 147.797 38.223 146.355 38.7038C144.913 39.1846 143.231 39.5452 141.428 39.5452C138.424 39.3048 135.781 38.5836 133.858 37.0209Z" fill="#FF5215"/>
<path fill-rule="evenodd" clip-rule="evenodd" d="M16.3418 32.0959C15.02 32.0959 14.1789 31.8555 13.5781 31.1343C13.0974 30.5332 12.8571 29.5716 12.8571 28.1292V19.4745H18.745L18.024 12.9835H12.9773V7.09342V2.28525C12.9773 2.28525 10.6942 2.40547 9.97329 2.52567C6.12817 2.76608 3.6048 5.41056 3.6048 8.29546V13.3441L0 13.5845V19.5947H3.6048V29.5716C3.6048 32.5767 4.44592 34.9808 6.008 36.7839C7.57008 38.5869 9.97328 39.4284 13.0974 39.4284C14.6595 39.4284 15.8611 39.3082 16.9426 39.188C18.6248 38.8273 19.8264 37.3849 19.8264 35.5818V31.2545C18.6248 31.7353 17.4232 32.0959 16.3418 32.0959Z" fill="#FF5215"/>
<path fill-rule="evenodd" clip-rule="evenodd" d="M38.0905 32.934C39.0518 32.4531 39.7728 31.9723 40.2534 31.2511V28.9672C38.6913 27.8854 37.0091 27.4046 35.0865 27.4046C33.8849 27.4046 32.9237 27.645 32.2027 28.246C31.4817 28.7268 31.2414 29.5682 31.2414 30.5299C31.2414 31.4915 31.6019 32.2128 32.2027 32.8138C32.8035 33.2946 33.7648 33.6552 35.0865 33.6552C36.168 33.535 37.1293 33.2946 38.0905 32.934ZM24.6326 37.0209C22.7101 35.4583 21.6286 33.2946 21.6286 30.5299C21.6286 27.645 22.5899 25.4813 24.5124 23.9186C26.435 22.356 29.0785 21.6348 32.6833 21.6348C34.0051 21.6348 35.447 21.755 36.7688 22.1156C38.0905 22.4762 39.2921 22.8368 40.3736 23.3176V22.8368C40.3736 20.0721 38.0905 18.7499 33.6446 18.7499C30.5205 18.7499 28.5979 18.9903 26.0745 20.1923C26.0745 20.1923 25.7141 17.668 25.5939 16.7064C25.3536 14.7831 26.9157 13.3407 29.439 12.8599C31.2414 12.4993 33.164 12.3791 35.2067 12.3791C39.8929 12.3791 43.4977 13.3407 45.9009 15.264C48.3041 17.1872 49.5057 19.8317 49.5057 23.1974V34.8572C49.5057 37.9825 48.4243 38.7038 45.7808 38.7038H40.9744L40.7341 36.5401C39.7728 37.5017 38.5712 38.223 37.1293 38.7038C35.6873 39.1846 34.0051 39.5452 32.2027 39.5452C29.0785 39.3048 26.5552 38.5836 24.6326 37.0209Z" fill="#FF5215"/>
<path fill-rule="evenodd" clip-rule="evenodd" d="M62.3626 38.4654V0C62.3626 0 60.1998 0.120219 59.3586 0.240423C55.5135 0.480832 52.9902 3.12531 52.9902 6.01021V38.4654H62.3626Z" fill="#FF5215"/>
<path fill-rule="evenodd" clip-rule="evenodd" d="M117.757 30.4117C116.555 31.4935 114.993 32.0945 113.191 32.0945C111.749 32.0945 110.547 31.7339 109.345 31.0127C108.264 30.2915 107.423 29.3299 106.942 28.0076V23.4398C107.423 22.2378 108.264 21.2762 109.345 20.4347C110.427 19.7135 111.749 19.3529 113.191 19.3529C115.113 19.3529 116.675 19.9539 117.757 21.0357C118.958 22.1176 119.559 23.6803 119.559 25.6035C119.559 27.7672 118.958 29.3299 117.757 30.4117ZM127.369 18.7519C126.288 16.7084 124.606 15.0255 122.563 13.9437C120.52 12.8619 118.117 12.2608 115.474 12.2608C113.791 12.2608 112.109 12.5013 110.667 12.9821C109.105 13.4629 107.904 14.1841 106.822 15.0255V0C106.822 0 104.539 0.120219 103.818 0.240423C99.973 0.480832 97.4496 3.12531 97.4496 6.01021V38.4654H106.221L106.462 35.9411C108.865 38.2249 111.869 39.3068 115.474 39.3068C118.117 39.3068 120.52 38.7058 122.563 37.624C124.606 36.5421 126.168 34.9794 127.369 32.936C128.451 30.8925 129.052 28.4884 129.052 25.8439C129.052 23.1994 128.571 20.7953 127.369 18.7519Z" fill="#FF5215"/>
</svg>
