<svg width="180" height="37" viewBox="0 0 180 37" fill="none" xmlns="http://www.w3.org/2000/svg">
<path d="M21.7457 0C25.5798 0.628436 29.185 2.74227 31.474 5.88445C31.9319 6.51289 32.3897 7.19845 32.733 7.94115C31.2451 8.9695 29.7573 9.94072 28.3266 10.9691C28.0977 11.1405 27.9261 11.2547 27.6399 11.369C26.9532 9.65507 25.7515 8.11254 24.2064 7.08419C23.0619 6.34149 21.7457 5.82732 20.4295 5.54167C20.8301 3.71349 21.2879 1.88531 21.7457 0ZM7.89713 1.65679C9.67112 1.08548 11.7312 1.99957 12.4752 3.65636C13.1046 4.91323 12.933 6.57002 12.0746 7.6555C10.9873 9.02663 8.92718 9.54081 7.38209 8.74098C6.35204 8.2268 5.55088 7.25558 5.32198 6.11297C5.1503 5.25601 5.20752 4.34192 5.66533 3.5421C6.12313 2.62801 6.98152 1.99957 7.89713 1.65679ZM0 21.1383C2.11735 21.0812 4.17746 21.1383 6.29481 21.1383C6.69539 23.4235 7.66822 25.5945 9.21331 27.3084C10.415 28.6796 11.9601 29.6508 13.6197 30.2792C15.9087 31.1362 18.4266 31.2504 20.8301 30.6791C23.0047 30.165 24.9503 28.9652 26.381 27.1942C27.3538 25.9944 28.0977 24.6233 28.4983 23.1379C30.3868 23.6521 32.1608 24.3376 34.0492 24.9089C33.992 25.4802 33.7631 26.0515 33.5342 26.6229C32.2752 29.8793 29.929 32.6787 26.896 34.4497C24.9503 35.5924 22.7185 36.3351 20.4867 36.6207C16.0804 37.192 11.4451 36.2779 7.72545 33.8213C5.72255 32.5073 3.94856 30.7363 2.6896 28.6796C1.20174 26.5086 0.343353 23.8806 0 21.1383Z" fill="#28BB4E"/>
<path d="M39.0852 15.9956C41.7748 11.6537 47.7262 9.65408 52.4759 11.6537C53.9638 12.225 54.9939 13.4247 55.8523 14.7387C55.795 13.7104 55.795 12.682 55.795 11.5965H61.5176C61.632 19.7662 61.2887 27.9359 61.7465 36.1055H56.1384C56.0812 34.9629 56.0239 33.8775 55.9667 32.7348C53.0482 37.9337 45.4372 37.7623 41.317 34.2202C36.2239 29.7641 35.5372 21.5372 39.0852 15.9956ZM47.7835 16.1098C42.5187 17.4238 41.6031 24.508 44.0066 28.6214C45.8378 31.9921 50.9881 32.6777 53.6205 29.8783C56.2528 27.136 56.4817 22.6799 54.9366 19.3092C53.7349 16.6811 50.5303 15.4243 47.7835 16.1098ZM90.7598 13.3676C94.9373 9.93974 101.404 9.99687 105.696 13.2533C109.301 16.1098 110.274 21.0231 109.93 25.365C103.922 25.4221 97.8558 25.365 91.8471 25.365C92.1332 27.7645 93.4494 30.2211 95.7957 31.1352C99.172 32.792 103.636 31.1923 104.837 27.536C106.497 28.0501 108.099 28.5643 109.759 29.0214C108.843 31.5351 107.184 33.8775 104.78 35.1915C100.088 37.8766 93.5639 37.0768 89.7298 33.1919C84.465 27.9359 84.8656 18.0523 90.7598 13.3676ZM93.4494 17.7666C92.591 18.6807 92.3049 19.9376 91.9616 21.0802C96.0246 21.0802 100.145 21.1945 104.208 20.9659C103.807 19.4805 103.349 17.8809 102.033 16.9097C99.5726 15.0815 95.5096 15.31 93.4494 17.7666ZM118.686 13.139C122.634 10.1111 128.414 10.1111 132.592 12.682C136.712 15.3671 138.085 20.7374 137.513 25.365C131.504 25.3079 125.496 25.365 119.487 25.365C119.773 26.7933 120.117 28.2787 121.089 29.3641C123.264 32.0493 127.613 32.5635 130.36 30.5067C131.39 29.7641 131.848 28.5072 132.592 27.5931C134.194 27.993 135.796 28.5643 137.399 29.0785C136.483 31.6494 134.766 33.9917 132.306 35.3057C127.67 37.8195 121.375 37.1339 117.599 33.4204C111.991 28.1073 112.448 17.7666 118.686 13.139ZM120.975 17.8238C120.174 18.7378 119.888 19.9376 119.544 21.0802H131.733C131.447 19.6519 131.047 18.1094 129.845 17.0811C127.384 15.0244 123.092 15.1958 120.975 17.8238ZM148.729 14.5673C151.991 9.53982 160.632 9.59695 163.379 15.0815C166.011 10.5682 172.592 9.53982 176.713 12.5677C178.944 14.2817 179.974 17.1382 179.974 19.8805C180.032 25.2507 179.974 30.621 179.974 35.9913H174.309V21.5372C174.309 20.0519 174.08 18.4522 173.05 17.3667C170.876 15.1958 166.698 15.7671 165.267 18.5093C164.524 19.7662 164.524 21.3087 164.524 22.6799V35.9913H158.801C158.744 30.7924 158.858 25.5935 158.744 20.4518C158.744 18.1665 156.855 16.0527 154.509 16.1098C151.762 15.7099 149.187 17.938 149.015 20.6232C148.844 25.7649 149.015 30.9067 148.958 35.9913H143.178V11.4823H148.787C148.787 12.5677 148.787 13.5961 148.729 14.5673ZM68.9569 11.5394H74.6795C74.6795 12.7963 74.6222 14.1103 74.6222 15.3671C76.2245 12.1678 79.9442 10.8538 83.3205 11.3109V17.3096C81.3176 17.2525 79.0858 17.0239 77.3691 18.2808C75.5378 19.4805 74.9084 21.8229 74.8511 23.8796C74.7939 27.9359 74.8511 31.9921 74.7939 36.0484H68.9569V11.5394Z" fill="#28BB4E"/>
</svg>
