<svg width="171" height="100" viewBox="0 0 171 100" fill="none" xmlns="http://www.w3.org/2000/svg">
<g clip-path="url(#clip0_1413_2)">
<path fill-rule="evenodd" clip-rule="evenodd" d="M86.4013 2.66963C87.1575 2.02447 86.7572 0.57842 87.9136 0.333704C88.7143 0.111235 89.1813 0.856507 89.5705 1.40156C89.3036 1.50538 89.0367 1.61661 88.7699 1.73526C88.6253 1.53504 88.3362 1.12347 88.1916 0.923248C87.9359 1.36819 87.7691 1.86874 87.669 2.3693C88.2584 2.38042 88.8477 2.39155 89.4371 2.40267C89.4371 2.59177 89.4259 2.96997 89.4259 3.15907C88.4252 3.15907 87.4355 3.15907 86.4347 3.14794C86.4236 3.02558 86.4125 2.79199 86.4013 2.66963ZM17.7473 3.40378C17.7918 2.703 17.814 1.69077 18.7036 1.53504C19.4153 1.29032 20.0158 1.802 20.3271 2.39155C20.1381 2.60289 19.9268 2.79199 19.7267 2.99221C19.5376 2.76974 19.1707 2.32481 18.9816 2.09121C18.7815 2.54727 18.6035 3.00334 18.4479 3.47052C19.2151 3.59288 20.405 3.18131 20.4606 4.32703C19.4153 4.38265 18.37 4.37152 17.3248 4.38265C17.2803 4.23804 17.1913 3.93771 17.1468 3.7931C17.3025 3.69299 17.6028 3.50389 17.7473 3.40378ZM5.08179 4.0267C5.57107 4.0267 6.06034 4.0267 6.54962 4.0267C6.56074 7.297 6.54962 10.5784 6.54962 13.8487C6.66081 15.3281 5.45987 16.6518 4.06989 16.9744C2.25735 17.4861 0.177935 16.04 0.0778562 14.1491C0.0222569 12.7809 0.0667363 11.4127 0.0778562 10.0445C0.574543 10.0519 1.07123 10.0593 1.56792 10.0667C1.60128 11.3904 1.5012 12.7364 1.62352 14.0601C1.76808 15.2058 3.25814 15.9399 4.22556 15.2392C4.93724 14.8276 5.11515 13.9377 5.08179 13.1813C5.08179 10.1335 5.05955 7.08565 5.08179 4.0267ZM21.5169 4.01557C22.0285 4.02299 22.54 4.0304 23.0515 4.03782C23.0626 6.75195 23.0849 9.46607 23.0515 12.1802C23.1071 13.3815 22.1508 14.4828 20.9387 14.5606C19.2596 14.6607 17.5694 14.5829 15.8903 14.5829C15.8903 14.0712 15.8903 13.5484 15.8903 13.0367C17.4582 12.9922 19.0261 13.0701 20.594 13.0033C21.061 13.0478 21.5392 12.6919 21.4836 12.2024C21.5503 9.46607 21.4614 6.74082 21.5169 4.01557ZM24.5193 4.0267C25.0086 4.0267 25.509 4.0267 26.0094 4.0267C26.1762 7.54171 26.065 11.0679 26.0094 14.5829C25.5127 14.5829 25.0123 14.5829 24.5082 14.5829C24.5193 11.0679 24.5082 7.55284 24.5193 4.0267ZM59.2911 4.07119C59.7693 4.01557 60.2474 4.00445 60.7256 3.9822C60.7812 5.56174 60.7478 7.13014 60.7478 8.69855C61.9265 7.91991 63.1831 6.99666 64.6731 7.15239C66.0409 7.17464 67.1862 8.3871 67.3753 9.69967C67.5087 10.7341 67.5198 11.802 67.3641 12.8365C67.1529 13.9266 66.0409 14.6162 64.9845 14.594C63.272 14.6274 61.5707 14.5829 59.8694 14.6051C58.4794 14.5829 57.056 14.7497 55.7216 14.2603C54.9989 14.5161 54.2538 14.6496 53.4866 14.6051C49.6502 14.5606 45.7916 14.6607 41.9553 14.5606C41.8552 14.4939 41.6661 14.3604 41.5661 14.2937C41.2658 13.2258 41.4993 12.0578 41.4437 10.9566C41.3881 10.2447 41.655 9.27697 40.91 8.84316C40.3318 8.3426 39.3643 8.94327 39.3755 9.65517C39.2865 11.6796 39.4422 13.7041 39.3199 15.7175C39.331 16.485 38.3524 16.3293 37.8409 16.396C36.2619 16.3849 34.6829 16.4961 33.115 16.307C31.169 16.04 29.868 13.7375 30.6352 11.9355C30.9466 10.8565 31.9474 10.2336 32.8703 9.71079C33.1372 10.1446 33.4041 10.5784 33.671 11.0122C33.0816 11.4461 32.2921 11.7798 32.0697 12.5473C31.6583 13.5706 32.5479 14.7386 33.6154 14.8053C35.0053 14.8832 36.3953 14.8053 37.7742 14.8276C37.8298 13.0033 37.7075 11.168 37.8298 9.34372C37.9855 7.40823 40.6209 6.41824 42.0331 7.71969C43.5676 9.03226 42.856 11.2681 43.0005 13.0256C46.937 12.9922 50.8845 13.0812 54.8209 12.97C54.8765 11.1457 54.7653 9.32147 54.8654 7.49722C55.3213 7.33037 55.8217 7.35261 56.2888 7.4861C56.5112 9.31035 56.3332 11.1568 56.3888 12.9922C57.3118 13.0256 58.257 13.0256 59.191 13.0256C59.2355 10.0445 59.0354 7.04116 59.2911 4.07119ZM60.7589 10.634C60.7589 11.4349 60.7478 12.2247 60.7478 13.0256C62.2824 12.9922 63.8058 13.0923 65.3403 12.97C66.0965 12.7697 65.8185 11.8242 65.8963 11.257C65.963 10.2892 65.863 8.89878 64.662 8.7208C63.1386 8.63181 61.8932 9.76641 60.7589 10.634ZM87.1464 4.01557C87.6356 4.08231 88.2584 3.87097 88.6587 4.1713C88.7476 7.64182 88.6809 11.1123 88.6809 14.5829C88.1805 14.5829 87.669 14.594 87.1686 14.594C87.0908 11.0679 87.1241 7.54171 87.1464 4.01557ZM101.535 4.06007C102.047 4.0267 102.547 4.00445 103.07 3.99333C103.148 6.99666 103.048 10 103.126 13.0033C107.562 13.0256 111.999 13.059 116.425 12.9811C116.469 11.0901 116.369 9.19911 116.503 7.30812C116.992 7.41935 117.593 7.26363 117.993 7.6307C118.071 9.42158 117.993 11.2125 118.015 12.9922C119.305 13.0367 120.584 13.0256 121.874 13.0033C121.907 11.1457 121.863 9.29922 121.896 7.45273C122.419 7.46385 122.93 7.47497 123.453 7.49722C123.419 9.29922 123.508 11.0901 123.419 12.8921C123.375 13.8821 122.43 14.6385 121.462 14.594C120.083 14.6162 118.66 14.7275 117.348 14.2603C116.714 14.4605 116.058 14.6385 115.391 14.6051C111.766 14.594 108.152 14.594 104.527 14.6051C103.815 14.6274 103.126 14.4605 102.447 14.2603C100.446 14.9054 98.2996 14.505 96.2313 14.5829C94.1519 14.6051 92.584 12.3137 93.2289 10.356C93.5292 9.16574 94.5856 8.45384 95.6086 7.93103C95.8458 8.38339 96.0793 8.83574 96.3091 9.2881C95.6975 9.72191 94.7968 10.0779 94.7079 10.9344C94.441 11.9021 95.2305 13.0033 96.2424 13.0033C97.9994 13.059 99.7452 13.0145 101.502 13.0033C101.569 10.0222 101.513 7.04116 101.535 4.06007ZM63.1163 4.39377C63.5834 4.39377 64.0504 4.41602 64.5063 4.42714C64.5137 4.93141 64.5175 5.43567 64.5175 5.93993C64.0504 5.95106 63.5834 5.96218 63.1275 5.96218C63.1126 5.43567 63.1089 4.91287 63.1163 4.39377ZM116.492 4.46051C116.966 4.46051 117.444 4.46051 117.926 4.46051C117.911 4.96478 117.893 5.46904 117.871 5.9733C117.415 5.96218 116.97 5.95106 116.514 5.93993C116.499 5.4505 116.492 4.95736 116.492 4.46051ZM18.0031 5.1168C18.4998 5.10938 19.0002 5.10197 19.5043 5.09455C19.5821 7.53059 19.5376 9.96663 19.5265 12.4027C19.015 12.4027 18.5035 12.4027 18.0031 12.3915C18.0031 9.96663 17.992 7.54171 18.0031 5.1168ZM97.5434 8.50945C97.5101 7.70857 97.7658 6.5406 98.7889 6.59622C99.6117 6.45161 99.9565 7.31924 100.234 7.90879C99.6562 7.83092 99.1113 7.6307 98.5554 7.4861C98.433 7.84205 98.3552 8.20912 98.2662 8.5762C99.0113 8.70968 100.257 8.27586 100.234 9.41046C99.1781 9.44383 98.1217 9.4327 97.0653 9.44383C97.0431 9.2881 96.9986 8.99889 96.9652 8.85428C97.1098 8.76529 97.3989 8.59844 97.5434 8.50945ZM10.1969 7.28587C11.9539 6.67408 14.1 7.84205 14.378 9.72191C14.5114 11.3014 14.4336 12.9032 14.4336 14.4939C14.4781 15.8954 13.3661 17.1969 11.9983 17.4416C11.1977 17.5417 10.3748 17.4972 9.57422 17.4972C9.5631 16.9855 9.5631 16.4739 9.62982 15.9622C10.4082 15.8732 11.1977 15.9511 11.9761 15.8398C12.4765 15.6062 12.71 15.0723 13.0214 14.6496C11.6425 14.5717 10.0079 14.8165 8.97375 13.6819C7.28353 11.891 7.65048 8.14238 10.1969 7.28587ZM10.5194 8.85428C9.3407 9.39933 9.4519 10.9566 9.70766 12.0245C10.2192 13.3037 11.7648 13.0033 12.8657 13.0367C12.8435 11.9577 12.9435 10.8676 12.7879 9.78865C12.4876 8.92102 11.3645 8.37597 10.5194 8.85428ZM68.9988 9.39933C69.5659 7.18576 72.6906 6.37375 74.2696 7.99778C75.7485 9.23248 75.1592 11.3348 75.2592 13.0145C78.2282 13.0033 81.1972 13.0478 84.1663 12.9922C84.2441 11.168 84.1218 9.33259 84.233 7.50834C84.6889 7.37486 85.1782 7.39711 85.6452 7.38598C85.6786 9.21023 85.7008 11.0456 85.6563 12.881C85.6897 13.8598 84.7445 14.6162 83.8215 14.5829C81.0082 14.6274 78.1838 14.594 75.3704 14.594C75.1592 15.4505 74.8589 16.3293 74.1139 16.8632C73.0686 17.7753 71.5897 17.4527 70.322 17.4527C70.3776 16.941 70.4443 16.4294 70.5111 15.9066C71.2561 15.8954 72.0234 15.9733 72.7795 15.8398C73.3133 15.6507 73.5579 15.0723 73.8804 14.6385C72.5238 14.5606 70.9003 14.8387 69.8772 13.7152C68.6429 12.6474 68.8208 10.8565 68.9988 9.39933ZM71.2894 8.89878C70.1663 9.51057 70.3109 11.0456 70.5889 12.0801C71.1338 13.3148 72.6461 12.9922 73.7247 13.0367C73.7136 12.0133 73.7803 10.9789 73.6802 9.96663C73.4912 8.95439 72.1679 8.32036 71.2894 8.89878ZM54.8877 15.8287C55.3621 15.8361 55.8403 15.8472 56.3221 15.8621C56.311 16.3293 56.311 16.8076 56.2554 17.2859C55.7995 17.3526 55.3436 17.3526 54.8877 17.3637C54.8802 16.8521 54.8802 16.3404 54.8877 15.8287ZM83.2989 15.9066C83.7659 15.8398 84.2441 15.8287 84.7222 15.8065C84.7222 16.307 84.7222 16.7964 84.6666 17.2859C84.3331 17.3526 83.9995 17.4082 83.6659 17.3637C82.9653 17.297 83.3434 16.3737 83.2989 15.9066ZM121.017 15.8398C121.507 15.8398 121.996 15.8509 122.485 15.8732C122.485 16.3478 122.485 16.8187 122.485 17.2859C121.996 17.2933 121.507 17.297 121.017 17.297C121.01 16.8076 121.01 16.3218 121.017 15.8398ZM33.6265 17.7197C34.1046 17.7197 34.5939 17.7308 35.0832 17.7419C35.0832 18.224 35.0832 18.706 35.0832 19.188C34.5939 19.188 34.1083 19.1843 33.6265 19.1769C33.6265 18.6874 33.6265 18.2091 33.6265 17.7197ZM35.8171 17.7419C36.3138 17.7345 36.8105 17.7308 37.3072 17.7308C37.296 18.198 37.296 18.6652 37.2404 19.1435C36.7734 19.188 36.2952 19.188 35.8282 19.1991C35.8171 18.7097 35.8171 18.2314 35.8171 17.7419ZM0.0556165 26.3849C11.0976 26.396 22.1285 26.3849 33.1706 26.396C33.1594 29.6774 33.1706 32.97 33.1594 36.2514C26.0761 36.2514 19.0039 36.2403 11.9205 36.2514C11.9316 40.4116 11.9205 44.5717 11.9205 48.7208C18.2144 48.7319 24.5082 48.7208 30.802 48.7208C30.8799 51.7353 30.7576 54.7386 30.8799 57.7419C24.5638 57.7642 18.2366 57.7419 11.9205 57.7531C11.9316 65.2948 11.9094 72.8365 11.9316 80.3782C7.97296 80.3893 4.01429 80.3782 0.0556165 80.3893C0.0667363 62.3915 0.0667363 44.3826 0.0556165 26.3849ZM48.0934 26.396C52.5302 26.3849 56.9671 26.396 61.3928 26.396C67.9868 44.3938 74.5587 62.3915 81.1528 80.3782C76.8271 80.3782 72.4904 80.3893 68.1648 80.3782C67.0305 76.7853 65.8518 73.2036 64.7065 69.6107C57.7232 69.5996 50.7511 69.6107 43.7678 69.5996C42.5113 73.1924 41.3437 76.8076 40.0871 80.3893C35.995 80.3782 31.9029 80.4004 27.8108 80.3782C34.605 62.3915 41.3325 44.3938 48.0934 26.396ZM46.8702 60.0334C51.7741 60.0556 56.678 60.0334 61.5818 60.0334C60.025 55.3059 58.5016 50.5562 56.956 45.8287C56.0441 43.0033 55.0878 40.1891 54.3873 37.297C52.0521 44.9388 49.4389 52.4805 46.8702 60.0334ZM84.9446 26.396C90.2006 26.396 95.4529 26.396 100.701 26.396C104.738 26.4182 108.852 26.1402 112.778 27.2525C116.77 28.2536 120.639 30.723 122.352 34.594C124.409 39.3103 123.764 45.3949 120.083 49.1546C118.671 50.634 116.836 51.6129 114.902 52.1913C117.77 52.8921 120.595 54.238 122.474 56.574C125.165 59.8109 125.599 64.3604 124.765 68.3537C124.009 72.1023 121.585 75.4283 118.315 77.3749C114.579 79.6552 110.12 80.3448 105.806 80.3782C98.8556 80.3893 91.8946 80.3782 84.9446 80.3782C84.9446 62.3804 84.9558 44.3826 84.9446 26.396ZM96.8095 35.7063C96.8207 39.9333 96.8207 44.1602 96.8207 48.3871C99.634 48.3537 102.458 48.4761 105.272 48.3092C107.562 48.1535 110.064 47.1079 110.954 44.8276C111.699 42.792 111.755 40.3115 110.587 38.4093C109.275 36.4405 106.773 35.7731 104.538 35.7175C101.958 35.6952 99.3893 35.7175 96.8095 35.7063ZM96.8207 56.5406C96.8132 61.3756 96.8132 66.2143 96.8207 71.0567C99.823 70.99 102.836 71.1902 105.828 70.9344C108.219 70.7453 110.709 69.5106 111.666 67.1858C112.589 64.8053 112.522 61.9689 111.299 59.7108C110.087 57.5528 107.518 56.6852 105.172 56.5851C102.381 56.4739 99.6006 56.574 96.8207 56.5406ZM7.33913 88.9544C8.62903 88.5206 9.25174 90.6674 7.86176 90.9344C6.60521 91.2792 6.11594 89.2325 7.33913 88.9544ZM37.9076 89.2102C38.4636 89.1991 39.0085 89.1991 39.5645 89.1991C39.5645 90.3115 39.5645 91.4349 39.5422 92.5584C40.9211 91.7464 43.0228 91.8243 43.8679 93.3482C44.8353 95.2169 44.713 98.0089 42.8337 99.277C41.3659 100.267 39.5089 99.8665 37.9187 99.4327C37.9076 96.0178 37.9299 92.614 37.9076 89.2102ZM39.5645 93.6819C39.6312 95.2725 39.3866 96.9299 39.6868 98.4872C40.6098 98.7319 41.7773 98.6429 42.3 97.7308C42.9004 96.6185 42.9338 95.0946 42.2444 94.0156C41.6217 93.1146 40.4318 93.3482 39.5645 93.6819ZM65.6739 89.1991C66.2188 89.1991 66.7525 89.1991 67.2974 89.1991C67.2974 90.3337 67.2974 91.4683 67.2863 92.5918C68.2092 92.158 69.2656 91.8465 70.2887 92.1468C71.2116 92.3804 71.7787 93.337 71.7787 94.2492C71.8343 96.0845 71.7787 97.9199 71.801 99.7553C71.2672 99.7553 70.7335 99.7553 70.1997 99.7553C70.1552 97.9199 70.322 96.0845 70.1219 94.2603C69.8327 92.9922 68.1759 93.2369 67.353 93.7931C67.2085 95.7731 67.3308 97.7753 67.2974 99.7553C66.7563 99.7553 66.2151 99.7553 65.6739 99.7553C65.685 96.2403 65.685 92.7141 65.6739 89.1991ZM80.0408 89.2102C80.5894 89.2028 81.1416 89.1991 81.6976 89.1991C81.6976 90.3226 81.6976 91.4349 81.6754 92.5584C82.7429 91.98 84.1551 91.7798 85.2115 92.5028C86.3791 93.3148 86.646 94.8498 86.5793 96.1847C86.5459 97.5306 85.8453 98.9321 84.5777 99.5106C83.1432 100.2 81.5086 99.8109 80.0408 99.4105C80.0519 96.0178 80.0519 92.614 80.0408 89.2102ZM81.6976 93.6707C81.6902 95.2874 81.6939 96.904 81.7088 98.5206C82.5205 98.554 83.4991 98.7764 84.144 98.109C85.0892 97.0745 85.067 95.406 84.511 94.1935C83.9439 93.1479 82.6317 93.2925 81.6976 93.6707ZM87.7357 89.2325C88.225 88.6207 89.4259 88.921 89.4815 89.7442C89.6817 90.5562 88.6809 91.2792 87.9804 90.8009C87.4021 90.5339 87.2353 89.6552 87.7357 89.2325ZM117.326 89.1991C117.859 89.1991 118.393 89.2102 118.938 89.2102C118.938 91.2681 118.927 93.3148 118.949 95.3726C119.817 94.2825 120.684 93.1924 121.573 92.1246C122.174 92.1246 122.774 92.132 123.375 92.1468C122.407 93.2703 121.485 94.4383 120.506 95.5617C121.262 96.5295 122.007 97.4861 122.763 98.4427C122.941 98.4872 123.286 98.5651 123.464 98.5984C123.464 98.921 123.442 99.5439 123.442 99.8554C122.786 99.7775 122.018 99.8554 121.518 99.3215C120.562 98.3092 119.805 97.1301 118.949 96.04C118.927 97.2748 118.938 98.5095 118.949 99.7553C118.401 99.7553 117.856 99.7553 117.315 99.7553C117.337 96.2403 117.326 92.7141 117.326 89.1991ZM0.0667363 90.0334C1.93487 90.0334 3.79189 90.0334 5.67115 90.0334C5.66373 90.508 5.66373 90.9826 5.67115 91.4572C4.34418 91.4572 3.02091 91.4572 1.70136 91.4572C1.70136 92.3248 1.70136 93.1924 1.71248 94.0601C2.88006 94.0601 4.04765 94.0601 5.22635 94.0601C5.22635 94.4976 5.22635 94.9388 5.22635 95.3838C4.04765 95.3763 2.87265 95.3726 1.70136 95.3726C1.71248 96.8298 1.70136 98.287 1.71248 99.7553C1.15648 99.7553 0.61161 99.7553 0.0556165 99.7553C0.0667363 96.5184 0.0556165 93.2703 0.0667363 90.0334ZM31.7695 90.0111C32.3811 90.0334 32.9927 90.0111 33.6042 90.089C34.883 93.2703 35.9283 96.5517 37.1404 99.7553C36.5176 99.7553 35.8986 99.7553 35.2833 99.7553C35.0387 99.0211 34.7978 98.287 34.5605 97.5528C33.2484 97.564 31.9363 97.564 30.6241 97.564C30.3684 98.287 30.1237 99.0211 29.8791 99.7553C29.3009 99.7553 28.7226 99.7553 28.1444 99.7553C29.3787 96.5184 30.5463 93.2592 31.7695 90.0111ZM31.0912 96.1068C32.1031 96.1179 33.1038 96.1179 34.1158 96.1068C33.6154 94.6274 33.0927 93.1591 32.6702 91.6574C32.1364 93.1368 31.6471 94.6274 31.0912 96.1068ZM56.6001 90.0334C58.8352 90.1224 61.6263 89.5662 63.2609 91.5017C64.8622 93.5818 64.7843 97.0078 62.7716 98.7875C61.0481 100.234 58.6462 99.644 56.589 99.7553C56.6001 96.5184 56.589 93.2703 56.6001 90.0334ZM58.3014 91.4238C58.3014 93.7264 58.3126 96.04 58.3014 98.3426C59.5691 98.3426 61.1593 98.5095 61.971 97.3081C62.8272 95.9511 62.7716 94.0934 62.1044 92.6808C61.3483 91.3237 59.6358 91.4127 58.3014 91.4238ZM94.7857 99.7553C94.7968 96.5184 94.7857 93.2703 94.7857 90.0334C96.5204 90.1112 98.3774 89.7664 100.023 90.4894C101.647 91.3126 101.513 93.8821 99.8897 94.6607C101.847 95.317 102.014 98.2091 100.301 99.2325C98.6221 100.167 96.6094 99.6107 94.7857 99.7553ZM96.4426 91.4349C96.4426 92.3248 96.4426 93.2221 96.4426 94.1268C97.1765 94.0934 97.9215 94.1602 98.6443 94.0044C99.6896 93.7264 99.8453 92.0912 98.8778 91.6129C98.0994 91.3237 97.2432 91.4683 96.4426 91.4349ZM96.4426 95.3059C96.4426 96.3515 96.4426 97.3971 96.4537 98.4427C97.2877 98.3982 98.1773 98.5206 98.9779 98.198C99.7341 97.8198 99.7897 96.8187 99.5339 96.1068C98.9112 95.0167 97.4767 95.3838 96.4426 95.3059ZM21.2946 90.1891C21.7393 90.1743 22.1841 90.1594 22.6289 90.1446C22.6178 90.812 22.6289 91.4683 22.6178 92.1357C23.2035 92.1283 23.7891 92.1246 24.3748 92.1246C24.3748 92.436 24.3636 93.059 24.3636 93.3704C23.7743 93.3593 23.196 93.3593 22.6178 93.3593C22.6957 94.9499 22.4621 96.574 22.7624 98.1424C23.1404 98.8098 23.9522 98.4316 24.5638 98.4761C24.5527 98.9099 24.5416 99.3326 24.5304 99.7664C23.7632 99.822 22.9625 99.9666 22.1953 99.7553C21.4947 99.5328 21.0388 98.8209 21.061 98.109C20.9832 96.5295 21.0499 94.9388 21.0388 93.3593C20.783 93.3593 20.2938 93.3593 20.0491 93.3704C20.0343 92.9551 20.0232 92.5436 20.0158 92.1357C20.2715 92.1357 20.7942 92.1357 21.0499 92.1357C21.124 91.4831 21.2056 90.8343 21.2946 90.1891ZM6.80537 92.1357C7.35025 92.1357 7.89512 92.1246 8.45111 92.1246C8.43999 94.6719 8.43999 97.208 8.45111 99.7553C7.90253 99.7553 7.35766 99.7553 6.81649 99.7553C6.80537 97.2191 6.81649 94.683 6.80537 92.1357ZM11.5536 92.7586C12.2986 92.1913 13.1882 91.98 14.1111 92.0245C14.1334 92.5139 14.1519 93.007 14.1667 93.5039C13.2549 93.426 12.3431 93.5373 11.5758 94.0601C11.598 95.9622 11.5758 97.8532 11.5869 99.7553C11.0457 99.7553 10.5046 99.7553 9.96341 99.7553C9.97453 97.208 9.97453 94.6719 9.96341 92.1357C10.5046 92.1283 11.0457 92.1246 11.5869 92.1246C11.5758 92.2803 11.5647 92.6029 11.5536 92.7586ZM15.8013 92.3026C16.9133 91.8465 18.1365 92.0912 19.2819 92.2581C19.2819 92.5918 19.3041 93.2592 19.3041 93.5929C18.3478 93.4928 17.069 92.9477 16.2684 93.7041C15.7902 94.9499 17.5027 95.0501 18.2477 95.4616C19.8935 95.8843 20.2938 98.2981 18.9483 99.2881C17.7028 100.234 16.0126 99.8665 14.6226 99.5328C14.6226 99.1991 14.6226 98.5317 14.6226 98.198C15.5678 98.4427 16.5909 98.8209 17.5694 98.4983C18.1588 98.3092 18.4145 97.4416 17.8808 97.0412C17.1024 96.574 16.1905 96.4182 15.4344 95.9177C14.2001 95.0723 14.3669 92.8365 15.8013 92.3026ZM73.4356 92.3248C74.8478 92.0912 76.5491 91.6685 77.7612 92.6585C78.7842 93.6596 78.4173 95.228 78.4729 96.5072C78.5396 97.3304 78.1393 98.5428 79.2624 98.7542C79.2698 99.1027 79.2772 99.4512 79.2846 99.7998C78.4618 99.9333 77.6167 99.8999 77.0051 99.2547C76.0376 99.8776 74.7477 100.145 73.6913 99.5662C72.3681 98.8543 72.3458 96.6407 73.6691 95.9177C74.6588 95.317 75.8486 95.3726 76.9606 95.3393C76.7604 94.7386 76.8939 93.8821 76.26 93.5261C75.3148 93.1257 74.2807 93.4928 73.3466 93.7486C73.3689 93.2703 73.4022 92.792 73.4356 92.3248ZM74.4586 97.0634C74.2251 97.5306 74.3141 98.2091 74.8144 98.4761C75.4705 98.8765 76.2378 98.4983 76.8827 98.2314C76.8679 97.6085 76.8568 96.9855 76.8494 96.3626C76.0487 96.485 75.0035 96.3181 74.4586 97.0634ZM87.669 92.1246C88.2139 92.1246 88.7699 92.1246 89.3147 92.1357C89.3147 94.6719 89.3147 97.2191 89.3147 99.7553C88.7588 99.7553 88.2139 99.7553 87.669 99.7553C87.6912 97.208 87.6801 94.6719 87.669 92.1246ZM103.07 92.3137C104.616 92.0467 106.862 91.5573 107.807 93.2258C108.319 94.683 107.952 96.2736 108.085 97.7864C107.941 98.3871 108.519 98.5539 108.93 98.7875C108.919 99.0434 108.908 99.5773 108.908 99.8443C108.085 99.9221 107.24 99.8888 106.617 99.2659C105.661 99.8665 104.404 100.133 103.37 99.5884C101.969 98.9321 101.958 96.5962 103.315 95.8954C104.293 95.317 105.472 95.3838 106.573 95.3393C106.373 94.7386 106.506 93.9043 105.894 93.5261C104.96 93.1257 103.937 93.4816 103.014 93.7264C103.029 93.2592 103.048 92.7883 103.07 92.3137ZM104.082 97.03C103.826 97.5306 103.937 98.2202 104.471 98.5095C105.06 98.7653 105.794 98.6429 106.328 98.2981C106.551 97.6863 106.473 97.0078 106.517 96.3738C105.694 96.4739 104.682 96.3404 104.082 97.03ZM109.709 92.0912C110.32 92.1468 111.021 92.0245 111.51 92.5139C112.455 92.069 113.578 91.8465 114.59 92.2358C115.357 92.5918 115.791 93.426 115.836 94.2492C115.936 96.0845 115.836 97.9199 115.88 99.7553C115.324 99.7553 114.772 99.7553 114.223 99.7553C114.179 97.9199 114.323 96.0845 114.157 94.2603C113.856 92.9255 112.233 93.3482 111.343 93.7597C111.321 95.762 111.332 97.7531 111.343 99.7553C110.787 99.7553 110.239 99.7553 109.697 99.7553C109.709 97.1969 109.697 94.6496 109.709 92.0912ZM45.4469 92.1357C45.9806 92.1357 46.5181 92.1357 47.0593 92.1357C47.0593 93.693 47.037 95.2503 47.0482 96.8187C47.0482 97.4305 47.1594 98.1646 47.7709 98.465C48.5049 98.7542 49.2388 98.3871 49.9282 98.1757C49.9282 96.1587 49.9282 94.1453 49.9282 92.1357C50.4916 92.1357 51.0587 92.1357 51.6295 92.1357C51.6295 94.6867 51.6295 97.2377 51.6295 99.7887C50.9957 99.7553 50.3174 99.7998 49.7614 99.4105C48.7717 99.8443 47.5708 100.133 46.5589 99.5884C45.7694 99.2102 45.4803 98.287 45.4469 97.475C45.4135 95.6952 45.458 93.9155 45.4469 92.1357Z" fill="white"/>
<path d="M122.23 26.4294C138.253 17.6307 154.288 8.85428 170.312 0.0667408C163.284 11.4905 157.168 23.5261 152.776 36.218C148.75 47.8087 146.104 59.9666 145.704 72.2581C145.392 78.832 145.959 85.4283 146.904 91.9355C139.499 81.1346 135.351 68.109 135.284 54.9944C135.173 45.1835 137.308 35.3504 141.467 26.4516C135.051 26.4182 128.635 26.4627 122.23 26.4294Z" fill="#EF2E24"/>
</g>
<defs>
<clipPath id="clip0_1413_2">
<rect width="170.356" height="100" fill="white"/>
</clipPath>
</defs>
</svg>
